<?xml version="1.0" encoding="UTF-8"?>
<svg id="Layer_1" data-name="Layer 1" xmlns="http://www.w3.org/2000/svg" viewBox="0 0 401.69 401.69">
  <defs>
    <style>
      .cls-1 {
        fill: #fff;
        stroke: #010101;
        stroke-linejoin: round;
        stroke-width: 2px;
      }
    </style>
  </defs>
  <polygon class="cls-1" points="162.57 6.87 195.24 127.16 213.75 139.39 236.08 131.07 291.07 36.21 268.75 18.6 230.63 15.67 191.25 1 162.57 6.87"/>
  <polygon class="cls-1" points="314.11 44.2 383.26 98.48 400.69 232.47 304.85 180.63 302.13 153.25 259.12 139.07 314.11 44.2"/>
  <polygon class="cls-1" points="291.46 171.38 262.6 197.3 280.03 221.75 258.25 221.75 345.37 333.73 390.01 250.6 294.18 198.76 291.46 171.38"/>
  <polygon class="cls-1" points="242.78 232.47 215.56 241.76 194.32 237.11 188.15 251.54 204.67 324.4 182.34 390.42 250.95 400.69 329.9 344.45 242.78 232.47"/>
  <polygon class="cls-1" points="168.74 244.69 159.66 238.34 152.58 244.69 84.52 321.96 115.56 366.46 162.93 383.57 185.25 317.55 168.74 244.69"/>
  <polygon class="cls-1" points="137.13 234.95 117.52 234.95 140.39 198.76 100.1 191.92 51.09 207.08 57.63 171.87 1 176.76 14.07 240.33 61.98 318.57 137.13 234.95"/>
  <polygon class="cls-1" points="114.74 173.83 64.65 44.73 35.79 71.14 30.89 122.48 15.64 158.67 72.27 153.78 65.73 188.98 114.74 173.83"/>
  <path class="cls-1" d="M125.36,161.56l21.24-16.14s24.14-3.42,24.87-2.45,3.99-19.56,3.99-19.56L142.78,3.13l-29.95,18.09-37.57,11.25,50.09,129.1Z"/>
  <polygon class="cls-1" points="185.25 145.1 181.26 164.66 156.39 167.1 135.16 183.24 175.45 190.08 152.58 226.27 172.18 226.27 181.26 232.63 187.43 218.2 208.67 222.85 235.89 213.56 257.67 213.56 240.25 189.11 269.1 163.19 226.09 149.01 203.76 157.32 185.25 145.1"/>
</svg>