<?xml version="1.0" encoding="UTF-8" standalone="no"?>
<svg
   xmlns:dc="http://purl.org/dc/elements/1.1/"
   xmlns:cc="http://creativecommons.org/ns#"
   xmlns:rdf="http://www.w3.org/1999/02/22-rdf-syntax-ns#"
   xmlns:svg="http://www.w3.org/2000/svg"
   xmlns="http://www.w3.org/2000/svg"
   viewBox="0 0 1056 816"
   height="816"
   width="1056"
   xml:space="preserve"
   id="svg2"
   version="1.1"><metadata
     id="metadata8"><rdf:RDF><cc:Work
         rdf:about=""><dc:format>image/svg+xml</dc:format><dc:type
           rdf:resource="http://purl.org/dc/dcmitype/StillImage" /></cc:Work></rdf:RDF></metadata><defs
     id="defs6"><clipPath
       id="clipPath14"
       clipPathUnits="userSpaceOnUse"><path
         id="path12"
         d="M 0,0 H 612 V 792 H 0 Z" /></clipPath><clipPath
       id="clipPath24"
       clipPathUnits="userSpaceOnUse"><path
         id="path22"
         d="M 0,152 H 4937 V 6598 H 0 V 152" /></clipPath><clipPath
       id="clipPath174"
       clipPathUnits="userSpaceOnUse"><path
         id="path172"
         d="M 0,0 H 5099 V 6599 H 0 V 0" /></clipPath></defs><g
     clip-path="url(#clipPath14)"
     transform="matrix(0,-1.3333333,-1.3333333,0,1056,816)"
     id="g10"><g
       transform="matrix(0,-0.16,-0.16,0,1056,816)"
       id="g16"><g
         id="g18"><g
           clip-path="url(#clipPath24)"
           id="g20"><path
             id="path26"
             style="fill:none;stroke:#000000;stroke-width:6.25;stroke-linecap:round;stroke-linejoin:round;stroke-miterlimit:10;stroke-dasharray:none;stroke-opacity:1"
             d="m 2289,4772 -3,-1 -2,-1 -2,-1 -2,-1 -2,-1 -2,-1 -2,-1 -2,-1 -2,-1 -2,-1 -2,-1 -2,-1 -2,-1 -2,-1 -2,-1 -3,-1 -2,-1 -1,1 h -1 l -2,1 -1,1 h -1 l -2,1 -1,1 -2,1 h -1 l -1,1 -2,1 h -1 l -2,1 -1,1 h -1 l -2,1 -1,1 -2,1 -6,3 -5,2 -5,3 -4,3 -5,3 -4,3 -3,3 -4,3 -3,4 -3,3 -2,3 -3,4 -2,4 -2,4 -2,4 -2,4 -1,5 -2,4 -1,4 -1,4 -2,4 -2,4 -2,3 -2,4 -2,3 -2,3 -2,4 -2,2 -2,3 -3,2 -2,2 -2,2 -2,1 -2,1 -2,1 h -1 l -2,-1 -2,-1 -2,-1 -3,-2 -3,-2 -3,-3 -4,-3 -3,-3 -4,-4 -3,-3 -4,-4 -3,-3 -3,-4 -3,-3 -3,-3 -2,-3 -1,-3 -2,-3 -3,-7 -2,-8 -1,-7 1,-8 v -8 l 2,-8 3,-7 3,-8 4,-7 4,-7 6,-7 5,-7 7,-6 7,-5 7,-5 7,-4 9,-4 6,-2 h 1 l 3,-1 h 2 l 3,-1 h 3 3 l 4,-1 h 3 4 l 4,-1 h 4 4 4 l 5,-1 h 4 4 4 6 6 6 5 4 4 l 4,-1 h 3 2 l 3,-1 h 2 l 2,-1 1,-1 2,-1 1,-1 1,-1 1,-1 1,-1 2,-3 2,-4 2,-5 2,-5 v -4 -6 -5 l -1,-6 -2,-5 -2,-7 -3,-6 -3,-7 -4,-7 -5,-7 -5,-8 -6,-8 -6,-8 -7,-9 -5,-5 -3,-3 -2,-3 -2,-2 -3,-3 -2,-2 -3,-2 -2,-2 -3,-2 -2,-1 -3,-2 -3,-2 -3,-1 -4,-2 -3,-1 -4,-2 -5,-2 -4,-1 -6,-3 -8,-2 -6,-3 -6,-3 -6,-3 -5,-2 -4,-3 -4,-3 -4,-3 -3,-3 -3,-3 -2,-3 -2,-4 -2,-3 -1,-4 -1,-3 -1,-4 v -4 -5 -4 l 1,-4 v -4 l 1,-4 1,-3 1,-4 1,-4 1,-3 2,-3 2,-4 2,-3 2,-4 3,-3 2,-4 3,-3 4,-4 4,-4 3,-4 4,-4 3,-3 3,-4 3,-3 2,-4 2,-3 2,-4 2,-3 1,-3 2,-3 1,-4 1,-3 1,-4 v -3 l 1,-4 v -4 -4 -4 l -1,-5 -2,-4 -2,-3 -3,-3 -3,-3 -4,-2 -5,-1 -5,-1 -6,-1 h -6 l -6,1 -7,1 -7,1 -7,2 -8,3 -7,3 -8,4 -5,2 -4,2 -3,2 -3,2 -4,2" /><path
             id="path28"
             style="fill:none;stroke:#000000;stroke-width:6.25;stroke-linecap:round;stroke-linejoin:round;stroke-miterlimit:10;stroke-dasharray:none;stroke-opacity:1"
             d="m 2063,4362 -2,2 -3,2 -3,2 -3,3 -2,2 -3,3 -3,3 -2,4 -3,3 -3,4 -4,5 -3,4 -4,6 -3,4 -2,3 -3,4 -2,3 -3,4 -2,3 -3,3 -2,3 -2,3 -3,3 -2,2 -2,3 -2,2 -2,2 -1,2 -2,1 -1,2 -1,1 -2,1 -3,2 -3,1 -3,1 -3,1 -4,1 -4,1 -4,1 -4,1 h -4 l -4,1 h -4 -4 -4 -3 -4 l -3,-1 -4,-1 h -3 l -3,-2 -3,-1 -3,-2 -4,-2 -3,-2 -3,-2 -3,-3 -2,-3 -3,-2 -3,-3 -2,-4 -2,-3 -2,-3 -2,-3 -2,-4 -1,-3 -1,-3 -1,-2 v -1 l -1,-2 v -1 l -1,-2 v -1 l -1,-2 -1,-1 v -1 -1 l -1,-1 v -1 l -1,-1 v -1 h -1 l -3,1 -3,2 -6,3 -6,5 -7,5 -8,6 -9,7 -9,8 -10,8 -10,8 -11,9 -10,9 -11,9 -10,9 -9,9 -10,8 -8,8 -8,7 -5,5 -5,5 -4,4 -5,5 -5,4 -4,4 -4,4 -4,3 -3,3 -4,3 -3,3 -3,2 -2,3 -2,1 -2,2 -1,1 h -1 -1 -1 v -1 l -1,-1 -1,-1 -1,-1 -2,-1 -1,-1 -1,-1 -2,-2 -1,-2 -2,-1 -1,-2 -2,-2 -1,-2 -2,-2 -2,-2 -2,-3 -2,-3 -3,-3 -2,-2 -1,-3 -2,-1 -2,-2 -1,-1 -1,-1 -2,-1 -1,-1 h -1 -1 -1 -1 -1 l -1,1 -1,1 -1,1 h -1 l -1,1 -1,1 -2,2 -1,1 -2,2 -2,1 -2,2 -2,2 -3,1 -2,2 -2,2 -3,2 -2,2 -3,3 -2,2 -3,2 -3,2 -3,3 -4,3 -4,5 -5,4 -5,6 -6,6 -6,6 -7,7 -7,7 -7,8 -7,7 -8,9 -7,8 -8,9 -8,8 -8,9 -8,9 -11,12 -13,16 -12,14 -11,12 -9,10 -8,10 -7,8 -6,7 -5,6 -4,5 -3,4 -2,3 -1,2 -1,1 v 1 l 1,1 h 1 l 1,-1 h 1 1 2 l 2,1 3,1 3,2 4,2 3,2 5,2 4,2 5,3 5,3 5,3 6,3 6,4 5,3 6,4 7,4 8,5 10,6 8,6 7,4 7,5 6,4 5,3 4,4 4,3 3,2 3,3 3,3 2,2 1,3 2,2 1,3 1,3 2,3 v 2 l 1,2 1,2 v 2 l 1,2 v 1 l 1,2 v 1 2" /><path
             id="path30"
             style="fill:none;stroke:#000000;stroke-width:6.25;stroke-linecap:round;stroke-linejoin:round;stroke-miterlimit:10;stroke-dasharray:none;stroke-opacity:1"
             d="m 1535,4906 v 1 1 1 1 1 1 l -1,1 h -1 v 1 l -1,1 v 1 h -1 v 2 1 1 1 l -1,2 v 1 2 2 2 1 2 2 l 1,3 v 3 2 2 2 2 2 1 1 l -1,1 v 1 h -1 l -1,1 h -1 -1 l -1,1 h -1 -1 -1 -1 -1 -1 -1 -1 v 1 h -1 -1 l -1,1 v 1 h -1 v 1 1 l -1,1 -1,1 h -1 -1 -2 -1 -2 l -2,-1 h -2 l -1,-1 -2,-1 h -2 l -2,-1 -1,-1 -1,-1 -1,-1 -1,-1 -1,-1 h -1 v -1 h -1 -1 -1 -1 l -1,1 h -1 l -1,1 h -1 l -1,1 h -2 l -1,1 -1,1 h -1 l -2,1 -1,1 -2,1 h -1 l -1,1 h -1 -2 l -1,1 h -1 -1 -2 -1 l -1,-1 h -2 -1 l -1,-1 h -2 l -1,-1 h -1 l -1,-1 h -1 l -1,-1 h -1 l -1,-1 h -1 l -1,-1 -1,-1 h -1 v -1 l -1,-1 v -1 h -1 v -1 l -1,-1 -2,-1 h -3 -4 -4 -5 l -6,1 h -6 l -6,1 -6,2 -7,1 -6,2 -7,1 -6,2 -6,2 -6,2 -5,2 -4,2 -2,1 h -1 l -1,1 -2,1 h -1 l -2,1 -1,1 h -2 l -1,1 -1,1 h -2 l -1,1 -2,1 h -1 l -1,1 -2,1 h -1 l -1,1 v 1 2 1 1 2 l 1,1 v 1 2 1 1 2 1 1 l 1,2 v 1 1 2 2 3 l 1,2 v 3 2 2 2 2 1 l -1,1 v 1 1 l -1,1 h -1 l -1,1 h -1 -1 -1 -1 -1 -1 l -1,1 h -1 v 1 1 1 l 1,1 v 1 1 1 l -1,1 v 1 h -1 v 1 l -1,1 h -1 v 1 l -1,1 v 1 h -1 v 1 1 l -1,1 v 1" /><path
             id="path32"
             style="fill:none;stroke:#000000;stroke-width:6.25;stroke-linecap:round;stroke-linejoin:round;stroke-miterlimit:10;stroke-dasharray:none;stroke-opacity:1"
             d="m 1307,5046 v 1 1 l -1,1 v 1 1 1 1 1 l 1,1 v 1 1 1 h 1 l 1,1 h 1 1 1 1 2 1 2 2 l 3,-1 3,-1 h 3 3 l 2,1 h 1 l 1,1 1,2 v 1 2 l -1,2 -2,3 -2,3 -2,3 -3,3 -4,4 -3,3 -5,5 -4,3 -4,3 -3,3 -2,3 -3,2 -2,2 -2,2 -1,2 -2,2 -1,2 v 1 l -1,1 v 2 1 1 2 l 1,1 1,1 v 1 l 1,1 v 1 l 1,1 1,1 1,1 1,1 1,1 h 1 l 1,1 2,1 1,1 1,1 h 1 l 2,1 1,1 h 1 l 2,1 h 1 l 2,1 h 2 l 1,1 1,1 h 1 l 1,1 1,1 1,1 v 1 h 1 v 1 1 l 1,1 v 2 1 1 1 2 1 1 1 1 1 1 h 1 v 1 h 1 v 1 h 1 l 1,1 h 1 l 2,1 h 1 1 4 l 3,1 4,2 3,1 3,2 2,3 3,3 2,3 1,3 2,3 1,4 v 3 4 4 3 l -1,4 -2,3 -2,3 -1,1 v 2 l -1,1 -1,1 v 1 l -1,1 v 1 l -1,2 v 1 l -1,1 v 1 l -1,1 v 2 1 1 1 1 l -1,1 1,3 1,4 2,3 2,4 3,4 3,4 3,3 4,4 3,3 4,3 4,3 4,2 4,2 3,2 4,1 h 3 3 l 2,-1 v -1 h 1 1 l 1,-1 h 1 2 l 1,-1 h 1 2 l 1,-1 h 2 1 2 1 2 2 1 l 2,-1 h 4 4 l 4,-1 3,-1 4,-1 4,-1 3,-2 4,-2 3,-2 4,-2 2,-2 3,-2 3,-2 2,-3 2,-2 1,-3 1,-2 1,-2 v -2 l 1,-1 v -1 l 1,-1 v -1 l 1,-1 1,-1 h 1 v -1 h 1 1 1 1 1 v 1 h 1 1 1 1 1 1 v -1 -1 -2 -2 -1 -2 -1 -1 -1 l 1,-1 v -1 -1 h 1 l 1,-1 1,-1 h 1 1" /><path
             id="path34"
             style="fill:none;stroke:#000000;stroke-width:6.25;stroke-linecap:round;stroke-linejoin:round;stroke-miterlimit:10;stroke-dasharray:none;stroke-opacity:1"
             d="m 1499,5220 2,1 h 2 2 1 2 2 l 1,-1 2,-1 1,-1 2,-1 1,-1 1,-1 1,-2 v -2 l 1,-1 v -2 -2 l -1,-2 v -1 -2 -1 -2 -1 -1 l 1,-2 v -1 l 1,-1 1,-2 2,-1 1,-2 2,-1 2,-2 2,-2 2,-2 3,-2 3,-2 2,-2 3,-2 2,-2 2,-2 2,-1 2,-2 1,-2 2,-1 2,-2 1,-2 1,-1 1,-2 2,-1 v -1 l 1,-2 1,-1 v -1 -1 -1 -1 -1 -1 h -1 v -1 l -1,-1 h -1 l -1,-1 h -1 -2 l -2,-1 h -1 -3 -2 -3 -3 -3 -2 -2 -1 -1 -2 -1 -2 -1 -1 -2 -1 -2 -1 -1 -2 -1 -2 -1 l -1,-1 v -2 -1 -1 -1 -2 -1 -1 -1 -2 l -1,-1 v -1 -1 -2 -1 -1 -1 -2 l -1,-2 v -2 -2 -1 -2 -2 -2 -1 -2 l -1,-1 v -2 -1 -1 -1 l 1,-1 v -1 h 1 l 1,-1 h 1 1 l 1,-1 h 2 1 2 1 l 2,-1 h 1 2 2 2 l 2,-1 h 2 3 l 2,-1 h 2 2 l 1,-1 h 2 l 1,-1 h 1 l 1,-1 1,-1 1,-1 v -1 -1 -1 l 1,-1 -1,-1 v -1 -1 -1 l -1,-1 v -1 -1 l -1,-1 -1,-1 v -1 l -1,-1 -1,-1 -1,-1 h -1 l -1,-1 -1,-1 -1,-1 h -1 l -1,-1 -3,-2 -2,-2 -3,-2 -2,-3 -2,-3 -1,-3 -2,-4 -1,-3 -1,-4 -1,-4 v -4 -4 -5 -4 l 1,-5 1,-4 1,-5 2,-6 3,-9 4,-9 3,-7 3,-6 3,-6 2,-4 3,-3 3,-3 3,-1 h 3 4 l 3,2 4,3 4,3 4,4 5,6 5,6 5,6 2,2 1,1 1,2 1,1 1,1 1,1 1,1 h 1 l 1,1 h 1 1 1 1 1 1 l 1,-1 2,-1 h 1 l 1,-1 h 1 v -1 h 1 l 1,-1 1,-1 h 1 v -1 h 1 v -1 h 1 v -1 l 1,-1 v -1 -1 l 1,-1" /><path
             id="path36"
             style="fill:none;stroke:#000000;stroke-width:6.25;stroke-linecap:round;stroke-linejoin:round;stroke-miterlimit:10;stroke-dasharray:none;stroke-opacity:1"
             d="m 1621,4974 v -1 h 1 v -1 h 1 1 1 1 1 1 l 1,1 h 1 1 1 1 1 l 1,-1 h 1 l 1,-1 1,-1 1,-1 1,-1 2,-1 1,-2 1,-1 1,-2 1,-2 2,-2 1,-2 1,-2 1,-1 1,-2 1,-2 1,-1 1,-1 1,-2 1,-1 1,-1 1,-1 v -1 l 1,-1 1,-1 1,-1 h 1 1 1 l 2,1 h 1 2 l 2,1 h 2 l 2,1 3,1 h 2 l 3,1 3,1 h 3 l 3,1 3,1 4,1 4,1 5,1 4,2 5,1 5,2 4,2 5,2 5,2 5,3 5,3 6,4 6,3 7,5 8,5 8,5 9,6 9,7 11,7 9,6 7,5 7,5 7,4 6,5 6,4 6,4 6,4 5,4 5,3 5,3 4,3 3,2 3,3 3,1 2,2 1,1 h 1 -1" /><path
             id="path38"
             style="fill:none;stroke:#000000;stroke-width:6.25;stroke-linecap:round;stroke-linejoin:round;stroke-miterlimit:10;stroke-dasharray:none;stroke-opacity:1"
             d="m 1897,5067 -1,1 h -1 -2 -2 -2 -2 l -3,1 h -3 -4 -3 -4 -4 -4 -4 -5 -5 -6 -8 -6 -5 -5 -5 l -4,-1 h -3 -3 l -2,-1 h -2 l -2,-1 -1,-1 -2,-1 -1,-1 v -1 l -1,-1 -1,-1 v -1 -1 l -1,-1 v -1 l -1,-1 v -1 l -1,-1 v -1 l -1,-1 v -1 h -1 v 1 l -1,1 h -1 l -1,1 -1,1 h -1 l -1,1 -1,1 h -1 v 1 l -1,1 h -1 l -1,1 -1,1 -2,1 -2,2 -1,1 -2,1 -1,1 -1,1 v 1 l -1,1 v 1 1 1 1 l 1,1 v 1 l 1,1 1,1 1,1 1,2 1,1 1,1 v 2 1 1 l -1,2 -1,1 -2,2 -2,2 -3,2 -3,3 -4,3 -5,3 -5,4 -6,4 -7,5 -8,5 -3,2 -3,2 -3,2 -2,1 -3,2 -3,2 -3,2 -3,2 -3,2 -3,2 -3,2 -2,2 -3,2 -3,2 -3,2 -3,2 -3,2 -2,1 v 1 l 1,1 1,1 1,1 1,1 1,1 1,1 v 1 h 1 l 1,1 1,1 v 1 h 1 v 1 h 1 l 1,1 v 1 h 1 v 1 h 1 l 1,1 1,1 v 1 h 1 v 1 h 1 l 1,1 1,1 v 1 h -1 v 1 h -1 l -1,1 -1,1 -1,1 -1,1 h -1 v 1 l -1,1 h -1 v 1 h -1 l -1,1 h -1 v 1 l -1,1 h -1 v 1 h -1 v 1 h -1 l -1,1 v 1 h -1 l -1,1 -1,1 h -1 v 1 l -1,1 h -1 v 1 l -1,1 1,2 1,2 1,1 1,2 v 2 l 1,2 1,2 1,2 1,2 v 2 l 1,2 1,2 1,2 v 1 l 1,2 1,2 1,2 1,4 3,5 2,6 2,4 2,4 1,3 2,2 2,2 2,1 h 2 3 3 l 3,-2 4,-1 5,-3 5,-3 6,-3 7,-4 5,-3 2,-1 2,-1 1,-1 2,-1 2,-1 1,-1 2,-1 2,-1 1,-1 h 2 l 2,-1 2,-1 1,-1 2,-1 2,-1 1,-1 2,-1 v -1 h -1 -1 -1 -1" /><path
             id="path40"
             style="fill:none;stroke:#000000;stroke-width:6.25;stroke-linecap:round;stroke-linejoin:round;stroke-miterlimit:10;stroke-dasharray:none;stroke-opacity:1"
             d="m 1768,5226 h -2 -1 -1 -1 -1 l -1,-1 h -2 -1 -1 -1 -1 -2 -1 -1 -2 l -2,-1 h -2 -2 -2 l -1,-1 h -2 -2 l -1,-1 h -2 -1 l -1,-1 h -1 l -1,-1 h -1 l -1,-1 -1,-1 -1,-2 -1,-2 -1,-3 -1,-3 v -4 l -1,-4 -1,-5 -1,-4 v -5 l -1,-4 v -4 -4 -3 -3 -3 -1 l 1,-1 h 1 l 1,1 h 1 l 1,1 2,1 1,1 2,1 1,1 2,1 2,1 2,1 2,2 2,1 2,1 3,2 2,1 3,3 3,2 3,2 3,1 3,2 2,1 3,1 2,1 2,1 2,1 h 3 l 2,1 h 2 2 3 2 3 l 2,-1 h 4 l 3,-1 4,-1 4,-1 4,-2 4,-1 3,-2 4,-2 4,-2 3,-2 3,-3 2,-2 2,-1 2,-2 1,-2 v -1 -1 l -2,-1 -1,-1 v -1 l -1,-1 v -1 l -1,-1 v -2 l -1,-1 v -2 l -1,-2 v -1 -2 l -1,-2 v -2 l -1,-2 v -3 -2 -1 l -1,-2 v -1 -1 -2 -1 -1 l -1,-2 v -1 -1 -2 -1 -1 l -1,-2 v -1 -1 -2 -1 h 1 1 l 2,-1 h 1 1 1 1 2 l 1,-1 h 1 1 2 1 l 1,-1 h 1 1 2 1 l 2,-1 h 2 3 2 2 l 2,-1 h 2 2 l 2,1 h 2 2 1 2 l 2,1 h 1 l 2,1 h 1 l 1,1 h 1 l 1,1 h 1 2 v 1 h 1 l 1,1 h 1 1 l 1,1 h 1 1 l 1,1 h 1 v -1 -1 l 1,-1 v -1 l 1,-2 v -1 l 1,-2 v -2 l 1,-2 1,-2 v -2 l 1,-2 1,-2 v -3 l 1,-2 1,-4 1,-4 2,-5 1,-4 1,-3 1,-3 1,-2 2,-1 2,-1 2,-1 h 3 l 4,1 4,1 5,2 6,2 7,2 7,3 9,3 9,4 3,1 4,1 4,1 3,2 4,1 3,1 4,1 4,1 3,1 3,1 4,1 3,1 3,1 2,1 3,1 h 2 l 2,1 h 2 l 2,1 h 2 l 3,1 h 3 l 3,1 3,1 h 3 l 3,1" /><path
             id="path42"
             style="fill:none;stroke:#000000;stroke-width:6.25;stroke-linecap:round;stroke-linejoin:round;stroke-miterlimit:10;stroke-dasharray:none;stroke-opacity:1"
             d="m 2049,5107 3,1 4,1 3,1 4,1 4,1 h 3 l 4,1 3,1 4,1 5,1 7,2 10,1 10,1 11,2 12,1 13,1 12,1 h 13 l 13,1 h 13 l 12,1 h 11 11 l 9,-1 h 8 l 6,-1 5,-1 2,-1 h 1 1 1 1 l 1,-1 h 1 1 l 1,1 h 2 1 1 1 l 1,1 h 1 1 l 1,1 h 1 l 1,1 1,1 h 1 1 l 1,1 h 1 1 l 1,1 h 1 l 1,1 h 1 1 1 1 v -1 l 1,-2 v -2 -3 l 1,-3 v -4 -5 l -1,-4 v -5 -4 l -1,-5 v -4 l -1,-5 -1,-4 -1,-3 -1,-3 -1,-3 v -1 -1 l -1,-2 v -1 -2 -2 -2 -3 -2 -3 -3 -4 -3 -3 l 1,-4 v -3 -4 -4 l 1,-5 1,-5 v -5 l 1,-5 v -3 l 1,-4 v -3 l 1,-3 1,-3 1,-2 1,-2 1,-2 1,-2 1,-1 2,-2 1,-1 2,-2 2,-2 3,-2 2,-1 1,-2 2,-1 1,-2 1,-1 1,-1 1,-2 1,-1 v -2 -1 -2 -2 -2 l -1,-3 v -2 l -1,-3 -1,-4 -1,-5 -1,-6 -1,-6 -1,-6 v -5 l -1,-6 v -5 -5 -5 -5 l 1,-4 v -5 l 1,-4 1,-5 1,-4 2,-4 1,-4 2,-4 1,-3 2,-4 1,-3 1,-3 1,-4 1,-3 1,-3 1,-2 v -3 -3 l 1,-2 v -3 -2 -2 l -1,-3 v -2 l -1,-2 -1,-2 v -1 l -1,-1 -1,-1 -1,-1 -1,-1 -2,-2 -2,-1 -2,-2 -3,-1 -2,-2 -3,-1 -2,-2 -3,-2 -3,-2 -4,-1 -3,-2 -3,-2 -3,-2 -2,-1" /><path
             id="path44"
             style="fill:none;stroke:#000000;stroke-width:6.25;stroke-linecap:round;stroke-linejoin:round;stroke-miterlimit:10;stroke-dasharray:none;stroke-opacity:1"
             d="m 1804,3771 -4,-2 -4,-3 -4,-2 -5,-2 -4,-2 -4,-3 -3,-2 -4,-2 -4,-2 -3,-2 -3,-2 -3,-2 -3,-2 -2,-2 -3,-2 -2,-1 -1,-1 -2,-2 -2,-1 -2,-2 -1,-1 -2,-1 -2,-1 -2,-1 -1,-1 -2,-1 h -2 l -2,-1 h -2 l -2,-1 h -1 -3 -2 -2 l -2,-1 h -2 -2 -2 -2 -2 -1 l -2,-1 h -1 l -1,-1 h -1 l -1,-1 -1,-1 -1,-1 -1,-2 v -1 l -1,-1 v -1 l -1,-1 v -1 -1 l -1,-2 v -1 -1 -1 -1 l -1,-1 v -1 -1 -1 -1 -1 -1 -1 -1 -1 -3 l -1,-2 -1,-2 -3,-1 h -3 l -3,-1 -4,1 h -3 l -5,1 -4,2 -4,1 -5,2 -4,3 -4,2 -4,3 -4,4 -3,3 -2,3 h -1 v 1 l -1,1 -1,1 -1,1 -1,1 -1,1 h -1 l -1,1 h -1 v 1 h -1 -1 v 1 h -1 -1 -2 -3 -2 -3 l -3,-1 h -3 l -2,-1 -3,-1 h -3 l -3,-1 -3,-1 -2,-1 -3,-1 -2,-1 -2,-1 -1,-2 -2,-1 v -1 h -1 l -1,-1 v -1 h -1 l -1,-1 h -1 -1 -1 -1 v 1 h -1 l -1,1 -1,1 -1,1 -1,1 -1,1 -2,1 -1,1 -1,1 -2,1 h -1 l -1,1 h -1 -1 -1 v -1 h -1 l -1,-1 v -1 l -1,-2 v -1 -1 -2 -2 l -1,-1 -1,-2 v -1 h -1 l -2,-1 h -1 -1 -2 l -2,1 h -2 l -2,1 -2,1 -3,2 -2,1 -3,2 -3,2 -3,2 -2,1 -2,1 -3,2 -2,1 h -3 l -2,1 -3,1 h -3 l -4,1 h -4 -4 l -5,1 h -5 -6 -6 -8 -4 -3 -3 -3 -3 -2 -3 -3 -3 -3 -2 -3 -3 -3 -3 -3 -2 -3 l -1,1 v 1 2 1 1 2 l 1,1 v 2 1 1 2 1 2 1 2 1 l 1,1 v 2 2 3 l 1,3 v 3 l 1,2 v 3 l 1,3 v 2 l 1,3 1,2 1,3 1,2 1,2 1,3 1,2 2,2 1,2 1,3 2,3 2,2 2,3 1,2 1,2" /><path
             id="path46"
             style="fill:none;stroke:#000000;stroke-width:6.25;stroke-linecap:round;stroke-linejoin:round;stroke-miterlimit:10;stroke-dasharray:none;stroke-opacity:1"
             d="m 1428,3801 1,1 1,2 v 1 l 1,2 v 1 1 l -1,1 -1,1 v 1 l -1,1 -2,1 -1,1 -1,1 h -1 l -1,1 -1,1 h -1 l -1,1 h -1 -1 -1 -1 v -1 h -1 l -1,-1 -1,-1 -1,-1 -1,-1 -2,-2 -1,-1 -2,-1 -3,-1 h -2 l -3,-1 h -2 -3 l -3,1 h -3 l -3,1 h -2 l -3,1 -3,2 -3,1 -2,1 -3,2 -2,2 -3,2 -2,2 -2,1 -3,1 h -1 l -2,1 h -2 -2 l -1,-1 -1,-1 -2,-1 -1,-1 -2,-2 -1,-2 -1,-2 -1,-3 -2,-3 -1,-2 -1,-2 v -2 l -1,-2 -1,-1 -1,-1 -1,-1 v -1 l -1,-1 -1,-1 h -1 -1 -1 -1 -1 -1 -1 l -2,1 -4,1 -4,1 -4,2 -4,1 -3,1 -3,2 -3,1 -3,2 -2,1 -3,1 -2,2 -2,1 -1,2 -2,1 -1,1 -1,2 -1,1 v 2 l -1,2 -1,2 -1,2 -2,1 -1,2 -2,1 -2,1 -1,1 h -2 l -2,1 h -2 -2 l -2,-1 h -2 l -1,-1 -2,-1 -1,-1 -2,-2 -1,-1 -1,-1 -2,-1 -2,-1 -2,-1 -2,-1 h -3 l -2,-1 h -2 -3 -2 -2 l -1,1 h -2 l -1,1 -1,1 -1,1 v 1 1 h -1 l -1,1 h -1 l -1,1 h -1 -1 -1 l -1,1 h -2 -1 -1 -2 -1 -2 -2 -2 l -2,1 h -1 -2 -1 l -1,1 h -1 l -1,1 h -1 l -1,1 -1,1 v 1 l -1,1 v 1 l -1,1 v 2 l -1,1 v 2 1 l -1,1 v 1 l -1,1 v 1 l -1,1 h -1 l -1,1 h -1 l -1,-1 h -1 -1 l -2,-1 h -2 l -2,-1 -1,-1 h -2 l -1,-1 h -1 l -1,-1 h -1 l -1,-1 h -1 l -1,-1 h -1 l -1,-1 v -1 h -1 v -1 h -1 v -1 -1 h -1 v -1 -1 -1 h -1 v -1 l -1,-1 v -1 l -1,-1 v -1 l -1,-1 v -1 l -1,-1 -1,-1 v -1 l -1,-1 -1,-1 -1,-1 -1,-2 -1,-1 -1,-1 -1,-1 h -1 l -1,-1 h -1 l -1,-1 h -1 -2 -1 l -1,1 h -2 -1 l -2,1 h -2 l -1,1 h -2 l -1,1 h -2 l -1,1 h -1 -2 -1 -1" /><path
             id="path48"
             style="fill:none;stroke:#000000;stroke-width:6.25;stroke-linecap:round;stroke-linejoin:round;stroke-miterlimit:10;stroke-dasharray:none;stroke-opacity:1"
             d="m 1110,3821 h -1 -2 -1 -1 l -1,-1 h -1 -1 l -1,-1 -1,-1 h -1 l -1,-1 h -1 l -1,-1 h -1 -1 l -1,-1 h -1 l -1,1 -1,1 v 1 l -1,1 -1,1 h -1 l -1,1 h -2 -2 l -2,1 h -2 l -2,1 h -3 -3 l -3,1 h -3 -4 -3 l -4,1 h -4 -4 -3 -4 -4 l -3,1 h -4 -3 l -4,1 h -3 -3 l -3,1 h -3 l -3,1 h -2 l -3,1 h -2 l -1,1 h -2 l -2,1 -3,1 -2,1 h -2 -1 -2 -1 l -2,-1 -1,-1 -2,-2 -1,-2 -2,-2 -1,-3 -2,-4 -2,-4 -2,-5 -2,-6 -3,-6 -2,-5 -2,-5 -2,-3 -1,-4 -2,-3 -1,-3 -2,-2 -1,-2 -2,-2 -1,-2 -2,-2 -2,-1 -2,-2 -2,-1 -2,-2 -3,-1 -3,-1 -3,-1 -2,-1 -2,-1 -2,-1 -2,-1 -2,-1 -2,-1 h -2 l -2,-1 h -2 l -1,-1 h -2 l -2,-1 h -1 -2 l -1,-1 h -1 -2 -1 -1 -1 -1 -1 v -1 h -1 v -1 h -1 v -1 l -1,-1 v -1 -1 -1 l 1,-1 v -1 -2 -1 -2 -1 l 1,-1 -1,-1 v -1 -1 -1 h -1 v -1 l -1,-1 h -1 v -1 h -1 l -2,-1 h -1 -1 l -2,-1 h -1 -1 l -1,-1 h -1 -1 -1 -1 -1 l -1,-1 h -1 -1 l -1,1 h -1 v 1 1 h -1 v 1 l -1,1 -1,2 v 1 l -1,1 -1,2 -1,1 -1,2 -1,1 -1,2 -1,2 -1,1 -1,3 -3,4 -2,4 -3,4 -3,4 -3,3 -3,3 -3,2 -3,3 -4,2 -3,2 -5,2 -4,1 -5,2 -5,1 -5,2 -6,1 -6,1 -6,1 h -4 l -4,1 -4,1 h -4 l -4,1 -4,1 -5,1 h -4 l -4,1 -5,1 -4,1 -4,1 h -4 l -4,1 -4,1 -4,1 -3,1 h -4 l -4,1 -4,1 -3,1 -4,1 h -3 -2 l -3,1 h -2 -2 -2 -1 -2 -1 l -1,-1 h -1 v -1 h -1 v -1 h -1 l -1,-1 v -1 h -1 -1 l -1,-1 h -2 -1 -2 l -2,-1 h -1 -3" /><path
             id="path50"
             style="fill:none;stroke:#000000;stroke-width:6.25;stroke-linecap:round;stroke-linejoin:round;stroke-miterlimit:10;stroke-dasharray:none;stroke-opacity:1"
             d="m 658,3795 h -2 l -2,1 h -3 -3 -2 l -4,1 h -3 l -3,1 h -3 -2 l -2,1 h -2 l -2,1 h -2 l -1,1 h -1 l -1,1 -1,1 -1,1 v 1 1 1 1 1 1 1 h -1 v 1 l -1,1 h -1 l -1,1 h -1 -1 l -2,1 h -2 -2 l -2,1 h -3 -3 -3 -4 l -3,1 h -4 -3 -3 -2 l -2,-1 h -2 l -3,-1 -1,-1 -2,-1 -2,-1 -2,-1 -2,-2 -2,-2 -3,-2 -2,-2 -3,-3 -2,-2 -2,-2 -1,-2 -2,-1 -2,-2 -1,-1 -2,-2 -2,-1 -1,-1 -2,-1 -1,-1 -1,-1 -2,-1 -1,-1 h -1 l -1,-1 h -1 -1 -1 v -1 h -1 l -1,-1 -2,-1 h -1 l -1,-1 -2,-1 -1,-2 -2,-1 -1,-1 -2,-2 -2,-1 -2,-2 -1,-1 -2,-2 -2,-2 -2,-2 -2,-3 -2,-2 -3,-2 -1,-1 -2,-2 -2,-1 -2,-1 -1,-1 -2,-1 -1,-1 h -2 -1 -1 l -2,-1 -1,1 h -2 -1 -2 l -1,1 h -1 -2 -1 -1 l -1,-1 h -1 -2 l -1,-1 -1,-1 -1,-1 -1,-1 -1,-1 -2,-1 -1,-2 -1,-1 -2,-2 -1,-2 -2,-2 -1,-1 -1,-2 -1,-1 -2,-1 -1,-1 -1,-1 h -1 l -1,-1 h -1 -1 -2 -1 -1 l -2,1 h -1 l -2,1 h -1 l -1,1 h -1 l -1,1 h -2 l -1,1 h -1 l -1,1 -1,1 h -1 v 1 h -1 l -1,1 h -1 v 1 l -1,1 h -1 v 1 l -1,1 -1,1 h -1 v 1 h -1 -1 v 1 h -1 -1 -1 -1 l -1,1 h -1 -2 -3 -2 l -2,1 -1,1 -2,1 -1,1 -1,2 -1,1 -1,2 v 1 2 2 2 l 1,2 v 2 l 2,3 1,2 1,2 1,1 1,2 v 1 l 1,1 v 1 l 1,1 v 1 1 h -1 l -1,1 h -1 l -1,1 h -2 -1 -1 l -2,1 -1,1 h -1 v 1 1 l 1,1 v 2 l 1,1 1,2 2,2 1,3 2,3 3,3 2,4 3,4 3,4 1,1 2,2 1,2 1,1 2,2 1,2 1,2 1,1 2,2 1,2 1,2 2,1 1,2 1,2 1,1 2,2" /><path
             id="path52"
             style="fill:none;stroke:#000000;stroke-width:6.25;stroke-linecap:round;stroke-linejoin:round;stroke-miterlimit:10;stroke-dasharray:none;stroke-opacity:1"
             d="m 418,3836 1,2 2,1 h 3 l 4,-1 3,-1 h 4 l 3,-1 h 4 l 3,-1 3,-1 h 4 l 3,-1 h 4 l 3,-1 4,-1 h 3 l 4,-1 h 3 l 4,-1 4,-1 5,-1 6,-1 5,-1 5,-1 h 5 l 5,-1 5,-1 4,-1 4,-1 h 4 l 3,-1 h 3 l 3,-1 h 2 2 l 2,-1 h 1 l 1,1 v 1 1 1 1 1 1 2 1 2 1 2 1 2 l -1,2 v 2 2 2 2 1 2 2 1 2 1 1 l 1,1 v 2 l 1,1 v 1 l 1,1 v 1 l 1,1 1,1 v 1 l 1,1 v 1 1 1 1 1 l -1,1 -1,1 -1,1 -1,2 -2,1 -2,2 -2,2 -2,2 -2,2 -3,2 -3,2 -2,2 -2,2 -2,2 -2,2 -1,1 -1,2 -2,2 v 1 l -1,2 -1,2 v 1 l -1,2 v 2 2 2 l -1,3 v 2 2 2 1 2 2 l -1,1 v 2 l -1,1 v 2 l -1,1 v 2 l -1,1 -1,1 v 1 l -1,1 -1,1 -1,1 -1,1 -1,2 h -1 l -1,1 -1,1 h -1 -1 -1 v -1 l -1,-1 -1,-1 v -1 l -1,-2 -1,-2 -1,-2 -1,-3 -1,-3 -1,-4 -1,-4 -1,-5 -2,-4 -2,-4 -1,-3 -2,-2 -2,-3 -1,-1 -2,-2 h -1 l -2,-1 -1,1 -1,1 -1,1 -1,2 -1,3 v 3 3 3 1 l -1,2 v 1 2 1 1 2 l -1,1 v 1 1 1 l -1,1 v 1 1 l -1,1 -1,1 v 1 l -2,2 -1,2 v 2 l -1,2 -1,3 v 2 l -1,3 v 3 3 l -1,2 1,3 v 2 2 3 l 1,1 1,2 v 1 l 1,1 1,1 1,1 v 1 1 1 1 1 h -1 v 1 l -1,1 h -1 l -1,1 -1,1 -1,1 -2,2 -1,1 -1,1 -1,2 -1,1 -1,1 v 1 1 1 l 1,1 v 1 l 1,1 1,1 h 1 2 l 1,1 h 2 1 1 1 l 1,-1 h 1 1 v -1 h 1 l 1,-1 v -1 l 1,-1 v -1 -1 -1 -2 l 1,-1 v -1 -2 -1" /><path
             id="path54"
             style="fill:none;stroke:#000000;stroke-width:6.25;stroke-linecap:round;stroke-linejoin:round;stroke-miterlimit:10;stroke-dasharray:none;stroke-opacity:1"
             d="m 472,3990 v -1 -2 -1 l 1,-1 v -1 l 1,-1 h 1 v -1 h 1 1 v 1 h 1 1 l 1,1 h 1 1 1 1 l 1,-1 h 1 1 l 1,-1 1,-1 h 1 l 1,-1 1,-1 1,-1 1,-1 1,-1 1,-1 1,-1 1,-1 h 1 l 1,-1 1,-1 1,-1 2,-1 h 1 l 1,-1 1,-1 h 2 l 1,-1 h 1 l 1,-1 h 2 l 1,-1 h 2 1 2 2 1 2 l 1,1 2,1 h 1 l 2,2 2,1 2,1 2,2 3,2 2,3 3,2 3,3 3,3 2,3 3,2 2,3 2,2 2,3 2,2 2,2 1,3 2,2 1,2 1,2 2,2 1,2 v 2 l 1,3 1,2 v 2 l 1,2 v 2 l 1,2 v 2 l 1,1 v 2 l 1,1 v 1 l 1,1 1,1 v 1 l 1,1 h 1 l 1,1 h 1 1 1 1 2 3 l 2,1 h 2 l 2,1 2,1 2,1 1,2 2,1 1,2 1,3 1,2 1,3 v 3 l 1,3 v 4 4 5 4 4 3 2 l 1,3 v 2 2 2 l 1,2 v 1 1 l 1,1 v 1 l 1,1 h 1 v 1 h 1 1 1 1 1 1 v 1 h 1 l 1,1 v 1 1 l 1,1 v 1 1 1 1 l -1,1 v 2 1 2 1 l -1,1 v 2 l 1,1 v 1 2 1 1 l 1,1 v 2 l 1,1 v 1 l 1,1 v 1 l 1,1 1,1 1,1 2,3 1,3 1,2 1,3 1,4 v 3 3 4 3 l -1,3 -1,3 -1,4 -1,3 -2,3 -1,2 -2,3 -3,2 -2,2 -3,2 -2,2 -1,1 -2,2 -1,1 v 2 l -1,1 v 1 h 1 v 1 l 1,1 h 2 1 l 3,1 h 2 3 3 3 1 2 2 1 l 2,1 h 1 1 2 l 1,1 h 1 1 1 l 1,1 h 1 v 1 h 1 v 1 h 1 v 1 h 1 1 1 1 l 1,1 h 1 1 1 1 1 l 2,-1 h 1 1 2 2 l 2,-1 h 1 l 2,-1 1,-1" /><path
             id="path56"
             style="fill:none;stroke:#000000;stroke-width:6.25;stroke-linecap:round;stroke-linejoin:round;stroke-miterlimit:10;stroke-dasharray:none;stroke-opacity:1"
             d="m 676,4214 h 1 l 1,-1 2,-1 1,-2 1,-1 1,-2 1,-2 1,-2 1,-2 1,-2 1,-3 1,-3 1,-2 1,-2 v -2 l 1,-2 1,-2 v -2 l 1,-2 v -2 -2 l 1,-2 v -1 -2 l 1,-1 v -2 -1 -1 -1 -1 -1 -4 l 1,-4 2,-5 2,-5 3,-7 2,-6 3,-7 4,-7 3,-7 3,-7 3,-6 3,-6 3,-5 2,-5 3,-3 1,-2 2,-1 h 1 l 1,-1 1,-1 2,-1 2,-2 2,-1 2,-2 2,-2 3,-2 2,-3 3,-2 3,-3 3,-3 3,-3 4,-3 3,-3 3,-3 2,-2 2,-2 2,-2 3,-2 2,-2 2,-2 2,-2 2,-2 2,-2 2,-2 2,-2 2,-2 2,-2 2,-2 2,-2 2,-2 2,-2 2,-2 -1,-1 v -2 l -1,-1 v -2 l -1,-2 v -1 l -1,-2 v -1 l -1,-2 v -1 l -1,-2 v -2 l -1,-1 v -2 -1 l -1,-2 v -1 l -1,-2 -2,-7 -2,-5 -1,-5 -1,-5 -1,-4 -1,-3 v -4 -3 -3 l 1,-2 1,-3 1,-2 2,-2 1,-2 3,-3 2,-2 3,-3 3,-2 3,-3 4,-2 3,-2 3,-2 3,-2 3,-1 2,-1 h 3 l 3,-1 h 2 2 l 3,1 h 2 l 1,1 2,2 2,1 1,2 1,2 1,1 1,1 v 1 l 1,1 1,1 v 1 h 1 l 1,1 h 1 1 1 l 1,1 h 1 1 l 1,-1 h 1 2 1 l 1,-1 h 2 1 1 2 1 1 l 2,1 h 1 l 1,1 2,1 1,1 2,1 1,1 2,1 1,1 2,2 2,1 1,2 1,1 1,1 1,2 1,1 1,1 1,2 1,1 1,1 v 1 l 1,1 v 2 l 1,1 v 1 1 1 1 l -1,2 v 2 2 2 l 1,1 v 2 l 1,1 1,1 1,1 1,1 1,1 h 2 1 2 1 l 2,-1 h 2 l 2,-1 2,-1 2,-1 h 2 2 2 2 2 l 2,1 h 2 l 2,1 2,1 1,1 2,1 1,1 1,1 v 2 l 1,1 v 1 1 1 1 h 1 v 1 h 1 1 v 1 h 1 l 1,-1 v -1 h 1 v -1 -1 -1" /><path
             id="path58"
             style="fill:none;stroke:#000000;stroke-width:6.25;stroke-linecap:round;stroke-linejoin:round;stroke-miterlimit:10;stroke-dasharray:none;stroke-opacity:1"
             d="m 961,3972 v -1 -1 -1 -1 l -1,-2 v -1 -1 l -1,-2 v -3 -2 -3 -3 -3 l 1,-3 1,-2 1,-3 1,-3 1,-2 1,-2 2,-2 1,-2 2,-2 1,-1 2,-1 h 2 1 1 l 1,1 h 1 1 l 1,1 h 1 l 1,1 1,1 h 1 l 1,1 2,1 h 1 l 1,1 1,1 1,1 2,1 1,1 2,1 1,1 2,1 1,1 2,1 h 1 l 1,1 h 1 1 2 1 1 1 2 l 1,-1 h 1 l 2,-1 1,-1 h 2 l 1,-1 h 1 l 1,-1 h 1 1 1 1 1 1 v 1 h 1 v 1 l 1,1 v 1 1 l 1,1 v 1 l 1,1 v 1 l 1,2 v 2 l 1,2 1,1 v 2 l 1,3 1,2 1,2 1,2 v 3 l 1,2 1,2 1,3 1,3 1,2 1,3 v 2 l 1,2 1,3 v 2 1 l 1,2 v 2 1 2 1 l -1,2 v 1 1 l -1,1 v 1 l -1,1 v 1 1 1 l -1,1 1,1 v 1 1 l 1,1 v 1 l 1,1 1,1 1,1 h 1 v 1 l 1,1 1,1 1,1 1,1 v 1 l 1,1 1,2 1,1 1,1 1,2 1,1 1,2 v 1 l 1,2 1,1 1,2 v 2 l 3,5 2,5 3,6 3,5 3,5 3,4 4,5 3,5 4,4 4,4 4,5 5,4 5,4 5,5 6,4 5,4 7,4 6,5 3,2 4,2 3,3 3,2 3,2 3,3 3,2 3,2 2,2 3,2 2,2 2,1 1,2 1,1 1,2 1,1 1,1 v 1 1 l 1,1 v 1 h 1 1 v 1 h 1 l 1,1 h 1 1 1 1 l 2,1 h 2 l 2,2 4,1 3,2 5,3 5,3 5,3 6,4 6,3 7,4 6,5 8,4 7,5 8,5 7,5 8,5 7,5 5,4 5,3 5,3 5,3 5,4 5,3 4,3 5,4 5,3 5,3 5,3 5,4 5,3 4,3 5,4 5,3 5,3 4,2 1,-2 2,-1 1,-2 1,-1 2,-2 1,-1 1,-2 2,-1 1,-2 1,-1 2,-2 1,-1 1,-2" /><path
             id="path60"
             style="fill:none;stroke:#000000;stroke-width:6.25;stroke-linecap:round;stroke-linejoin:round;stroke-miterlimit:10;stroke-dasharray:none;stroke-opacity:1"
             d="m 1391,4262 2,-1 1,-2 2,-1 1,-2 2,-2 2,-3 3,-3 4,-4 4,-5 4,-5 4,-5 5,-5 5,-6 5,-6 6,-6 5,-6 6,-6 5,-7 6,-7 6,-6 6,-7 5,-6 7,-8 10,-10 9,-11 10,-10 10,-10 10,-10 10,-10 9,-10 10,-9 9,-9 9,-8 8,-7 8,-7 7,-6 6,-5 5,-3 4,-3 4,-1 h 1 1 l 1,1 1,1 1,1 1,1 2,2 1,1 1,2 2,1 1,2 2,2 1,2 2,2 1,2 2,2 1,2 1,1 1,1 1,2 1,1 1,1 1,2 1,1 1,1 1,1 1,2 1,1 1,1 1,2 1,1 1,1 1,2 1,1 2,-1 2,-2 2,-2 2,-1 2,-2 2,-2 1,-2 2,-2 2,-2 2,-2 2,-2 2,-2 2,-2 2,-1 2,-2 2,-2 2,-2 2,-2 3,-3 3,-3 3,-3 3,-3 3,-3 3,-2 3,-3 2,-3 3,-2 2,-2 2,-2 2,-2 1,-2 2,-1 1,-2 1,-1 v -1 h 1 v -1 h 1 l 1,-2 2,-1 2,-2 3,-2 3,-3 3,-3 4,-3 4,-3 4,-4 5,-3 5,-4 5,-4 5,-4 6,-5 5,-4 6,-5 9,-7 9,-7 8,-6 7,-6 7,-5 5,-4 5,-4 4,-4 4,-4 3,-3 2,-3 2,-3 2,-3 2,-3 2,-4 1,-3 2,-4 1,-4 1,-3 1,-3 1,-2 1,-3 1,-2 1,-2 1,-2 1,-2 1,-2 v -2 l 1,-2 1,-1 v -2 l 1,-1 1,-1 v -1 l 1,-1 v -1 l 1,-1 1,-1 v -1 -1 -1 -2 l -1,-1 -1,-1 -1,-2 -1,-2 -1,-1 -2,-2 -2,-2 -2,-2 -3,-2 -3,-2 -3,-2 -2,-1 -2,-2 -2,-2 -3,-1 -3,-2 -4,-2 -3,-2 -4,-3 -4,-2 -4,-2 -4,-2 -4,-3 -4,-2 -4,-2 -4,-3 -5,-2 -4,-2 -4,-2 -4,-2" /><path
             id="path62"
             style="fill:none;stroke:#000000;stroke-width:6.25;stroke-linecap:round;stroke-linejoin:round;stroke-miterlimit:10;stroke-dasharray:none;stroke-opacity:1"
             d="m 1841,3034 v -1 l -1,-1 v -1 h -1 v -1 l -1,-1 v -1 -1 -1 l -1,-1 v -1 -1 -1 -1 -1 -1 l 1,-2 v -1 l -1,-1 v -1 l -1,-1 -1,-1 h -1 l -1,-1 h -2 l -2,-1 h -2 l -3,-1 h -3 -3 l -4,-1 h -4 l -5,-1 h -3 -3 l -4,-1 h -4 l -4,-1 h -4 l -4,-1 -4,-1 h -5 l -4,-1 -4,-1 h -5 l -4,-1 -4,-1 h -5 l -4,-1 -3,-1 -4,-1 h -4 l -3,-1 -4,-1 h -4 l -3,-1 h -4 l -3,-1 h -4 l -3,-1 h -3 l -3,-1 h -3 -3 -2 l -3,-1 h -1 -2 -2 -2 -2 -1 l -2,-1 h -2 -1 l -2,-1 -1,-1 -1,-1 -2,-1 -1,-1 -1,-1 -2,-2 -1,-1 -1,-2 -2,-2 -1,-2 -2,-2 -1,-2 -1,-2 -1,-2 -1,-3 -1,-2 -1,-2 -1,-3 -1,-2 -1,-3 -1,-2 v -3 l -1,-3 -1,-2 v -3 l -1,-2 v -3 l -1,-2 v -3 -2 l -1,-3 -1,-3 v -3 l -1,-4 -1,-3 -1,-3 -1,-4 -1,-3 -2,-4 -1,-4 -1,-3 -2,-4 -1,-4 -2,-3 -1,-4 -1,-3 -3,-5 -3,-6 -3,-5 -3,-5 -3,-5 -3,-4 -3,-4 -3,-3 -4,-4 -3,-3 -4,-2 -3,-2 -4,-2 -4,-1 -4,-2 h -4 l -4,-1 h -4 -5 -5 -4 l -4,1 -4,1 -4,2 -3,2 -4,2 -3,3 -4,4 -3,4 -4,5 -4,6 -4,7 -4,7 -5,8 -5,10 -5,10 -6,11 -6,11 -5,10 -5,8 -4,8 -4,6 -5,6 -4,5 -4,4 -4,3 -5,3 -5,2 -5,2 -6,2 -7,1 -7,1 -8,1 -8,1 h -8 l -7,1 h -6 l -5,1 h -5 l -4,-1 h -4 l -4,-1 -3,-2 -3,-2 -4,-3 -3,-3 -4,-4 -4,-4 -4,-6 -5,-6 -5,-7 -6,-8 -8,-10 -7,-10 -6,-10 -6,-10 -6,-10 -5,-9 -4,-10 -4,-9 -3,-9 -3,-8 -2,-9 -1,-8 -1,-8 v -8 -8 l 1,-8 1,-7 2,-7 1,-3 1,-2 v -2 l 1,-3 v -2 -3 -2 l 1,-3 v -3 -2 -3 -4 l -1,-3 v -3 -4 l -1,-4 v -4 l -1,-5 v -2 -2 l -1,-2 v -2 -2 -2 l -1,-2 v -2 -2 -2 l -1,-2 v -2 -2 -2 l -1,-2 v -2 -2 -2 l 1,-4 2,-4 2,-4 2,-3 2,-4" /><path
             id="path64"
             style="fill:none;stroke:#000000;stroke-width:6.25;stroke-linecap:round;stroke-linejoin:round;stroke-miterlimit:10;stroke-dasharray:none;stroke-opacity:1"
             d="m 1256,2660 2,-4 1,-4 2,-4 2,-3 2,-4 2,-4 1,-4 2,-4 2,-4 2,-3 2,-4 1,-4 2,-4 3,-6 3,-7 3,-6 3,-5 2,-6 3,-6 2,-5 2,-5 2,-4 2,-5 1,-4 1,-3 2,-3 v -3 l 1,-2 v -2 -2 -1 l -1,-1 -1,-1 -2,-1 h -1 l -1,-1 h -2 -2 -2 l -3,-1 h -3 l -3,1 h -4 -4 -4 l -5,1 h -5 l -5,1 h -5 -4 -5 -4 -4 -4 -4 -4 l -4,-1 h -4 l -4,-1 -5,-1 -4,-1 h -5 l -5,-2 -6,-1 -5,-1 -3,-1 -4,-1 -4,-1 -4,-1 -3,-1 -4,-1 -3,-1 -3,-1 -3,-1 -3,-1 -3,-1 -2,-1 -2,-1 -2,-1 -2,-1 -1,-1 -1,-1 h -1 l -1,-1 -1,-1 -1,-1 h -1 l -1,-1 h -1 -1 -1 l -1,1 h -2 l -1,1 h -1 l -2,1 -1,2 -2,1 -2,2 -2,1 -2,2 -1,1 -2,1 -1,1 -2,1 -1,1 -2,1 -1,1 -2,1 h -1 l -2,1 -1,1 h -1 l -2,1 h -1 -1 -1 -1 -1 -1 -1 -1 -1 l -1,1 -1,1 -1,1 v 1 1 2 1 l -1,1 v 1 2 1 l -1,2 -1,2 -2,2 -1,3 -2,3 -3,2 -2,3 -3,4 -3,3 -3,4 -4,4 -4,4 -4,5 -5,5 -5,5 -4,4 -5,4 -4,5 -5,5 -5,5 -5,6 -5,5 -5,6 -5,6 -5,6 -5,5 -5,6 -5,6 -5,5 -4,6 -4,5 -4,5 -4,5 -4,5 -4,4 -3,5 -4,4 -3,4 -3,4 -4,4 -3,3 -2,4 -3,2 -2,3 -3,2 -2,2 -2,2 -1,1 -2,1 -1,1 h -1 -1 -1 -1 l -1,1 h -1 v 1 h -1 v 1 l -1,1 v 1 1 1 l -1,1 v 2 l 1,1 -1,3 -2,5 -4,7 -4,9 -6,9 -6,10 -7,11 -8,12 -8,11 -7,12 -8,11 -7,10 -8,9 -6,9 -6,6 -4,6 -4,3 -2,1 h -1 -1 l -1,1 h -1 v 1 h -1 v 1 l -1,1 v 1 1 h -1 v 1 1 1 1 1 2 l -1,2 v 2 l -1,3 -1,2 v 3" /><path
             id="path66"
             style="fill:none;stroke:#000000;stroke-width:6.25;stroke-linecap:round;stroke-linejoin:round;stroke-miterlimit:10;stroke-dasharray:none;stroke-opacity:1"
             d="m 792,2916 -1,2 -1,3 -1,3 -1,3 -1,4 -1,3 -1,3 -1,3 -1,3 -1,2 -1,2 -1,2 v 2 l -1,2 -1,2 v 2 l -1,2 -1,2 v 2 l -1,2 -1,2 -1,2 v 2 l -1,2 -1,2 v 2 l -1,4 1,6 1,6 v 6 l 1,6 1,6 1,6 v 6 l 1,6 1,6 v 6 l 1,6 1,6 1,6 v 6 l 1,6 1,6 v 6 l 1,7 1,10 2,10 1,9 1,9 1,9 1,9 1,8 v 8 l 1,8 1,7 1,6 v 6 l 1,6 v 4 4 4 2 2 3 3 l -1,3 -1,3 -1,2 -1,3 -2,2 -1,3 -1,2 -2,2 -2,1 -1,1 -2,1 -2,1 h -1 -2 -1 l -1,-1 h -1 -1 -1 -1 -1 v 1 h -1 -1 -1 l -1,1 h -1 v 1 h -1 l -1,1 h -1 l -1,1 -1,1 -1,1 h -1 v 1 l -1,1 h -1 v 1 1 h 1 1 l 1,1 h 1 1 1 1 l 2,1 h 1 l 2,1 h 2 l 1,1 2,1 h 2 l 2,1 2,1 2,1 3,1 2,1 2,1 2,1 3,1 4,2 3,1 2,2 3,1 2,2 2,1 2,2 1,2 2,2 1,2 2,3 1,3 2,3 2,3 1,4 2,5 2,5 1,3 2,3 1,3 1,3 1,2 1,3 1,2 1,3 1,2 1,2 1,2 v 1 l 1,2 1,1 v 1 l 1,1 h 1 v -1 h 1 1 1 l 1,-1 h 1 1 l 1,-1 h 1 l 1,-1 h 1 l 2,-1 h 1 l 1,-1 h 1 l 2,-1 h 1 l 2,-1 h 2 2 l 3,-1 h 2 2 3 l 2,-1 h 3 2 3 3 2 3 2 3 3 3 2 3 l 3,-1 h 2 3 l 3,-1 h 2 2 l 3,-1 2,-1 h 2 l 2,-1 2,-1 h 2 l 2,-1 2,-1 2,-1 2,-1 2,-1 h 1 l 2,-1 h 1 1 1 1 1 1 1 v 1 h 1 1 v 1 l 1,1 v 1 h 1 v 1 h 1 l 1,1 h 1 1 l 1,1 h 1 1 1" /><path
             id="path68"
             style="fill:none;stroke:#000000;stroke-width:6.25;stroke-linecap:round;stroke-linejoin:round;stroke-miterlimit:10;stroke-dasharray:none;stroke-opacity:1"
             d="m 969,3326 h 1 v -1 h 1 1 1 1 l 1,-1 h 1 1 l 2,-1 h 1 1 l 1,-1 h 1 1 l 2,-1 h 1 1 l 1,-1 h 1 1 l 1,-1 h 1 1 1 1 l 1,-1 1,1 h 1 1 v 1 h 1 v 1 1 1 h 1 v 2 1 1 1 1 1 l 1,1 v 1 l 1,1 1,1 v 1 h 1 l 1,1 1,1 1,1 h 1 1 l 1,1 h 1 l 1,1 h 1 l 1,1 h 1 v 1 h 1 v 1 l 1,1 v 1 1 1 2 1 1 l 1,1 h 1 v 1 h 1 1 1 1 l 1,-1 h 1 l 1,-1 1,-1 1,-1 1,-2 v -1 l 1,-1 v -1 -1 l 1,-1 v -1 l 1,-1 1,-1 1,-1 h 1 l 1,-1 h 2 1 1 l 2,-1 h 1 2 2 2 1 2 1 2 1 l 1,-1 h 2 1 1 l 1,-1 h 1 1 l 1,-1 h 1 1 l 1,-1 1,-1 1,-1 h 1 l 2,-1 h 1 l 2,-1 h 2 l 2,-1 h 2 l 3,-1 h 2 3 2 3 3 3 3 3 2 1 1 1 l 1,1 h 1 l 1,1 v 1 1 l -1,1 v 1 l -1,1 -1,1 v 1 h -1 v 1 l -1,1 -1,1 v 1 1 h 1 v 1 h 1 1 1 v -1 h 1 1 v -1 h 1 l 1,-1 v -1 h 1 l 1,-1 v -1 l 1,-1 1,-1 v -1 l 1,-1 v -1 l 1,-1 v -1 l 1,-1 1,-1 v -1 l 1,-2 1,-1 1,-1 h 1 l 1,-1 1,-1 1,-1 1,-1 2,-1 h 1 l 1,-1 h 1 l 1,-1 h 1 1 l 2,-1 h 1 1 l 2,-1 h 1 l 1,-1 h 2 l 1,-1 h 2 l 1,-1 h 2 l 1,-1 h 1 l 2,-1 h 1 l 1,-1 2,-1 4,-2 4,-2 3,-1 3,-1 3,-1 2,-1 2,-1 h 2 2 l 1,1 h 1 l 1,1 v 2 l 1,1 v 2 l 1,2 v 2" /><path
             id="path70"
             style="fill:none;stroke:#000000;stroke-width:6.25;stroke-linecap:round;stroke-linejoin:round;stroke-miterlimit:10;stroke-dasharray:none;stroke-opacity:1"
             d="m 1197,3307 v 3 3 l 1,3 v 3 l 1,2 v 2 l 1,2 1,1 2,1 1,1 1,1 h 2 2 l 2,-1 2,-1 2,-1 2,-1 3,-2 2,-2 2,-1 2,-1 1,-1 2,-1 2,-1 1,-1 h 2 l 2,-1 h 1 l 2,-1 h 2 2 2 2 2 l 2,1 h 2 2 1 1 l 1,1 h 1 1 2 1 1 1 1 l 1,1 h 1 1 1 1 1 1 v -1 h -1 v -1 l -1,-1 v -1 h -1 v -1 l -1,-1 -1,-1 v -1 l -1,-1 -1,-1 v -1 h -1 v -1 l -1,-1 -1,-1 -1,-2 v -2 l -1,-1 -1,-2 -1,-2 -1,-2 v -2 l -1,-2 -1,-3 v -2 l -1,-2 -1,-3 v -2 l -1,-2 v -2 -2 l -1,-3 v -2 -2 -2 l -1,-3 v -2 -2 l -1,-2 v -2 -2 l -1,-2 v -2 -2 -2 l -1,-1 v -2 -1 l -1,-1 v -2 -1 -1 -1 -1 l 1,-1 1,-1 2,-1 h 2 2 l 3,-1 h 4 5 5 6 7 8 9 3 3 3 3 4 3 3 3 3 3 4 3 3 3 3 3 4 3 l 1,-1 1,-1 2,-1 1,-1 1,-1 2,-1 1,-1 2,-1 1,-1 1,-1 2,-1 h 1 l 1,-1 2,-1 1,-1 1,-1 2,-1 1,-1 2,-1 1,-1 1,-1 2,-1 1,-1 h 1 l 2,-1 1,-1 1,-1 2,-1 1,-1 1,-1 2,-1 1,-1 2,-1 1,-1 1,-1 h 1 l 1,1 v 1 1 1 1 1 1 h 1 v 1 1 1 1 1 1 l 1,1 v 1 3 l 1,2 v 1 2 1 l 1,1 v 1 h 1 l 1,-1 v -1 -1 l 1,-2 v -1 -2 h 1 v -1 -1 -1 h 1 v -1 -1 -1 -1 h 1 v -1 -1 -1 h 1 l 1,1 h 1 v 1 h 1 l 1,1 1,1 1,1 1,1 1,1 1,1 h 1 v 1 l 1,1 h 1 l 1,1 2,1" /><path
             id="path72"
             style="fill:none;stroke:#000000;stroke-width:6.25;stroke-linecap:round;stroke-linejoin:round;stroke-miterlimit:10;stroke-dasharray:none;stroke-opacity:1"
             d="m 1434,3211 1,1 1,1 2,1 1,1 2,1 2,1 1,1 h 2 l 1,1 2,1 2,1 h 1 l 2,1 h 1 l 2,1 2,1 h 2 l 2,1 h 2 l 1,1 h 2 1 l 1,-1 h 2 l 1,-1 h 1 l 1,-1 1,-1 2,-1 1,-2 1,-1 2,-2 3,-4 4,-4 5,-3 5,-3 5,-3 6,-2 6,-2 5,-2 6,-1 h 5 5 4 l 4,1 3,1 3,2 2,3 1,3 -1,3 v 3 l -1,3 v 2 2 l 1,2 v 2 l 1,1 v 2 l 1,1 2,1 1,1 2,1 2,1 h 2 l 2,1 h 2 3 3 2 2 2 2 1 2 l 2,1 h 1 l 2,1 2,1 1,1 2,1 2,1 2,1 2,2 1,1 2,2 2,2 2,1 2,2 3,2 3,2 3,2 3,2 4,2 3,3 4,2 5,3 4,2 4,3 5,3 5,2 4,3 5,3 5,2 5,3 7,3 7,4 6,3 5,3 5,2 4,2 4,2 3,1 3,1 3,1 h 2 l 2,1 h 2 l 1,-1 h 2 l 1,-1 1,-1 1,-1 h 1 l 1,-1 1,-1 2,-1 1,-1 2,-1 2,-2 1,-1 2,-1 3,-2 2,-1 2,-2 2,-1 3,-2 2,-1 2,-2 3,-1 3,-2 4,-3 4,-3 4,-3 3,-2 3,-3 2,-2 2,-3 2,-2 2,-3 1,-3 1,-2 v -3 -3 -3 l -1,-4 v -3 l -1,-4 -1,-3 -1,-2 -1,-2 v -1 -2 l -1,-1 v -1 -1 -2 -1 -1 -1 -1 h 1 v -1 l 1,-1 1,-1 h 1 v -1 l 1,-1 v -1 l 1,-1 v -1 -1 -1 -1 -1 -1 -1 -2 -1 l -1,-1 v -1 -2 -1 -2 -2 -2 -3 -2 l 1,-2 v -3 l 1,-3 v -2 -3 l 1,-3 1,-2 v -3 l 1,-3 1,-2 v -3 l 1,-3 1,-2 v -3 l 1,-3 v -2 l 1,-3 v -2 l 1,-2 v -2 -3 -2 -1 -2 -1 -2 -1 -1 -1 h -1 v -1 -1 -1 -1 -1 -1 h 1 v -1 l 1,-1 h 1 l 1,-1 v -1 -1" /><path
             id="path74"
             style="fill:none;stroke:#000000;stroke-width:6.25;stroke-linecap:round;stroke-linejoin:round;stroke-miterlimit:10;stroke-dasharray:none;stroke-opacity:1"
             d="m 1810,3103 1,-1 v -1 -1 -1 -1 -1 -2 -1 -1 -2 -2 -2 -2 -1 -2 l 1,-1 v -1 l 1,-1 v -1 l 1,-1 h 2 l 1,-1 h 2 2 l 2,-1 h 3 3 3 l 4,-1 h 2 3 2 l 2,-1 h 2 2 l 1,-1 h 1 l 1,-1 h 1 v -1 h 1 v -1 -1 -1 l -1,-1 v -1 -1 h -1 v -1 -1 l -1,-1 v -1 -1 -1 l -1,-1 v -1 -1 l -1,-1 v -1 -1 -1 -1 -1 l -1,-1 v -1 -1 -1 l -1,-1 v -1 l -1,-1 v -1 l -1,-1 v -1 l -1,-1 -1,-1 v -1 l -1,-1 -1,-1" /><path
             id="path76"
             style="fill:none;stroke:#000000;stroke-width:6.25;stroke-linecap:round;stroke-linejoin:round;stroke-miterlimit:10;stroke-dasharray:none;stroke-opacity:1"
             d="m 2707,2618 -9,2 -8,2 -8,1 h -7 -6 l -6,-1 -6,-1 -5,-2 -5,-3 -5,-3 -4,-4 -4,-4 -4,-6 -4,-6 -4,-7 -4,-8 -4,-8 -2,-3 -1,-3 -2,-3 -2,-4 -2,-3 -2,-3 -2,-3 -2,-3 -2,-2 -2,-3 -2,-3 -2,-3 -3,-2 -2,-3 -3,-3 -2,-2 -3,-2 -2,-3 -4,-3 -2,-2 -3,-3 -3,-2 -2,-3 -2,-2 -2,-3 -1,-2 -2,-2 -1,-3 -1,-2 -2,-3 -1,-3 -1,-3 -1,-3 -1,-3 -1,-4 -1,-4 -1,-3 -1,-3 -1,-4 -1,-3 -1,-3 -2,-3 -1,-3 -2,-3 -2,-3 -1,-3 -3,-3 -2,-3 -2,-3 -3,-3 -3,-4 -3,-4 -3,-3 -3,-4 -3,-4 -4,-4 -4,-5 -4,-6 -4,-6 -4,-7 -5,-7 -5,-8 -6,-8 -5,-9 -6,-9 -6,-9 -6,-10 -6,-11 -6,-11 -7,-11 -7,-12 -9,-15 -10,-19 -10,-17 -10,-16 -9,-15 -8,-14 -8,-13 -7,-12 -7,-11 -6,-10 -5,-9 -6,-9 -4,-7 -4,-6 -4,-6 -4,-5 -2,-4 -3,-3 -1,-1 -1,-2 -1,-1 h -1 l -1,-1 -1,-1 h -1 -1 -1 -1 l -1,1 h -1 l -1,1 -1,1 -1,1 -1,1 -2,1 -1,1 -1,1 -1,1 h -1 l -1,1 h -1 -1 -1 l -2,-1 -1,-1 h -1 l -2,-2 -1,-1 -2,-2 -2,-2 -3,-2 -3,-3 -2,-2 -3,-3 -2,-2 -2,-2 -1,-1 -2,-1 -2,-1 -1,-1 -1,-1 h -1 -1 -1 -1 l -1,1 -1,1 h -1 l -1,1 -2,2 -1,1 -1,1 -1,1 h -1 l -1,1 h -1 v 1 h -1 -1 -1 l -1,-1 h -1 l -1,-1 -1,-1 -1,-1 -1,-1 -2,-1 -1,-2 h -1 v -1 h -1 v -1 l -1,-1 h -1 v -1 h -1 v -1 h -1 l -1,-1 -1,-1 v -1 h -1 l -1,-1 -1,-1 -2,1 -3,1 h -2 l -2,1 h -2 l -2,1 h -2 l -3,1 h -2 l -2,1 -2,1 h -2 l -2,1 h -3 l -2,1 h -2 l -2,1 -3,1 h -3 l -4,1 -3,1 -3,1 -3,1 -3,1 h -3 l -2,1 -3,1 -2,1 -2,1 h -1 l -2,1 h -1 l -1,1 h -1 v 1 1 l 1,1 1,1 1,2 1,2 2,2 2,3 2,3 3,3 2,3 3,4 3,4 3,4 3,4 4,5 3,4 4,5 4,4 3,5 4,4 3,5 3,4 3,4" /><path
             id="path78"
             style="fill:none;stroke:#000000;stroke-width:6.25;stroke-linecap:round;stroke-linejoin:round;stroke-miterlimit:10;stroke-dasharray:none;stroke-opacity:1"
             d="m 2189,2151 3,4 3,3 3,4 2,3 2,3 2,2 2,2 2,2 1,2 1,1 v 1 l 1,1 h -1 -2 -3 l -5,-1 -6,-1 -8,-1 -8,-2 -9,-2 -10,-2 -10,-2 -10,-3 -10,-2 -10,-3 -10,-2 -10,-2 -9,-3 -8,-2 -7,-2 -4,-1 -3,-1 -4,-1 -3,-1 -4,-1 h -3 l -4,-1 -3,-1 -4,-1 -3,-1 h -4 l -3,-1 h -3 l -3,-1 h -3 l -3,-1 h -2 -3 l -3,-1 h -3 -3 -3 -2 -3 l -2,1 h -2 l -3,1 h -2 l -2,1 -3,1 -2,1 -3,2 -3,1 -3,2 -3,2 -4,2 -2,2 -3,1 -2,2 -3,2 -3,2 -3,2 -3,3 -4,2 -3,2 -3,3 -4,2 -3,3 -3,2 -3,3 -3,2 -4,3 -2,2 -3,2 -3,3 -3,2 -2,2 -3,2 -3,2 -2,2 -2,2 -3,1 -2,2 -2,1 -2,2 -2,1 -1,1 -2,1 h -1 l -1,1 h -1 -1 -1 l -1,1 h -1 v 1 h -1 l -1,1 v 1 h -1 v 1 1 h -1 v 1 l -1,1 v 1 l -2,2 -2,1 -2,3 -2,2 -3,3 -3,3 -3,3 -3,3 -4,4 -4,4 -4,4 -5,3 -4,5 -5,4 -4,4 -6,5 -8,7 -7,6 -5,5 -6,5 -4,4 -4,4 -3,3 -2,3 -2,2 -1,2 -1,2 -1,1 v 2 l 1,1 v 1 l 2,1 1,1 2,2 3,2 5,2 5,2 6,2 6,2 7,2 7,1 8,2 7,1 8,1 8,2 h 8 l 8,1 h 7 l 8,1 h 7 l 6,-1 h 6 l 6,-1 h 5 5 5 5 l 4,1 h 4 l 3,1 3,1 3,1 3,1 2,2 2,1 1,2 1,2 1,2 v 2 1 2 l -1,2 -1,2 -1,3 -1,3 -1,3 -2,4 -1,4 -2,5 -2,5 -3,4 -2,6 -2,5 -3,5 -2,6 -3,5 -3,6 -2,4 -2,4 -1,3 -2,4 -2,3 -2,4 -1,3 -2,4 -2,3 -1,3 -2,4 -2,3 -2,4 -1,3 -2,4 -2,3 -2,4 -1,3 -1,4 v 5 4 4 4 4 4 5 4 4 4 4 4 l -1,5 v 4 4 4 4 11 10 9 8 8 6 6 6 5 l 1,5" /><path
             id="path80"
             style="fill:none;stroke:#000000;stroke-width:6.25;stroke-linecap:round;stroke-linejoin:round;stroke-miterlimit:10;stroke-dasharray:none;stroke-opacity:1"
             d="m 1886,2647 1,4 v 4 l 1,4 1,5 1,4 2,4 1,5 2,4 1,3 1,3 1,3 1,3 1,3 1,2 1,3 1,2 1,2 1,2 1,2 v 2 l 1,1 1,2 v 1 h 1 v 1 h 1 v 1 l 1,1 1,1 1,1 1,2 2,1 1,2 2,3 2,2 2,3 2,2 3,3 2,3 2,3 3,4 2,3 3,3 2,3 2,2 2,3 1,2 2,2 1,2 2,2 2,2 1,2 2,2 1,3 2,2 2,2 1,2 2,2 1,2 2,2 2,2 2,1 h 2 2 3 l 2,-1 h 2 3 l 2,-1 h 3 2 2 l 3,-1 h 2 3 l 2,-1 h 2 3 2 l 4,-1 h 4 l 5,-1 4,-1 h 4 l 4,-1 h 3 l 3,-1 3,-1 3,-1 h 2 l 3,-1 2,-1 2,-1 2,-1 h 1 l 1,-1 1,-1 1,-1 1,-2 2,-1 1,-2 2,-3 1,-3 2,-3 3,-3 2,-4 2,-4 3,-4 2,-5 3,-4 3,-5 3,-5 2,-5 3,-5 3,-6 4,-6 3,-7 3,-6 3,-5 4,-5 2,-5 3,-5 3,-4 2,-4 3,-3 2,-4 2,-3 3,-2 2,-3 2,-2 2,-2 2,-1 2,-2 6,-4 8,-3 7,-2 7,-1 h 7 8 l 7,2 7,3 7,3 7,5 7,5 6,7 6,7 6,8 5,8 5,10 5,10 4,11 1,2 1,2 v 2 l 1,2 v 2 l 1,2 1,2 v 2 3 l 1,2 v 2 l 1,2 v 2 1 2 2 l 1,1 v 2 1 2 2 2 l 1,2 v 2 l 1,2 1,2 v 3 l 1,2 1,3 1,2 1,3 1,2 1,2 1,3 1,2 2,3 1,3 2,4 2,3 1,2 2,2 1,2 1,2 1,1 1,1 2,1 1,1 h 1 1 2 1 2 2 1 l 2,-1 h 2 2 3 2 l 3,1 h 4 3 l 4,1 h 4 l 4,1 h 5 l 4,1 h 5 l 4,1 5,1 5,1 4,1 h 5 l 5,1 5,1 4,1 5,1 h 5 l 5,1 4,1 h 5 l 4,1 h 4 4 l 4,1 h 3 4 2 l 3,1 h 2 2 3 2 2 l 3,1 h 2 2 l 2,1 h 2 l 3,1 h 2 l 1,1 h 2 l 2,1" /><path
             id="path82"
             style="fill:none;stroke:#000000;stroke-width:6.25;stroke-linecap:round;stroke-linejoin:round;stroke-miterlimit:10;stroke-dasharray:none;stroke-opacity:1"
             d="m 2478,2830 h 1 l 2,1 h 1 l 2,1 2,2 2,1 2,1 h 2 l 1,1 h 2 l 1,1 h 1 1 1 1 v -1 h 1 v -1 -1 -1 -1 l -1,-1 v -1 h -1 l -1,-1 -1,-1 -1,-1 -1,-1 -1,-1 -2,-1 h -1 l -2,-1 -1,-1 -2,-1 -1,-1 -2,-1 -3,-2 -3,-1 -3,-2 -2,-1 -2,-1 -2,-1 -1,-2 -1,-1 -1,-1 v -1 -2 -1 -1 l 1,-2 1,-2 1,-2 1,-2 2,-2 1,-1 v -1 l 1,-1 v -1 l 1,-1 1,-1 v -1 -1 l 1,-1 v -1 l 1,-1 v -1 -1 -1 -1 -1 -2 -2 -1 l 1,-2 v -2 l 1,-2 v -1 l 1,-2 1,-1 1,-2 v -1 l 1,-1 2,-1 1,-1 1,-1 h 1 l 1,-1 h 1 1 1 1 l 1,-1 h 1 v -1 h 1 v -1 l 1,-1 v -1 -1 l 1,-1 1,-1 h 1 l 1,-1 h 1 1 1 1 1 1 v -1 h 1 v -1 -1 l -1,-1 v -1 l -1,-1 -1,-1 -1,-2 -1,-1 -2,-2 -2,-2 -1,-2 -2,-1 -1,-2 -2,-1 -1,-2 -1,-1 -1,-1 -2,-2 -1,-1 v -1 l -1,-1 -1,-1 -1,-1 v -1 l -1,-1 v -1 -1 h 1 v -1 h 1 l 1,-1 h 1 l 2,-1 h 1 l 2,-1 2,-1 2,-1 2,-1 2,-1 3,-1 2,-1 3,-1 2,-1 3,-1 4,-2 5,-2 4,-1 4,-2 4,-1 3,-1 h 4 l 3,-1 h 3 3 l 3,1 h 3 l 3,1 3,1 3,1 3,2 4,2 3,2 3,2 3,2 4,4 3,3 4,5 4,4 4,5 4,5 4,5 4,6 3,5 4,5 3,6 3,5 3,5 2,4 2,5 1,3 1,3 v 1 l 1,2 1,2 v 1 l 1,2 v 1 l 1,1 1,1 v 1 l 1,1 1,1 h 1 1 v -1 h 1 v -1 h 1 1 1 1 l 1,-1 h 1 2 l 1,1 h 1 1 2 1 l 1,1 h 2 2 l 4,1" /><path
             id="path84"
             style="fill:none;stroke:#000000;stroke-width:6.25;stroke-linecap:round;stroke-linejoin:round;stroke-miterlimit:10;stroke-dasharray:none;stroke-opacity:1"
             d="m 2667,2793 3,1 3,1 3,1 h 2 2 2 2 l 1,-1 1,-1 1,-1 1,-1 v -1 -2 l 1,-2 v -3 -3 -3 -3 l 1,-3 v -3 l 1,-3 1,-3 2,-3 1,-3 2,-3 1,-2 2,-3 2,-2 3,-2 2,-1 2,-2 2,-1 h 3 l 2,-1 h 2 2 l 3,-1 h 3 l 3,-1 3,-1 3,-1 3,-2 3,-1 3,-1 3,-2 3,-2 2,-1 2,-2 2,-1 2,-1 1,-2 v -1 -1 -1 -1 h -1 v -1 -1 l -1,-1 -1,-1 v -1 l -1,-1 v -1 h -1 l -1,-1 v -1 l -1,-1 -1,-1 -1,-1 -1,-1 v -1 l -1,-2 v -1 -1 -2 l 1,-1 1,-2 1,-2 1,-2 2,-2 2,-3 3,-3 3,-4 3,-3 4,-5 3,-3 2,-3 3,-2 2,-3 2,-2 2,-3 2,-2 2,-2 2,-2 1,-2 2,-1 1,-2 1,-1 1,-1 1,-1 v -1 h 1 v -1 h -1 l -1,-1 h -1 l -1,-1 -1,-1 -1,-1 h -2 l -2,-1 -2,-1 -2,-1 -2,-1 -2,-2 -2,-1 -3,-1 -2,-1 -3,-1 -4,-3 -4,-1 -3,-2 -3,-2 -3,-1 -3,-1 -2,-1 h -3 l -2,-1 h -2 -2 -3 -2 l -3,1 h -3 l -3,1 -3,1 -4,1 -10,2" /><path
             id="path86"
             style="fill:none;stroke:#000000;stroke-width:6.25;stroke-linecap:round;stroke-linejoin:round;stroke-miterlimit:10;stroke-dasharray:none;stroke-opacity:1"
             d="m 2702,3352 -3,-8 -3,-10 -4,-9 -3,-11 -4,-10 -3,-12 -4,-11 -3,-11 -3,-11 -3,-11 -3,-11 -2,-10 -2,-10 -2,-9 -2,-8 -1,-7 -1,-7 v -6 l -1,-5 -1,-5 v -5 l -1,-4 -1,-3 -1,-4 -1,-2 -1,-3 -1,-2 -2,-3 -2,-2 -2,-1 -2,-2 -2,-2 -3,-2 -3,-1 -3,-2 h -1 l -1,-1 h -1 l -1,-1 h -1 l -1,-1 h -1 l -1,-1 h -1 v -1 h -1 -1 l -1,-1 h -1 v -1 l -1,1 -2,1 -2,2 -1,1 -2,2 -1,2 -2,1 -1,2 -2,1 -2,2 -1,2 -2,1 -1,2 -2,1 -1,2 -2,2 -2,1 -1,2 -2,1 -1,2 -2,2 -1,1 -2,2 -2,1 -1,2 -2,1 -1,2 -2,2 -2,1 -1,2 -2,1 -1,2 -2,1 -2,2 -1,2 -2,1 v 1 1 h 1 v 1 l 1,1 1,1 1,1 1,1 v 1 h 1 l 1,1 1,1 v 1 h 1 v 1 l 2,1 1,2 1,1 1,1 1,2 1,1 1,1 v 1 1 1 1 l -1,1 -1,1 v 1 l -1,1 -2,1 -1,2 -3,2 -2,1 -3,2 -3,2 -3,2 -3,1 -3,2 -3,1 -3,2 -3,1 -3,1 -2,1 -3,1 -3,1 h -2 l -2,1 h -2 -2 -2 l -2,1 h -2 l -2,1 -1,1 -2,1 -1,2 -1,1 -1,2 -1,2 -1,2 -1,3 v 2 l -1,3 v 3 4 3 3 2 3 2 l -1,1 v 2 2 1 l -1,1 v 1 l -1,1 -1,1 h -1 l -1,1 -1,1 h -1 -1 l -2,1 h -1 -1 l -1,1 h -1 -1 -2 -1 -1 -2 -1 l -2,-1 h -1 -1 -2 l -1,-1 h -1 l -1,-1 h -1 -2 l -1,-1 h -1 -1 l -1,-1 h -2 -1 -1 -1 -1 -1 -1 -1 l -1,1 h -1 -1 l -1,1 -2,1 -2,1 -1,1 h -1 -2 -1 -1 -1 l -1,-1 -1,-1 v -1 l -1,-2 -1,-2 -1,-2 -1,-3 -1,-3 -1,-4 -2,-4 -2,-6 -3,-5 -2,-6 -3,-6 -4,-6 -3,-5 -4,-6 -4,-5 -4,-6 -4,-5 -4,-4 -4,-5 -4,-4 -5,-3 -4,-3 -4,-3 -3,-2 -4,-1 -2,-1 -2,-1 -3,-1 h -2 l -2,-1" /><path
             id="path88"
             style="fill:none;stroke:#000000;stroke-width:6.25;stroke-linecap:round;stroke-linejoin:round;stroke-miterlimit:10;stroke-dasharray:none;stroke-opacity:1"
             d="m 2355,3181 h -1 -2 -2 -2 -2 -2 l -2,1 -2,1 -3,1 -3,1 -3,1 -3,1 -3,1 -2,1 -2,1 -2,1 -2,1 -2,1 -2,1 -1,1 h -2 l -1,1 -2,1 -1,1 h -1 l -1,1 h -1 v 1 h -1 v 1 l 1,1 v 1 h 1 v 1 l 1,1 1,1 1,1 1,2 1,1 1,1 1,2 2,1 1,1 2,2 1,1 2,2 1,1 1,1 1,1 1,1 v 1 h 1 l 1,1 1,1 1,1 1,1 1,1 1,1 1,1 1,1 h 1 l 1,1 v 1 l 1,1 -1,1 h -1 -1 -1 -1 -1 v 1 h -1 -1 -1 -1 -1 v 1 h -1 -1 -2 l -2,1 -1,1 -2,1 -1,1 -2,1 -1,1 -2,1 -1,2 -2,1 -1,2 -2,2 -2,2 -1,3 -2,2 -2,3 -2,3 -1,1 v 2 l -1,1 -1,1 -1,2 -1,1 -1,1 -1,2 -1,1 -1,1 v 2 l -1,1 -1,2 -1,1 -1,1 -1,2 -1,1 -1,1 2,1 h 1 l 1,1 h 1 l 2,1 h 1 l 1,1 h 1 l 1,1 2,1 h 1 l 1,1 h 1 l 1,1 h 2 l 1,1 h 1 l 2,1 3,2 4,1 2,1 3,1 2,1 1,1 2,1 1,1 1,1 v 1 2 1 1 l -1,2 v 2 l -1,2 -1,2 -1,2 -1,2 -1,2 -1,1 v 1 l -1,1 -1,1 h -1 l -1,1 h -1 -1 l -2,-1 h -1 -2 l -2,-1 -2,-1 -2,-1 -2,-1 -2,-1 h -2 l -2,-1 -1,-1 h -2 -1 -1 l -1,-1 h -1 v 1 h -1 -1 v 1 1 1 1 1 1 l 1,1 v 1 1 h 1 v 1 l 1,1 v 1 h 1 v 1 l 1,1 1,1 1,1 1,1 h 1 v 1 l 1,1 1,1 v 1 1 h 1 v 1 1 1 1 1 1 1 1 1 l -1,1 v 1 l 1,1 v 1 1 1 1 2 l 1,1 v 1 1 l 1,1 v 1 l 1,2 1,2 1,2 v 2 2 2 2 1 l -1,1 -1,2 -2,1" /><path
             id="path90"
             style="fill:none;stroke:#000000;stroke-width:6.25;stroke-linecap:round;stroke-linejoin:round;stroke-miterlimit:10;stroke-dasharray:none;stroke-opacity:1"
             d="m 2292,3390 h -2 l -2,1 -2,1 h -3 l -3,1 h -3 -4 -4 -3 l -3,1 h -2 -2 l -2,1 h -2 l -1,1 -1,1 -1,1 -1,1 v 1 1 2 1 l 1,2 1,2 1,2 1,2 1,1 v 1 l 1,1 v 1 1 1 1 1 1 1 l -1,1 v 1 l -2,2 -1,3 -1,4 -2,4 -1,5 -2,5 -1,6 -1,5 -1,6 -1,6 -1,6 -1,6 -1,6 v 5 5 l -1,4 1,4 v 4 2 2 l 1,2 v 1 2 2 1 1 1 l -1,2 v 1 1 h -1 v 1 h -1 -1 l -1,1 -1,1 v 1 1 1 1 l 1,2 v 1 2 l 1,1 v 2 l 1,2 1,2 v 2 l 1,2 v 1 l 1,2 v 2 l 1,1 v 2 1 1 l 1,1 v 1 1 1 l -1,1 -1,1 h -1 -1 v 1 h -1 v 1 1 l 1,1 -1,1 -1,2 -2,2 -3,3 -3,3 -4,3 -4,3 -4,3 -4,4 -5,3 -5,3 -4,3 -4,3 -5,2 -3,3 -4,1 -3,2 -2,1 h -1 l -2,1 -1,1 -1,1 -1,1 v 2 l -1,1 v 1 l 1,2 v 1 l 1,2 v 1 l 1,2 2,2 1,2 2,2 2,2 1,1 v 1 h 1 v 1 h 1 v 1 l 1,1 h 1 v 1 h 1 v 1 l 1,1 1,1 1,1 1,1 v 1 l -1,2 -1,1 v 2 l -1,1 -1,1 v 2 l -1,1 v 1 l -1,2 -1,1 v 1 l -1,2 -1,1 v 2 l -1,1 v 1 l -1,2 -2,5 -2,5 -2,5 -1,5 -2,5 -1,5 v 5 l -1,5 v 5 5 l 1,4 v 5 l 1,5 1,4 2,4 1,4 2,5 3,3 2,4 2,2 2,3 2,3 3,2 2,2 3,2 3,2 2,1 3,2 3,1 4,1 3,1 h 4 l 4,1 h 4 4 4 5 4 l 4,-1 h 4 l 4,-1 3,-1 4,-2 3,-2 3,-2 3,-2 4,-3 3,-3 3,-4 4,-4" /><path
             id="path92"
             style="fill:none;stroke:#000000;stroke-width:6.25;stroke-linecap:round;stroke-linejoin:round;stroke-miterlimit:10;stroke-dasharray:none;stroke-opacity:1"
             d="m 2285,3762 3,-5 4,-5 4,-5 5,-7 4,-7 5,-6 4,-6 4,-5 4,-5 4,-5 3,-4 4,-3 3,-3 3,-3 4,-3 4,-3 4,-2 4,-3 4,-2 5,-3 5,-2 5,-2 4,-2 4,-2 4,-1 3,-2 3,-1 3,-1 h 3 l 3,-1 2,-1 h 3 3 l 3,-1 h 2 3 3 l 4,1 h 3 4 l 5,1 4,1 4,1 3,1 3,1 3,1 2,1 3,2 2,2 1,2 2,2 1,2 1,3 v 3 l 1,3 v 3 4 4 3 4 l -1,3 v 4 l -1,3 -1,3 -1,4 -2,3 -1,3 -2,3 -2,4 -2,3 -2,3 -3,3 -2,4 -3,3 -3,4 -4,4 -5,5 -3,4 -4,4 -3,3 -3,4 -2,3 -2,4 -2,3 -1,3 -2,3 -1,3 -1,3 v 3 l -1,4 v 3 4 l -1,3 1,5 v 4 4 l 1,3 1,4 1,3 2,3 2,3 2,2 3,3 4,3 3,2 5,3 5,2 5,3 6,2 7,3 7,3 6,2 4,1 5,2 3,1 4,1 3,1 2,1 3,1 h 2 1 2 1 l 2,-1 1,-1 h 1 l 2,-1 1,-1 1,-2 2,-1 1,-1 1,-1 1,-1 1,-1 v -1 l 1,-1 v -1 -1 -1 h -1 v -1 h -1 l -1,-1 v -1 h -1 l -1,-1 -1,-1 -1,-1 v -1 h -1 v -1 -1 -1 -1 -1 l 1,-1 1,-2 v -1 l 1,-2 2,-2 1,-2 2,-2 1,-3 1,-1 2,-2 2,-2 1,-2 2,-1 2,-2 2,-2 2,-2 3,-2 2,-2 2,-2 2,-2 3,-1 2,-2 3,-2 2,-1 2,-2 4,-2 5,-3 5,-3 4,-3 4,-4 4,-3 3,-4 3,-4 3,-5 3,-5 2,-5 2,-6 2,-7 2,-7 2,-8 2,-9 2,-9 2,-10 1,-9 1,-5 1,-5 1,-5 1,-5 1,-5 1,-5 1,-4 1,-5 1,-4 1,-4 1,-3 1,-4 1,-3 1,-3 1,-2 1,-2 v -1 l 2,-2 2,-3 2,-2 2,-2 2,-2 3,-2 3,-2 3,-2 4,-2 4,-1 4,-2 5,-1 4,-2 6,-1 5,-1 6,-1 6,-1 7,-2 h 4 2 l 1,-1 h 2 2 l 2,-1 h 2 2 l 2,-1 h 2 2 l 1,-1 h 2 2 l 2,-1 h 2 2 2 v -2" /><path
             id="path94"
             style="fill:none;stroke:#000000;stroke-width:6.25;stroke-linecap:round;stroke-linejoin:round;stroke-miterlimit:10;stroke-dasharray:none;stroke-opacity:1"
             d="m 2724,3602 v -2 -2 -2 -2 -2 -2 -2 -2 -2 -2 -2 -2 -2 -2 -2 -2 -2 h -1 l -1,-1 h -1 -2 -1 -1 -2 l -1,-1 h -1 -2 -1 -1 l -1,-1 h -2 -1 -1 -2 -1 l -3,-1 h -2 l -2,-1 h -3 l -2,-1 h -1 l -2,-1 h -2 l -1,-1 h -1 l -1,-1 h -1 l -1,-1 v -1 h -1 v -1 -1 l -1,-1 v -1 -1 -1 l -1,-2 v -1 -1 l -1,-2 -1,-1 v -2 l -1,-1 -1,-2 -1,-2 v -2 l -1,-1 -1,-2 -1,-2 -1,-1 -2,-3 -1,-3 -1,-2 -1,-2 -1,-2 -1,-1 v -2 -1 l -1,-1 v -1 l 1,-1 v -1 -1 l 1,-1 1,-1 1,-2 1,-1 1,-1 1,-1 1,-1 1,-1 h 2 l 1,-1 2,-1 h 1 l 2,-1 h 2 2 l 2,-1 h 3 2 3 l 3,-1 h 3 3 3 1 2 2 1 2 1 2 2 1 2 1 2 2 1 2 1 2 l 1,-1 v -2 -2 l -1,-2 v -2 -2 -2 -2 l -1,-2 v -2 -2 -2 -2 -2 l -1,-2 v -2 -2 -2 -2 l -1,-2 v -2 -2 -2 -2 -2 l -1,-3 v -2 -2 -2 -2 -2 -2 l -1,-2 v -2 -2 -2 h 1 2 2 1 2 2 2 2 2 1 2 2 2 2 2 1 2 2 v -1 -1 l -1,-1 v -1 l -1,-1 -1,-1 v -1 l -1,-1 v -1 l -1,-1 v -1 h -1 v -1 l -1,-1 v -1 l -1,-1 v -1 l -1,-1 -1,-2 -1,-1 -1,-2 -1,-1 -1,-2 -2,-1 -1,-1 -1,-2 -2,-1 -1,-1 -1,-1 -2,-1 -1,-1 -1,-1 -1,-1 h -2 l -1,-1 -1,-1 h -1 l -1,-1 -1,-1 -2,-1 -1,-2 -1,-1 -1,-1 -2,-2 -1,-1 -1,-2 -1,-2 -1,-1 -1,-2 -2,-2 -1,-2 -1,-2 v -2 l -4,-7" /><path
             id="path96"
             style="fill:none;stroke:#000000;stroke-width:6.25;stroke-linecap:round;stroke-linejoin:round;stroke-miterlimit:10;stroke-dasharray:none;stroke-opacity:1"
             d="m 3586,2389 -1,-1 -2,-2 -2,-2 -2,-2 -3,-2 -3,-2 -4,-2 -4,-2 -4,-3 -4,-2 -5,-2 -5,-2 -4,-2 -5,-1 -5,-2 -5,-1 -4,-1 -3,-1 -3,-1 -2,-1 h -3 l -3,-1 -2,-1 -3,-1 -2,-1 -2,-1 -2,-1 -2,-1 h -2 l -2,-1 -1,-1 -1,-1 -1,-1 h -1 l -1,-1 -1,-1 v -1 l -1,-1 h -1 v -1 h -1 l -1,-1 h -1 -1 l -1,1 h -1 v 1 h -1 l -1,1 -1,1 -1,1 -1,1 -1,1 h -1 l -1,1 -1,1 h -2 -1 l -1,1 h -2 -2 -2 -2 -2 -3 l -2,-1 h -3 -3 l -4,-1 h -3 -3 l -4,-1 h -5 -6 l -6,-1 h -6 l -7,-1 h -7 l -7,-1 h -8 -8 l -8,-1 h -8 l -8,-1 h -9 -8 l -10,-1 h -11 l -11,-1 h -9 -9 l -7,-1 h -7 l -6,-1 h -6 l -5,-1 h -4 l -3,-1 -3,-1 h -3 l -2,-1 -2,-1 -1,-1 h -1 v -1 l -1,-1 v -1 h -1 v -1 h -1 v -1 h -1 -1 -1 -1 -1 -1 l -1,1 h -1 l -1,1 h -1 l -1,1 -2,1 h -2 l -3,1 h -3 -4 l -5,1 h -5 -5 l -6,1 h -6 -7 -8 l -8,1 h -8 -9 -9 -9 -14 -15 -14 l -12,-1 h -11 -9 l -9,-1 -7,-1 -7,-1 -5,-1 -5,-1 -4,-2 -4,-1 -2,-2 -3,-2 -1,-3 -2,-2 -1,-3 v -3 l -1,-4 v -5 -5 l 1,-5 v -7 l 1,-6 1,-7 1,-8 2,-7 1,-8 2,-7 2,-8 2,-8 2,-7 3,-7 2,-7 2,-7 2,-4 1,-3 1,-3 2,-3 1,-3 1,-3 1,-3 1,-3 v -2 l 1,-2 1,-2 v -2 l 1,-2 v -1 l 1,-1 v -1 -1 h -1 -1 v -1 h -1 -1 -1 l -1,-1 h -2 -1 -1 l -2,-1 h -1 -2 l -1,-1 h -2 -1 -1 l -1,-1 h -1 -1 -1 -1 -2 l -1,-1 h -1 -1 -1 -1 l -1,-1 h -1 -1 -1 -1 -1 1 v 1 1 1 1 1 h 1 v 1 1 1 1 h 1 v 1 1 1 1 h 1 v 2 1 2 l 1,2 v 1 2" /><path
             id="path98"
             style="fill:none;stroke:#000000;stroke-width:6.25;stroke-linecap:round;stroke-linejoin:round;stroke-miterlimit:10;stroke-dasharray:none;stroke-opacity:1"
             d="m 2994,2173 v 1 2 l -1,1 v 1 l -1,1 v 1 l -1,1 -1,1 -1,1 -1,2 -2,1 -1,1 -2,1 -1,1 -1,2 -1,1 -2,1 -1,2 -2,2 -1,1 -1,2 -2,2 -1,2 -2,2 -1,2 -1,2 -2,2 -1,2 -1,2 -1,2 -1,2 -1,3 -2,2 -1,2 -2,2 -1,2 -1,2 -2,2 -1,2 -2,1 -1,2 -2,2 -2,1 -1,1 -2,2 -2,1 -1,1 -2,1 -3,1 -4,2 -4,2 -5,2 -4,2 -5,2 -5,1 -4,2 -5,1 -4,1 -4,2 h -4 l -4,1 -3,1 h -3 -3 -2 -2 l -1,-1 -2,-1 -2,-2 -2,-2 -2,-2 -2,-3 -2,-4 -2,-3 -2,-4 -2,-4 -1,-4 -2,-4 -1,-3 -1,-4 -1,-4 -1,-4 -1,-3 v -3 -3 -2 -1 -2 -1 -1 -2 l -1,-1 v -1 h -1 v -1 l -1,-1 h -1 l -1,-1 -1,-1 h -1 -2 l -1,-1 h -2 l -2,-1 -2,-1 -1,-1 -2,-1 -1,-1 -1,-2 -1,-1 v -2 l -1,-2 v -2 -2 -3 -3 -2 l 1,-3 1,-4 v -3 l 1,-2 1,-1 v -2 l 1,-1 v -1 l 1,-1 1,-2 v -1 h 1 l 1,-1 v -1 l 1,-1 h 1 v -1 h 1 1 1 2 2 2 2 1 1 1 1 l 1,-1 h 1 v -1 l -1,-1 v -1 h -1 l -1,-1 h -1 v -1 l -1,-1 v -1 l -1,-1 v -1 -2 -1 l 1,-2 v -2 l 1,-2 v -2 l 1,-2 1,-3 1,-3 1,-3 1,-3 1,-3 1,-2 1,-3 1,-2 v -3 l 1,-2 1,-3 v -2 l 1,-2 v -2 -2 l 1,-2 v -2 -1 -1 -2 -1 -1 -1 -1 -1 -1 -1 -1 -1 -1 l 1,-1 v -1 -1 l 1,-1 v -1 l 1,-1 v -1 l 1,-1 v -1 l 1,-1 1,-1 1,-1 v -1 -1 l 1,-1 v -1 -1 -1 -1 -1 h -1 v -1 l -1,-1 -1,-1 v -1 -1 h -1 v -1 -1 l -1,-2 v -1 -1 -1 -2 -1 -2 -1 -2 -1 l 1,-2 v -1 -2 l 1,-2 v -2 l 1,-2 v -2 l 1,-1 v -1 l 1,-1 v -1 l 1,-1" /><path
             id="path100"
             style="fill:none;stroke:#000000;stroke-width:6.25;stroke-linecap:round;stroke-linejoin:round;stroke-miterlimit:10;stroke-dasharray:none;stroke-opacity:1"
             d="m 2862,2008 1,-1 1,-1 1,-1 h 1 1 2 1 2 1 2 l 2,1 1,1 h 2 l 1,1 1,2 1,1 1,1 1,1 v 2 l 1,1 v 2 1 2 l -1,1 v 1 l -1,1 v 1 1 1 h 1 v 1 h 1 1 1 v -1 h 1 v -1 h 1 v -1 -1 l 1,-1 v -1 -1 -1 -1 l 1,-1 v -1 -1 -2 -1 -2 -2 -1 l -1,-2 v -1 -1 l -1,-1 -1,-1 -1,-1 h -1 l -1,-1 h -2 -1 -1 -2 -2 -1 -2 -1 -1 l -1,-1 h -1 l -1,-1 -1,-1 v -1 -1 -1 -1 l 1,-1 v -2 -1 l 1,-3 v -3 -2 -3 -3 -3 l -1,-2 -1,-3 -1,-3 -1,-2 -2,-2 -2,-3 -1,-2 -2,-2 -3,-2 -2,-1 -2,-2 -3,-1 -2,-1 -2,-1 -1,-1 -2,-1 h -1 l -2,-1 h -1 -1 -1 -2 -1 l -1,1 -1,1 h -1 l -2,1 -1,1 -2,2 -2,1 -1,1 -2,1 -1,2 -1,1 -1,1 -1,1 -1,2 -1,1 v 1 l -1,2 v 1 l -1,2 v 2 2 l -1,1 v 2 3 2 3 3 l -1,3 v 3 l -1,2 -1,2 -1,2 -1,2 -1,2 -2,1 -2,2 -2,1 -3,1 -2,1 -3,1 -3,1 h -4 l -4,1 -4,1 -3,1 -4,1 -3,1 -2,2 -3,2 -2,2 -2,2 -2,2 -2,3 -1,3 -2,4 -1,4 -1,4 v 4 l -1,5 v 5 l -1,9 -1,15 v 12 l -1,12 -1,10 v 9 l -1,7 -1,7 -1,6 -1,5 -1,4 -1,4 -1,3 -2,2 -1,3 -2,2 -2,2 -3,2 -2,2 -1,1 -1,2 -2,1 -1,1 -1,1 -2,1 -1,1 h -1 l -1,1 -1,1 -1,1 h -1 l -1,1 h -1 l -1,1 h -1 -1 -1 l -1,1 h -1 l -1,1 -1,1 h -1 l -1,1 -2,1 -1,1 -1,1 -2,2 -1,1 -2,1 -2,1 -1,2 -2,1 -1,1 -1,1 -1,1 -1,1 -1,1 -1,1 h -1 l -1,1 -1,1 -1,1 -1,1 -1,1 -1,1 -1,1" /><path
             id="path102"
             style="fill:none;stroke:#000000;stroke-width:6.25;stroke-linecap:round;stroke-linejoin:round;stroke-miterlimit:10;stroke-dasharray:none;stroke-opacity:1"
             d="m 2671,2211 h -1 l -1,1 -1,1 -1,1 1,1 1,2 1,1 2,2 1,1 1,2 2,1 1,2 1,1 2,2 1,1 1,2 2,2 1,1 1,2 2,1 1,2 1,1 3,4 4,5 5,5 5,7 5,7 6,7 5,8 6,8 5,8 6,8 5,7 4,7 5,7 3,6 4,5 2,4 2,3 v 2 l 1,3 3,6 6,10 7,13 9,16 11,17 11,19 12,20 13,20 12,21 13,21 12,19 12,19 11,17 9,15 9,12 6,9 4,6 3,3 3,3 2,3 3,3 2,3 2,3 2,3 2,3 2,3 1,3 2,2 1,3 2,3 1,3 1,2 1,3 1,3 v 2 l 1,3 1,3 1,3 1,3 1,2 1,3 2,2 1,3 2,3 1,2 2,3 2,3 2,2 3,3 2,3 3,3 2,3 3,3 3,2 2,3 2,3 3,3 3,3 2,4 3,3 2,4 3,3 2,4 3,4 2,3 3,4 2,4 2,3 2,4 2,3 2,4 3,6 3,5 3,5 2,4 3,3 3,4 2,2 3,3 3,1 3,2 3,1 3,1 h 4 4 4 l 5,-1 h 5 l 5,-1 h 2 2 l 2,-1 h 3 2 l 2,-1 h 3 2 l 3,-1 h 2 3 l 2,-1 h 2 3 l 2,-1 h 2 2 2 l 3,-1 h 3 2 3 2 l 3,1 h 3 l 3,1 3,1 3,1 4,1 3,1 5,2 4,2 5,2 5,3 6,2 8,4 9,4 8,4 7,4 6,3 5,4 5,3 5,3 3,4 3,3 3,4 2,4 2,5 1,4 1,6 1,5 1,7 1,7 v 5 l 1,4 v 5 l 1,4 1,5 1,5 1,6 1,5 1,6 2,6 1,6 2,6 2,6 2,7 2,6 2,7 2,7 3,7 1,6 1,3 2,4 1,4 1,4 1,3 2,4 1,4 1,4 1,3 2,4 1,4 1,4 1,3 1,4 2,4 1,3 1,4 2,1 h 2 l 2,1 h 2 2 2 2 2 2 2 2 1 2 2 l 2,1 h 2 2 2 5 5 5 4 4 4 l 4,-1 4,-1 4,-1 5,-2 5,-1 5,-3 6,-2 7,-3 8,-4 8,-4 10,-4 10,-5" /><path
             id="path104"
             style="fill:none;stroke:#000000;stroke-width:6.25;stroke-linecap:round;stroke-linejoin:round;stroke-miterlimit:10;stroke-dasharray:none;stroke-opacity:1"
             d="m 3449,3042 14,-7 13,-6 12,-5 11,-5 10,-4 10,-4 9,-4 9,-3 8,-2 8,-2 8,-2 7,-1 8,-1 7,-1 h 7 7 8 l 7,1 h 4 3 2 l 3,1 h 3 3 2 2 2 2 l 2,-1 h 2 1 1 1 v -1 h 1 v -2 -1 -2 -1 -2 l 1,-2 1,-2 v -2 l 1,-1 1,-2 1,-2 2,-1 1,-1 1,-1 1,-1 1,-1 h 1 2 v -1 h 1 l 2,-1 h 1 l 2,-1 1,-2 2,-1 2,-1 2,-2 3,-2 2,-2 3,-2 2,-2 3,-2 2,-3 3,-2 3,-3 3,-3 4,-4 4,-3 3,-3 3,-3 3,-2 2,-2 2,-2 2,-1 2,-1 1,-1 h 1 l 2,-1 1,1 h 1 l 1,1 1,1 v 1 l 1,1 v 1 h 1 v 1 h 1 v 1 h 1 1 1 l 1,-1 h 1 v -1 l 1,-1 1,-1 2,-1 1,-1 h 2 l 1,-1 h 2 1 2 l 2,1 h 1 l 1,1 h 2 l 1,1 v 1 l 1,1 v 1 1 1 1 h 1 v 1 1 l 1,1 v 1 h 1 l 1,1 h 1 1 1 v -1 h 1 v -1 h 1 v -1 -1 l 1,-1 v -1 -1 l -1,-2 v -1 -1 l -1,-1 -1,-2 -1,-1 -1,-1 -1,-2 -1,-1 -1,-1 -2,-1 h -1 l -1,-1 -1,-1 h -2 -1 -1 -1 -1 -1 -1 -1 -1 -1 -1 -1 l -1,-1 h -1 -1 -1 -1 -1 -1 -1 -2 l -1,-1 h -1 -1 -2 -1 -1 -2 -2 -1 -2 l -1,-1 h -2 -1 l -1,-1 h -1 v -1 l -1,-1 -1,-1 v -1 l -1,-1 v -1 -1 -2 l -1,-2 v -2 -1 -2 -2 l -1,-1 v -2 -3 -2 l -1,-2 v -3 -2 -3 l -1,-2 v -3 -2 -3 l -1,-2 v -3 -2 l -1,-4 v -4 -3 -3" /><path
             id="path106"
             style="fill:none;stroke:#000000;stroke-width:6.25;stroke-linecap:round;stroke-linejoin:round;stroke-miterlimit:10;stroke-dasharray:none;stroke-opacity:1"
             d="m 3704,2839 v -3 -2 -2 -2 l 1,-1 1,-2 v -2 l 2,-1 1,-1 2,-2 1,-1 2,-2 3,-2 2,-2 3,-2 3,-2 3,-1 3,-2 2,-1 3,-1 4,-1 3,-1 h 3 l 4,-1 h 4 4 4 5 l 5,1 h 6 l 6,1 5,1 h 1 2 1 1 l 1,1 h 1 2 1 1 1 l 1,1 h 2 1 1 1 l 1,1 h 2 l 1,2 v 2 2 2 1 2 2 2 1 2 2 2 l 1,2 v 1 2 2 2 1 2 2 2 2 1 2 2 l 1,2 v 2 2 1 2 2 2 2 1 2 h 1 l 3,-2 2,-2 2,-2 2,-2 2,-2 2,-2 3,-2 2,-2 2,-2 2,-2 2,-2 2,-2 3,-2 2,-2 2,-2 2,-2 2,-2 3,-2 4,-4 3,-3 3,-3 3,-3 3,-3 3,-3 2,-2 3,-3 2,-2 2,-3 2,-2 1,-1 1,-2 1,-1 1,-1 v -1 -1 -1 -2 l -1,-2 1,-2 v -3 l 1,-2 1,-3 1,-3 2,-3 1,-3 2,-2 1,-3 2,-2 1,-2 2,-2 2,-1 h 1 1 l 2,1 h 2 2 l 1,1 1,-1 h 1 l 1,-1 v -1 -1 l -1,-1 v -2 l -1,-2 -2,-2 -1,-2 -2,-2 -2,-3 -3,-3 -3,-3 -2,-2 -3,-4 -4,-4 -6,-6 -6,-7 -8,-8 -8,-9 -9,-10 -9,-10 -11,-11 -11,-12 -11,-13 -12,-13 -12,-14 -13,-14 -13,-14 -14,-15 -13,-15 -14,-15 -13,-14 -13,-14 -13,-14 -11,-13 -12,-13 -11,-12 -10,-11 -9,-11 -9,-9 -8,-9 -7,-8 -6,-7 -5,-6 -4,-5 -3,-3 -2,-2 v -1 -2" /><path
             id="path108"
             style="fill:none;stroke:#000000;stroke-width:6.25;stroke-linecap:round;stroke-linejoin:round;stroke-miterlimit:10;stroke-dasharray:none;stroke-opacity:1"
             d="m 3779,4058 -2,-4 -3,-4 -3,-4 -3,-5 -3,-4 -3,-5 -3,-4 -3,-5 -3,-4 -3,-4 -3,-3 -3,-4 -3,-3 -2,-2 -2,-2 -2,-2 -2,-1 h -1 l -1,-1 h -2 -1 l -3,-1 h -2 l -3,-1 h -2 l -3,-1 h -4 -3 l -3,-1 h -4 l -4,-1 h -3 -4 l -4,-1 h -4 -4 l -5,-1 h -5 l -5,-1 h -5 l -5,-1 -6,-1 -6,-1 -6,-1 -5,-1 -6,-1 -6,-1 -6,-1 -6,-1 -5,-1 -6,-1 -5,-1 -5,-1 -5,-1 -6,-1 -6,-2 -6,-1 -6,-1 -7,-1 -6,-1 -7,-1 -6,-1 -7,-1 h -6 l -7,-1 -6,-1 -6,-1 h -6 l -5,-1 h -6 -5 l -5,-1 h -5 l -5,-1 h -5 l -6,-1 h -5 l -5,-1 -5,-1 -5,-1 h -5 l -4,-1 -5,-1 -4,-1 h -4 l -3,-1 -3,-1 -3,-1 -4,-1 -3,-1 -4,-1 h -3 l -3,-1 -2,-1 h -3 -2 -2 -3 -2 -2 l -2,1 h -3 l -2,1 -3,1 -3,1 -3,1 -5,1 -6,2 -7,1 -6,1 -7,1 h -8 l -7,1 h -8 -8 -7 -8 l -7,-1 h -6 l -6,-1 -6,-1 -5,-1 -4,-1 -3,-2 h -1 l -2,-1 h -1 l -2,-1 -2,-1 -2,-1 h -2 l -2,-1 h -3 l -2,-1 -2,-1 h -3 l -2,-1 h -3 l -2,-1 h -2 l -3,-1 h -2 -3 l -2,-1 h -3 l -2,-1 h -2 l -2,-1 h -2 l -2,-1 -1,-1 h -2 l -1,-1 -1,-1 -2,-1 h -1 v -1 l -1,-1 -1,-1 -1,-2 -1,-1 -1,-2 -1,-1 -1,-1 -1,-1 h -1 l -1,-1 h -1 -1 -1 v 1 l -1,1 -1,1 v 1 1 l -1,2 v 2 2 1 1 1 1 l -1,1 -1,1 -1,1 h -1 -1 -1 -1 l -2,-1 h -2 -1 l -3,-1 h -1 l -2,-1 h -2 -2 l -3,-1 h -2 l -3,-1 h -3 l -3,-1 h -3 l -4,-1 h -3 l -3,-1 h -4 l -3,-1 h -3 l -4,-1 h -3 l -4,-1 -3,-1 h -3 l -3,-1 -3,-1 h -3 l -3,-1 -3,-1 h -3 l -2,-1 -3,-1 h -2 l -2,-1 -2,-1 h -1 l -1,-1 -1,-1 h -1 l -1,-1 -2,-1 h -1 l -1,-1 h -2 l -1,-1 h -2 -3 -2 -3 -3 l -3,1 h -4 l -4,1 h -5 l -5,1 -5,1 -8,1 -8,2 -7,1 -7,2 -7,2 -5,2 -5,2" /><path
             id="path110"
             style="fill:none;stroke:#000000;stroke-width:6.25;stroke-linecap:round;stroke-linejoin:round;stroke-miterlimit:10;stroke-dasharray:none;stroke-opacity:1"
             d="m 2953,3927 -5,2 -4,3 -3,3 -4,3 -2,4 -3,4 -2,4 -1,5 -2,6 -1,5 -1,7 -2,12 -2,14 -2,12 -2,12 -2,11 -2,10 -2,9 -3,8 -2,7 -3,7 -4,6 -3,5 -4,5 -4,5 -4,4 -5,4 -5,3 -6,4 -3,1 -2,2 -3,1 -2,2 -2,1 -3,2 -2,2 -2,1 -2,2 -2,1 -2,2 -2,2 -2,1 -1,1 -2,2 -1,1 -1,1 -1,2 h -1 v 1 l -1,1 -1,1 v 1 h -1 l -1,1 v 1 h -1 v 1 l -1,1 -1,1 v 1 l -1,1 -1,1 1,1 1,1 1,1 h 1 l 1,1 1,1 1,1 1,1 1,1 1,1 h 1 v 1 l 1,1 1,1 1,1 1,1 1,1 2,2 6,4 6,4 6,4 8,4 8,4 8,4 9,4 9,4 10,4 10,3 10,4 11,3 10,2 11,3 10,2 11,2 10,2 9,1 8,1 6,1 7,1 6,1 5,1 6,2 5,1 5,2 6,2 5,2 6,2 7,3 7,3 7,3 8,4 10,5 10,4 7,4 7,3 6,3 6,3 6,3 6,2 6,3 5,2 5,2 5,2 5,2 4,2 4,1 3,1 3,1 2,1 h 2 2 2 3 3 l 3,-1 3,-1 3,-1 4,-1 3,-1 4,-2 4,-1 3,-2 3,-1 4,-2 3,-1 2,-2 3,-2 2,-1 2,-2 1,-1 1,-1 1,-1 h 1 l 1,-1 h 1 1 1 l 1,-1 h 1 1 l 1,1 h 1 1 l 2,1 h 1 l 1,1 h 2 l 1,1 2,1 1,1 1,1 h 1 l 1,1 1,2 v 1 l 1,1 v 2 2 l 1,2 v 2 3 l -1,3 v 4 4 3 3 l -1,3 v 3 2 2 2 2 2 l 1,2 v 1 1 1 l 1,1 v 1 h 1 v 1 h 1 1 1 l 1,-1 h 1 v -1 l 1,-1 v -1 -1 -1 l 1,-1 1,-1 1,-1 h 2 2 3 l 3,1 h 4 l 4,2 5,1 5,2 6,2 6,2 6,3 7,3 8,3 8,4 12,5 12,6 13,5 13,6 14,5 14,6 13,5 14,5 13,4 12,5 13,4 11,3" /><path
             id="path112"
             style="fill:none;stroke:#000000;stroke-width:6.25;stroke-linecap:round;stroke-linejoin:round;stroke-miterlimit:10;stroke-dasharray:none;stroke-opacity:1"
             d="m 3518,4409 10,4 10,2 9,2 7,2 6,1 h 4 3 2 l 2,1 h 2 2 l 2,1 h 1 l 2,1 1,1 2,2 1,1 2,2 1,2 2,2 2,2 2,3 2,3 2,3 1,2 2,3 1,2 2,2 2,2 1,2 2,2 2,2 1,2 2,2 1,2 2,2 1,2 2,1 1,1 1,2 2,1 1,1 2,1 1,1 2,2 h 1 l 1,1 1,1 h 1 1 1 1 1 l 1,-1 1,-1 1,-1 1,-1 1,-1 2,-1 1,-1 1,-1 1,-1 v -1 h 1 l 1,-1 1,-1 h 1 l 1,-1 1,-1 h 1 l 1,-1 h 1 l 1,-1 h 1 1 v -1 -1 -1 h 1 v -1 -1 -1 -1 l -1,-1 v -1 -1 -1 l -1,-1 v -1 -2 -2 -2 -2 -3 -3 -3 -3 -3 -4 -3 l 1,-4 v -3 -4 l 1,-4 v -4 l 1,-4 2,-10 1,-10 3,-9 2,-10 3,-9 3,-9 4,-9 4,-9 4,-9 6,-10 5,-9 7,-10 7,-11 8,-11 8,-11 9,-12 10,-13 9,-11 5,-7 5,-6 5,-7 5,-6 4,-6 5,-6 4,-6 4,-6 4,-6 4,-5 3,-5 3,-5 3,-4 2,-4 3,-3 1,-3 1,-3 2,-2 1,-4 1,-2 1,-3 v -2 l 1,-2 v -2 l 1,-1 v -2 -1 -1 -1 l -1,-1 v -1 h -1 l -1,-1 -1,-1 -1,-1 h -1 l -1,-1 -1,-1 -1,-1 h -1 l -1,-1 -1,-1 -1,-1 -1,-1 -1,-1 -1,-1 -1,-1 -2,-1 -1,-1 -1,-1 -1,-1 -1,-1 -1,-1 -1,-1 -1,-1 -1,-2 -2,-1 -1,-1 -1,-2 -1,-1 -1,-2 -1,-1 -1,-2 -1,-1 -1,-1 -1,-2 -1,-1 -1,-2 -1,-1 -1,-2 -1,-1 -2,-4" /><path
             id="path114"
             style="fill:none;stroke:#000000;stroke-width:6.25;stroke-linecap:round;stroke-linejoin:round;stroke-miterlimit:10;stroke-dasharray:none;stroke-opacity:1"
             d="m 3534,4866 h -2 l -2,-1 h -2 -2 -3 -2 l -2,-1 h -3 -2 -2 -2 -3 l -2,-1 h -2 -1 -2 -2 -2 -2 -2 -2 -1 l -2,-1 h -1 l -1,-1 -1,-1 -1,-1 -1,-1 -1,-1 -1,-1 -1,-2 -1,-2 -1,-2 -1,-2 -1,-3 -1,-2 -1,-3 -1,-2 -1,-2 -1,-1 -1,-2 -2,-1 -1,-2 -2,-1 -2,-1 -2,-2 -2,-1 -2,-1 -3,-1 -3,-2 -4,-1 -3,-1 -4,-2 -3,-1 -3,-1 -2,-1 h -3 l -3,-1 -3,-1 -2,-1 h -3 l -2,-1 -3,-1 h -2 l -2,-1 h -2 -2 l -2,-1 h -2 -1 -1 -1 -2 -1 l -1,-1 h -2 -1 l -2,-1 h -1 l -2,-1 -1,-1 h -1 l -2,-1 -1,-1 h -1 l -2,-1 -1,-1 -1,-1 -1,-1 h -1 l -1,-1 -1,-1 -1,-1 h -1 l -1,-1 h -1 l -1,-1 h -1 l -1,-1 h -1 l -1,-1 h -1 -1 v 1 h -1 -1 -1 v 1 h -1 -1 -2 l -1,1 h -1 -1 -1 l -2,1 h -1 -1 l -3,1 h -2 l -2,1 h -2 -2 -1 l -1,-1 h -2 l -1,-1 -1,-2 -1,-1 v -2 l -1,-3 -1,-3 -1,-4 -2,-4 -1,-5 -1,-6 -1,-4 -1,-1 v -2 l -1,-2 -1,-2 -1,-2 v -2 l -1,-2 -1,-2 -1,-1 -1,-2 -1,-2 -1,-1 -1,-2 -1,-1 v -1 l -1,-1 -1,-1 -1,-1 -1,-1 -1,-1 h -1 v -1 h -1 v -1 h -1 v -1 h -1 v -1 h -1 v -1 h -1 v -1 h -1 l 1,-1 v -2 l 1,-1 v -1 l 1,-2 1,-1 v -1 l 1,-2 1,-1 v -1 l 1,-2 1,-1 v -1 l 1,-2 1,-1 v -1 l 1,-2 1,-1 v -1 l 1,-2 1,-1 v -1 l 1,-2 1,-1 v -1 l 1,-2 1,-1 v -1 l 1,-1 1,-2 v -1 l 1,-1 1,-2 v -1 l 1,-1 1,-2 -1,-1 -1,-1 -1,-1 -1,-1 -1,-1 -1,-1 -1,-2 -1,-1 -2,-1 -1,-1 -1,-1 -1,-1 -1,-1 -1,-1 -1,-2 -1,-1 -1,-1 -1,-1 -2,-2 -2,-2 -1,-2 -2,-2 -2,-2 -2,-2 -1,-2 -2,-2 -2,-2 -1,-2 -2,-2 -1,-2 -1,-2 -1,-1 -2,-2 -1,-1 v -2 l -1,-1 -1,-2 -1,-1 -1,-2 -1,-1 -1,-1" /><path
             id="path116"
             style="fill:none;stroke:#000000;stroke-width:6.25;stroke-linecap:round;stroke-linejoin:round;stroke-miterlimit:10;stroke-dasharray:none;stroke-opacity:1"
             d="m 3269,4616 -1,-1 -1,-1 -1,-1 h -1 l -1,-1 h -1 l -2,-1 h -1 -2 l -1,-1 h -2 -2 -2 -4 l -6,-1 -7,-2 -7,-2 -9,-2 -10,-3 -10,-3 -11,-4 -12,-4 -12,-5 -13,-4 -13,-5 -13,-5 -13,-6 -13,-5 -13,-5 -13,-6 -13,-6 -10,-4 -8,-4 -9,-3 -7,-4 -6,-2 -6,-3 -5,-1 -5,-2 -4,-1 -3,-1 h -3 -2 -2 l -1,1 -1,1 -1,1 v 2 2 1 1 1 l -1,1 v 1 h -1 v 1 h -1 -1 -1 l -1,-1 h -1 l -1,-1 h -1 l -2,-1 -1,-1 -2,-2 -2,-1 -1,-1 -1,-1 -1,-1 -1,-1 v -1 l -1,-1 v -1 l -1,-2 v -1 l -1,-2 v -2 -2 -2 -3 -3 -3 -3 l 1,-4 v -5 -4 -4 l -1,-3 v -3 l -1,-2 -1,-2 -1,-2 -1,-1 h -2 -2 -2 l -2,1 -3,1 -3,1 -3,2 -3,2 -5,3 -5,3 -5,3 -5,2 -5,2 -6,1 h -5 -6 -6 l -7,-1 -7,-2 -8,-2 -9,-3 -9,-3 -10,-4 -11,-5 -12,-5 -13,-6 -12,-6 -10,-4 -9,-5 -9,-4 -7,-3 -7,-3 -7,-2 -5,-3 -6,-2 -5,-1 -5,-2 -5,-1 -5,-1 -6,-1 -5,-1 -6,-1 h -6 l -7,-1 -8,-1 -8,-1 -8,-1 -8,-1 -8,-2 -8,-2 -7,-2 -8,-2 -8,-2 -8,-3 -8,-3 -8,-3 -8,-4 -8,-3 -8,-4 -8,-4 -8,-4 -8,-5 -5,-3 -4,-2 -3,-2 -2,-1 -3,-1 -2,-1 -2,-1 -1,-1 h -2 -1 -1 l -1,1 h -1 v 1 l -1,1 -1,1 -1,2 -1,2 v 1 l -1,1 v 1 2 1 2 1 l 1,2 v 2 l 1,1 2,3 1,2 2,2 2,3 2,3 2,3 3,4 3,4 5,6 5,7 5,6 4,6 4,5 4,6 3,5 2,5 3,4 2,5 1,4 1,4 1,4 1,4 1,4 v 4 4 l -1,5 v 5 l -1,4 -1,5 -1,3 -1,4 -2,3 -2,2 -3,3 -3,1 -3,2 -5,1 -5,2 -5,1 h -7 l -7,1 -8,1 h -10 l -10,1 h -9 -8 l -7,1 h -6 l -6,1 h -5 -4 l -4,1 -4,1 h -3 l -3,1 -3,1 -3,1 -2,2 -3,1 -2,1 -3,2 -3,2 -6,5 -6,5 -5,5 -5,5 -4,6 -3,6 -3,6 -2,6 -2,6" /><path
             id="path118"
             style="fill:none;stroke:#000000;stroke-width:6.25;stroke-linecap:round;stroke-linejoin:round;stroke-miterlimit:10;stroke-dasharray:none;stroke-opacity:1"
             d="m 2379,4591 -1,7 -1,6 v 6 l 1,7 1,6 2,6 3,6 3,6 4,6 4,6 5,5 4,5 4,3 4,3 3,2 4,2 h 3 3 l 3,-1 3,-2 3,-3 3,-3 2,-4 3,-5 2,-6 3,-7 2,-7 1,-5 2,-5 2,-5 2,-4 2,-4 2,-4 2,-3 3,-4 3,-3 3,-3 3,-3 4,-3 4,-3 4,-3 5,-3 6,-3 5,-4 6,-2 1,-1 2,-1 2,-1 2,-1 2,-1 2,-1 1,-1 2,-1 2,-1 2,-1 2,-1 2,-1 1,-1 2,-1 2,-1 2,-1 2,-1 h 2 l 2,1 2,1 2,1 2,1 2,1 2,1 2,1 2,1 2,1 3,1 2,1 2,1 2,1 2,1 2,1 2,1 2,1 4,2 6,3 5,3 5,3 5,3 4,3 4,3 4,2 3,3 3,3 2,2 2,3 2,3 2,2 1,3 1,2 v 3 l 1,3 v 2 1 l -1,1 v 1 2 l -1,2 v 2 l -1,2 v 2 l -1,2 -1,3 -1,2 -1,3 v 2 l -1,3 -1,3 -1,2 -2,3 -1,4 -2,4 -1,4 -1,3 -2,4 v 3 l -1,3 -1,3 v 3 3 3 3 4 l 1,4 v 4 l 1,5 1,6 1,6 v 4 l 1,3 v 2 l 1,2 v 3 2 l 1,2 v 2 3 l 1,2 v 2 3 l 1,2 v 2 l 1,3 v 2 2 l 1,2 -1,2 -1,1 -1,1 -1,1 h -1 v 1 l -1,1 h -1 l -1,1 -1,1 -1,1 -1,1 h -1 v 1 l -1,1 h -1 l -2,2 -1,1 -2,2 -2,2 -1,1 -1,2 -1,2 -1,2 -1,2 -1,2 -1,3 -1,3 v 3 l -1,3 -1,4 v 4 l -1,5 v 5 l -1,4 v 4 l -1,3 v 4 3 4 l -1,3 v 2 3 3 2 l 1,2 v 2 2 1 l 1,2 v 1 1 l 1,1 v 1 l 1,1 v 1 2 l 1,1 v 2 2 l 1,1 v 2 2 2 l 1,2 v 2 2 2 2 2 1 2 1 1 1 1 2 1 1 1 1 2 1 1 1 1 2 1 h 2 1 2 1 2 1 2 1 2 1 2 1 2" /><path
             id="path120"
             style="fill:none;stroke:#000000;stroke-width:6.25;stroke-linecap:round;stroke-linejoin:round;stroke-miterlimit:10;stroke-dasharray:none;stroke-opacity:1"
             d="m 2612,4929 h 1 2 1 2 1 3 3 3 l 3,-1 h 3 3 3 l 4,-1 h 3 l 4,-1 h 3 l 4,-1 h 3 l 3,-1 h 4 l 3,-1 h 3 l 3,-1 4,-1 h 4 l 4,-1 3,-1 h 2 3 l 2,-1 h 2 2 1 2 l 1,1 h 1 l 1,1 1,1 1,1 v 1 l 1,1 v 1 h 1 v 1 l 1,1 h 1 1 1 v -1 l 1,-1 1,-1 v -1 l 2,-1 1,-1 2,-1 2,-2 3,-1 2,-2 3,-2 4,-2 4,-3 3,-2 4,-2 5,-3 4,-2 5,-3 4,-3 5,-3 6,-3 8,-4 7,-4 6,-3 6,-3 4,-3 5,-2 3,-2 4,-1 2,-1 3,-1 h 2 2 1 l 2,1 h 1 l 2,1 1,1 1,2 2,1 1,1 h 1 l 1,1 v 1 h 1 1 v -1 -1 -1 l -1,-1 v -1 -1 l -1,-2 v -1 -2 l -1,-1 v -1 -1 l 1,-1 v -1 l 1,-1 h 1 l 1,-1 h 1 l 1,-1 h 1 2 l 2,-1 h 2 l 3,-1 6,-1 7,-1 7,-1 8,-1 8,-1 9,-1 8,-2 9,-1 8,-1 8,-1 8,-1 7,-1 6,-1 6,-1 h 4 l 4,-1 h 2 2 2 l 2,1 2,1 2,1 1,1 2,2 1,2 2,2 1,2 1,3 1,2 1,4 1,3 1,4 1,4 v 4 l 1,4 1,5 v 3 4 3 l 1,3 v 3 2 l -1,3 v 2 3 l -1,2 -1,3 v 2 l -1,3 -1,2 -2,3 -1,3 -2,3 -1,3 -1,2 -2,3 -1,2 -2,2 -1,2 -2,3 -2,2 -1,2 -2,2 -2,1 -1,2 -2,2 -2,2 -2,1 -2,2 -2,1 -1,1 -3,2 -2,1 -2,1 -2,2 -1,1 -2,1 h -1 v 1 l -1,1 v 1 l 1,1 h 1 1 l 2,1 h 1 1 2 l 1,1 h 1 l 1,1 h 1 v 1 l 1,1 h 1 v 1 1 l 1,2 v 1 1 2 2 l 1,2 v 2 2 2 l -1,2 v 1 2 1 1 l -1,1 v 1 l -1,1 h -1 -1 -1 -1" /><path
             id="path122"
             style="fill:none;stroke:#000000;stroke-width:6.25;stroke-linecap:round;stroke-linejoin:round;stroke-miterlimit:10;stroke-dasharray:none;stroke-opacity:1"
             d="m 2956,5007 -1,-1 h -1 -1 l -1,-1 h -1 -1 l -1,-1 h -1 l -1,-1 h -1 -1 l -1,-1 h -1 l -1,-1 h -1 -1 l -1,-1 h -1 -1 -1 v 1 h -1 v 1 l -1,1 1,1 1,2 2,1 2,1 3,1 3,1 3,1 4,1 3,1 4,1 4,1 4,1 h 4 3 3 3 3 2 l 1,-1 h 1 1 1 2 1 1 l 1,1 h 1 2 l 1,1 1,1 h 1 l 2,1 1,1 1,1 2,1 1,1 2,1 1,1 2,1 1,1 h 1 l 1,1 1,1 h 2 1 1 1 1 1 l 1,-1 h 1 l 1,-1 1,-1 1,-1 1,-1 h 1 1 1 1 1 1 v 1 l 1,1 h 1 l 1,1 1,1 1,1 1,2 1,1 1,1 v 1 h 1 v 1 h 1 v 1 l 1,1 1,1 1,1 v 1 h 1 v 1 h 1 v 1 h 1 v -1 -1 -1 -1 -1 -1 -1 -1 -1 -1 -1 -1 -1 -1 -1 -2 l 1,-1 v -1 l 1,-1 1,-1 h 1 v -1 l 2,-1 1,-1 1,-1 h 1 l 2,-1 2,-1 1,-1 h 2 l 1,-1 h 2 l 1,-1 h 2 l 1,-1 h 1 1 l 2,-1 h 1 1 l 1,-1 h 1 1 1 1 l 1,1 v 1 l 1,1 v 1 1 l 1,2 1,1 v 2 l 1,1 v 2 l 1,2 v 2 l 1,2 v 2 l 1,3 1,4 1,5 1,4 1,4 1,3 1,3 1,2 1,1 1,2 h 1 l 1,1 h 1 1 l 1,-1 2,-1 2,-1 1,-2 3,-1 1,-1 2,-1 1,-1 2,-1 1,-1 2,-1 h 2 l 1,-1 h 2 l 2,-1 h 2 l 2,-1 h 2 2 l 3,-1 h 2 2 3 4 5 l 4,-1 h 5 l 3,-1 4,-1 4,-2 3,-1 3,-3 4,-2 3,-3 3,-3 4,-4 3,-4 4,-5 4,-6 4,-6 5,-6 3,-6 4,-5 3,-4" /><path
             id="path124"
             style="fill:none;stroke:#000000;stroke-width:6.25;stroke-linecap:round;stroke-linejoin:round;stroke-miterlimit:10;stroke-dasharray:none;stroke-opacity:1"
             d="m 3229,4983 2,-4 3,-4 2,-3 1,-3 2,-3 1,-3 1,-3 v -2 l 1,-3 v -3 l 1,-3 v -3 -3 -4 -3 l -1,-5 v -4 -3 -3 l -1,-2 v -2 l -1,-2 -1,-2 -1,-1 -1,-1 -2,-1 h -2 l -3,-1 h -3 -3 -4 l -5,-1 h -4 -1 -2 -1 l -1,1 h -2 -2 l -1,1 h -2 -2 l -2,1 h -1 l -2,1 -2,1 h -2 l -1,1 -2,1 h -2 l -1,1 -2,1 h -2 l -1,1 -2,1 -1,1 h -2 l -1,1 h -2 l -1,1 h -2 l -1,1 h -1 l -1,1 h -1 -1 -1 -1 -1 l -2,-1 -1,-1 -1,-1 -1,-2 -1,-2 -1,-2 -1,-3 -1,-3 v -2 l -1,-3 v -3 -4 -3 l 1,-3 v -3 l 1,-3 v -3 l 1,-1 v -2 -1 l 1,-2 v -1 -2 -1 -1 -1 -1 -2 -1 -1 -1 h -1 v -1 l -1,-1 v -1 l -1,-1 v -1 -1 -1 l -1,-1 v -1 -1 -2 -1 -1 l -1,-1 v -2 -1 -2 -2 -2 l 1,-1 v -2 l 1,-1 v -1 l 1,-1 2,-1 1,-1 2,-1 2,-1 2,-1 3,-1 3,-1 4,-1 4,-1 3,-1 3,-1 3,-1 3,-1 3,-1 3,-2 3,-1 3,-2 4,-1 3,-2 3,-1 3,-2 3,-1 3,-2 3,-2 3,-2 3,-1 3,-2 1,-1 2,-1 1,-1 2,-1 1,-1 2,-1 1,-1 2,-1 1,-1 2,-1 1,-1 2,-1 1,-1 1,-1 2,-1 1,-1 2,-1 1,-1 1,1 1,1 1,1 1,1 v 1 h 1 l 1,1 1,1 v 1 l 1,1 1,1 1,1 v 1 l 1,1 1,1 1,1 v 1 h 1 l 1,2 2,2 1,2 2,2 1,2 2,3 2,2 2,3 1,3 2,2 2,3 2,3 2,3 2,3 1,3 2,3 2,3 1,3 2,3 1,3 2,3 2,3 2,3 2,2 2,3 2,3 2,3 2,2 2,3 2,2 2,3 2,2 2,2 1,2 2,1 2,2 1,1 2,1 1,2 1,1 2,1 1,2 2,1 1,2 1,1 2,2 1,1 1,2 1,1 1,2 1,1 v 1 l 1,1 v 1 l 1,2 v 2 l 1,1 v 1 l 1,1 1,1" /><path
             id="path126"
             style="fill:none;stroke:#000000;stroke-width:6.25;stroke-linecap:round;stroke-linejoin:round;stroke-miterlimit:10;stroke-dasharray:none;stroke-opacity:1"
             d="m 3356,4921 1,1 h 1 1 1 l 1,-1 h 1 l 1,-1 1,-1 2,-1 1,-1 2,-1 h 1 l 1,-1 1,-1 h 2 1 l 2,-1 h 1 1 l 2,-1 h 1 2 1 2 1 2 l 1,1 h 2 2 l 1,1 h 2 2 1 1 1 1 l 1,-1 h 1 l 1,-1 h 1 l 1,-1 1,-1 1,-1 v -1 l 1,-1 1,-1 1,-2 v -1 l 1,-1 1,-1 v -1 l 1,-1 h 1 l 1,-1 h 1 l 1,1 h 1 2 l 1,1 2,1 1,1 2,1 3,1 1,2 2,1 2,1 1,1 1,1 1,1 1,1 1,1 1,1 v 1 2 l 1,1 v 1 2 2 2 2 2 l -1,2 v 2 1 2 1 1 1 l 1,1 v 1 h 1 1 1 1 1 l 1,-1 h 1 1 1 1 1 1 1 1 1 l 1,1 h 1 1 l 1,1 h 1 l 1,1 1,1 h 1 l 1,1 1,1 1,1 1,1 1,1 h 1 l 1,1 h 1 1 1 l 1,-1 1,-1 1,-1 v -1 l 1,-2 1,-1 1,-2 2,-3 1,-2 1,-2 1,-1 2,-2 1,-1 1,-1 1,-1 h 2 1 1 2 1 l 2,1 h 2 l 2,1 2,1 1,1 2,1 1,1 1,1 h 1 l 1,1 h 1 1 1 1 l 1,-1 h 1 v -1 l 1,-1 1,-1 1,-1 v -1 -1 h 1 v -1 l 1,-1 1,-1 v -1 h 1 v -1 h 1 l 1,-1 h 1 2 l 1,-1 2,-2 3,-2 2,-2 3,-2 2,-3 3,-2 2,-3 3,-2 2,-3 2,-2 1,-2 2,-2 v -1 l 1,-1 -1,-1 h -1 v -1 l -1,-1 v -1 l -1,-1 v -1 -1 -1 l -1,-1 v -1 -1 -1 -1 -1 -2 -1 -1 l -1,-1 v -1 l -1,-1 -1,-1 h -1 l -1,-1 -1,-1 h -2 l -1,-1 h -2 l -2,-1 h -3 -3 l -2,-1 h -3" /><path
             id="path128"
             style="fill:none;stroke:#000000;stroke-width:6.25;stroke-linecap:round;stroke-linejoin:round;stroke-miterlimit:10;stroke-dasharray:none;stroke-opacity:1"
             d="m 4220,3828 1,-2 1,-2 1,-2 2,-1 1,-2 1,-2 1,-2 1,-2 1,-2 1,-2 2,-1 1,-2 1,-2 1,-2 1,-2 1,-2 2,-2 2,-3 2,-4 2,-3 1,-3 2,-3 1,-3 2,-2 1,-3 1,-2 1,-2 v -2 l 1,-2 v -1 -1 -2 -1 l -1,-1 -1,-1 v -1 l -1,-1 v -1 l -1,-1 v -1 -1 h -1 v -1 -1 -1 -1 -1 -1 -1 l -1,-1 v -1 l -1,-2 v -1 l -1,-1 -1,-1 h -1 l -1,-1 -2,-1 -1,-1 h -1 l -2,-1 h -1 l -2,-1 h -2 -1 -2 l -1,1 v 2 l -1,2 v 2 3 3 3 l 1,3 v 4 4 l 1,3 v 4 l 1,4 1,4 v 4 l 1,3 1,4 v 2 l 1,2 v 2 l -1,2 v 2 l -2,1 -1,2 -2,1 h -2 l -3,1 -3,1 h -3 -4 -4 -5 -6 l -6,-1 h -6 l -6,-1 h -5 l -4,-1 h -4 l -3,-1 h -3 l -3,-1 h -1 l -2,-1 -1,-1 h -1 l -1,-1 v -1 -1 -2 -1 l 1,-2 v -1 l 1,-2 v -1 -1 -1 -1 -1 -1 l -1,-1 -1,-1 h -1 l -1,-1 h -1 -1 -1 -1 -1 -1 -1 v 1 h -1 -1 l -1,1 h -1 l -1,1 h -1 v 1 l -1,1 -1,1 -1,1 v 1 l -1,1 v 1 h -1 l -1,1 -1,1 h -1 l -1,1 h -1 -1 -2 l -1,1 h -1 -2 -1 -1 -2 -2 -1 -1 l -2,1 h -1 -1 l -1,1 h -1 l -1,1 v 1 h -1 v 1 1 l -1,1 v 1 1 2 1 2 l -1,1 -1,1 -1,1 -2,1 -2,1 -3,1 h -3 l -4,1 -4,1 h -5 l -6,1 h -6 l -7,1 -8,1 h -9 l -4,1 h -3 -4 l -3,1 h -4 l -4,1 h -5 l -4,1 -4,1 h -4 l -5,1 -4,1 h -4 l -5,1 -4,1 -4,1 h -4 l -3,1 -4,1 -3,1 h -4 l -3,1 h -3 l -3,1 h -3 l -3,1 h -2 -3 -2 l -2,1 h -2 -1 -2 -1 l -1,-1 v -1 -1 -1 -1" /><path
             id="path130"
             style="fill:none;stroke:#000000;stroke-width:6.25;stroke-linecap:round;stroke-linejoin:round;stroke-miterlimit:10;stroke-dasharray:none;stroke-opacity:1"
             d="m 3929,3825 v -2 -2 -2 l 1,-3 v -2 -3 l 1,-3 v -2 l 1,-3 v -4 l 1,-3 v -3 l 1,-4 1,-8 1,-7 1,-7 v -7 -7 -6 -7 l -1,-6 -1,-7 -1,-7 -2,-6 -2,-7 -2,-7 -3,-7 -3,-8 -3,-7 -4,-8 -4,-9 -6,-12 -6,-12 -5,-13 -6,-13 -5,-13 -5,-13 -5,-14 -5,-14 -4,-13 -4,-14 -4,-14 -4,-14 -4,-13 -3,-14 -3,-13 -2,-14 -2,-13 -2,-10 -1,-7 -1,-5 v -5 l -1,-4 v -4 l -1,-3 v -3 -3 -2 l 1,-2 v -2 -1 l 1,-1 1,-1 1,-1 1,-1 1,-1 2,-1 1,-1 1,-1 h 1 v -1 l 1,-1 1,-1 v -1 -1 h -1 v -1 l -1,-1 -1,-1 -1,-1 -1,-1 -1,-1 -2,-2 -1,-1 -1,-1 -1,-1 -1,-2 v -1 l -1,-1 -1,-2 v -2 l -1,-2 v -2 -2 l -1,-2 v -3 -2 -3 -3 -4 -3 -3 -3 -2 -2 -3 -2 l 1,-1 v -2 -2 l 1,-1 v -1 l 1,-1 v -1 l 1,-1 h 1 1 v -1 h 1 1 v -1 -1 l -1,-1 v -1 h -1 l -1,-1 -1,-1 -1,-1 -1,-1 -1,-1 v -1 l -1,-1 -1,-1 -1,-2 -1,-2 -1,-1 -1,-2 -1,-2 -1,-2 -1,-2 -1,-1 v -2 l -1,-2 -1,-2 -1,-2 -1,-3 -1,-2 -2,-3 -1,-3 -2,-3 -2,-3 -2,-3 -2,-4 -2,-3 -2,-3 -3,-4 -2,-3 -3,-4 -2,-3 -3,-3 -2,-4 -3,-3 -2,-3 -3,-3 -2,-3 -3,-3 -2,-3 -2,-3 -2,-3 -2,-2 -2,-3 -2,-2 -1,-3 -1,-2 -2,-2 -1,-2 v -2 l -1,-1 v -1 -1 -1 -1 l -1,-1 v -1 -1 l -1,-1 v -1 h -1 -1 l -1,-1 h -1 v 1 h -1 -1 -1 -1 -1 l -1,1 -1,-1 h -1 -1 -1 -1 l -1,-1 h -1 v -1 l -1,-1 h -1 l -1,-1 -1,-1 -1,-1 -1,-1 v -1 l -1,-1 -1,-1 v -1 h -1 l -1,-1 v -1 h -1 -1 v -1 h -1 -1 -1 -1 v 1 l -1,1 -1,1 h -1 -1 v 1" /><path
             id="path132"
             style="fill:none;stroke:#000000;stroke-width:6.25;stroke-linecap:round;stroke-linejoin:round;stroke-miterlimit:10;stroke-dasharray:none;stroke-opacity:1"
             d="m 3715,3153 h -1 -1 -1 -1 -1 l -1,-1 h -2 -2 l -1,1 -2,1 -1,1 -2,2 -1,2 -1,2 v 2 l -1,3 v 2 3 2 3 l 1,2 1,2 1,2 1,2 1,1 1,1 1,2 v 1 l 1,1 v 1 1 1 l -1,1 v 1 h -1 l -1,1 h -1 l -1,1 h -2 -1 -2 -2 v 1 h -1 -2 l -1,1 -1,1 -2,1 -1,1 -2,1 -2,2 -2,1 -2,2 -2,2 -2,2 -2,2 -2,2 -3,2 -2,2 -2,2 -2,2 -2,2 -2,2 -2,2 -2,2 -2,1 -2,2 -2,2 -1,1 -2,1 -2,2 -1,1 h -1 l -1,1 -1,1 h -1 -1 l -1,1 h -1 l -1,1 -1,1 -1,1 -1,1 -1,1 -1,1 -1,1 -1,1 -2,2 -1,1 -1,2 -2,1 -1,2 -1,1 -2,2 -1,2 -1,1 -1,2 -1,1 -2,2 -1,1 -1,1 -1,2 -1,1 -1,1 -1,1 -1,1 -1,1 -1,1 v -1 h -1 v -2 -1 -1 -2 -2 -3 l -1,-2 v -3 -3 -3 l 1,-4 v -3 -4 -3 -4 -3 -2 -3 -2 -2 -3 -2 l 1,-2 v -3 -2 -2 -3 -2 -2 -3 -2 -2 -3 h -1 -1 l -1,-1 h -1 -1 -1 l -1,-1 h -1 -1 -1 -1 -1 l -1,-1 h -1 -1 -1 -1 l -5,-1 -5,-1 -5,-1 h -4 l -4,-1 h -4 -4 l -3,1 h -4 -3 l -3,1 -3,1 -3,1 -2,1 -3,2 -2,1 -2,2 -2,2 -2,2 -2,1 -1,1 -1,2 -1,1 -1,2 -1,1 v 1 l -1,2 v 2 2 1 3 2 2 3 3 l 1,3 v 3 2 2 l 1,2 v 2 3 2 l 1,2 v 2 2 2 l 1,2 v 2 1 2 l 1,1 v 1 1 2 l 1,2 v 1 l 1,1 1,2 1,1 h 1 l 1,1 1,1 h 1 1 1 1 v -1 l 1,-1 v -1 -1 l 1,-2 v -1 -1 h 1 1 l 1,1 h 1" /><path
             id="path134"
             style="fill:none;stroke:#000000;stroke-width:6.25;stroke-linecap:round;stroke-linejoin:round;stroke-miterlimit:10;stroke-dasharray:none;stroke-opacity:1"
             d="m 3533,3275 1,1 h 1 l 1,1 v 1 h 1 l 1,1 h 1 l 1,1 h 1 l 1,1 h 1 l 1,1 h 1 l 1,1 h 1 l 1,1 h 1 1 l 1,1 h 1 1 2 l 3,1 3,1 3,2 2,2 2,2 2,2 2,2 1,3 1,3 1,2 v 3 2 l -1,3 -1,2 -1,3 -2,2 -2,2 -2,1 -1,1 h -1 l -1,1 h -1 l -1,1 h -1 -1 -1 l -1,-1 v -1 l -1,-1 -1,-1 v -1 -2 l -1,-1 v -1 h -1 v -1 -1 l -1,-1 -1,-1 -1,-1 h -1 -1 l -1,-1 h -1 l -1,1 h -1 -1 l -1,1 h -1 -1 v 1 h -1 -1 l -1,1 h -1 l -1,1 h -1 l -1,1 h -1 -1 l -1,1 h -1 -1 -1 -1 l -1,-1 h -1 v -1 -1 -1 h -1 -1 l -1,1 h -1 l -2,1 -1,1 -2,1 -2,2 -2,1 -2,2 -3,2 -2,1 -3,2 -2,2 -3,3 -3,2 -3,2 -2,3 -3,2 -3,2 -2,2 -3,2 -2,2 -3,2 -2,2 -2,1 -2,2 -1,1 -2,1 -1,1 -1,1 h -1 -1 l -1,1 h -1 l -1,1 h -1 l -1,1 -1,2 -1,1 v 1 2 l -1,1 v 2 2 1 l 1,2 v 1 2 l 1,1 1,1 1,1 v 1 1 h -1 l -1,1 h -1 -2 l -2,1 h -2 -3 -4 -3 -5 l -5,-1 h -6 -6 l -6,-1 h -3 -3 -3 -3 -3 l -2,-1 h -3 -3 -3 -3 -3 l -3,-1 h -2 -3 -3 -3 -3 -3 l -2,1 -3,1 -2,1 -3,1 -3,1 -2,1 -3,1 -2,2 -3,1 -3,1 -2,1 -3,1 -2,1 -3,1 -2,1 -3,1 -3,1 -3,2 -4,2 -5,2 -5,2 -5,2 -5,3 -5,2 -5,2 -6,3 -5,2 -5,3 -5,2 -6,3 -5,2 -4,2 -5,3 -4,2 -5,2 -4,2 -6,3 -5,3 -5,2 -5,2 -4,2 -4,1 -4,2 -3,1 -4,1 -3,1 h -3 l -4,1 h -4 -3 -4 l -5,1 h -4" /><path
             id="path136"
             style="fill:none;stroke:#000000;stroke-width:6.25;stroke-linecap:round;stroke-linejoin:round;stroke-miterlimit:10;stroke-dasharray:none;stroke-opacity:1"
             d="m 3151,3465 h -6 -5 -4 -4 -3 -3 -2 -2 l -1,1 h -1 -1 v 1 l 1,1 1,1 h 1 l 1,1 2,1 2,1 2,2 3,2 2,2 3,3 3,3 3,4 3,4 3,3 3,4 3,4 3,4 2,3 3,3 1,3 2,3 1,2 v 2 1 h -1 l -1,1 h -1 -1 -1 -1 -1 -1 -2 -1 l -2,1 h -2 -1 -2 -1 -2 -1 -1 -1 -1 -1 -1 -1 -1 -1 -1 -1 -1 -1 -2 -1 -1 v 1 2 l 1,2 v 2 2 2 2 2 l 1,2 v 2 2 2 2 l 1,2 v 2 1 2 2 2 l 1,2 v 2 2 2 2 l 1,2 v 2 2 2 2 2 l 1,2 v 2 2 2 2 l 1,2 h -2 -1 -2 -1 -1 -2 -1 -2 -1 -2 -1 -2 -1 -1 -2 -1 -2 -1 -7 -6 -6 l -4,1 h -5 l -3,1 -3,1 -2,2 -2,1 -2,2 v 2 l -1,2 1,3 v 3 l 1,4 2,4 2,4 2,5 1,2 1,2 1,1 1,2 1,1 1,2 1,1 1,1 1,1 2,1 1,1 1,1 1,1 h 2 l 1,1 h 2 l 2,1 h 2 l 5,1 4,1 4,1 3,1 3,1 h 2 l 2,1 2,1 1,2 1,1 1,1 1,2 v 2 l 1,3 v 2 3 4 3 3 2 2 2 l 1,2 v 2 2 l 1,2 v 1 2 l 1,1 v 2 l 1,1 v 1 l 1,1 v 1 l 1,1 h 1 l 1,1 h 1 l 1,1 h 2 l 1,1 2,1 h 2 l 3,1 h 2 l 3,1 2,1 h 3 l 3,1 h 3 l 3,1 h 3 l 3,1 h 4 3 l 3,1 h 3 l 3,1 h 3 l 3,1 h 3 3 l 3,1 h 3 l 2,1 h 3 l 2,1 h 2 1 l 2,1 h 1 l 1,1 h 2 1 1 1 1 1 1 l 1,-1 1,-1 v -1 l 1,-1 v -1 l 1,-1 v -2 -1 l 1,-2 v -3 l 1,-3 1,-2 v -2" /><path
             id="path138"
             style="fill:none;stroke:#000000;stroke-width:6.25;stroke-linecap:round;stroke-linejoin:round;stroke-miterlimit:10;stroke-dasharray:none;stroke-opacity:1"
             d="m 3238,3705 1,-2 1,-1 v -1 l 1,-1 h 1 1 1 l 1,1 1,1 2,1 1,2 2,2 2,2 2,3 1,2 2,1 1,2 1,1 2,1 1,2 1,1 2,1 2,1 h 1 l 2,1 2,1 2,1 h 2 l 2,1 h 3 l 2,1 h 3 l 2,1 h 3 l 2,1 h 2 2 l 2,1 h 3 l 2,1 2,1 h 2 l 2,1 h 2 l 2,1 2,1 h 2 l 1,1 2,1 h 1 l 3,2 4,1 5,1 5,1 7,1 h 7 l 7,1 h 7 8 8 8 l 7,-1 h 8 l 7,-1 7,-1 6,-1 5,-2 5,-1 4,-2 2,-1 h 3 l 2,-1 3,-1 h 2 l 2,-1 h 2 2 l 3,1 h 2 3 l 3,1 4,1 3,1 5,1 4,2 5,1 4,1 4,1 4,1 4,1 4,1 5,1 4,1 5,1 h 4 l 5,1 5,1 h 5 l 4,1 h 5 l 5,1 h 5 5 5 l 4,1 h 5 5 l 4,1 h 5 l 5,1 h 4 l 5,1 h 5 l 4,1 h 4 l 5,1 h 4 l 4,1 3,1 h 4 l 3,1 3,1 8,1 8,2 8,2 7,1 8,2 6,1 7,1 6,1 7,1 6,1 6,1 7,1 6,1 h 6 l 7,1 7,1 h 7 l 7,1 h 8 l 8,1 7,1 6,1 5,1 5,2 5,2 5,2 4,3 4,3 5,4 4,5 4,5 5,6 5,7 6,8 6,9 6,8 2,4 3,4 3,4 3,4 2,3 3,3 2,3 2,3 2,2 2,3 2,2 2,1 2,2 2,1 1,1 2,1 1,1 7,1 18,5 19,5 19,5 19,4 19,5 19,4 18,5 18,4 17,3 15,4 15,3 13,2 12,2 9,2 8,1 6,1 h 3 l 1,-1 1,-2 v -1 l 1,-2 v -2 l 1,-2 v -2 l 1,-3 1,-2 v -3 l 1,-3 1,-3 1,-4 1,-3 v -3 l 1,-4 1,-3 1,-4 v -4 l 1,-3 1,-3 1,-4 1,-3 v -3 l 1,-2 1,-3 1,-2 v -3 l 1,-2 1,-1 v -2 l 1,-1 v -1 h 1 v -1 h 1 1 v 1 h 1 2 l 1,1 h 2 l 1,1 h 2 l 2,1 h 2 l 2,1 2,1 3,1 h 2 l 2,1 3,1 h 1 l 2,1 h 1 l 2,1 h 1 l 2,1 1,1 h 2" /><path
             id="path140"
             style="fill:none;stroke:#000000;stroke-width:6.25;stroke-linecap:round;stroke-linejoin:round;stroke-miterlimit:10;stroke-dasharray:none;stroke-opacity:1"
             d="m 4226,3876 1,1 h 2 l 1,1 h 2 l 1,1 h 2 l 1,1 h 1 l 2,1 h 1 1 l 1,-1 1,-1 v -1 l 1,-1 1,-1 v -1 h 1 v -1 l 1,-1 1,-1 1,-1 v -1 h 1 v -1 l 1,-1 1,-1 1,-1 v -1 l 1,-2 1,-1 h 1 v -1 l 1,-1 1,-1 v -1 h 1 v -1 -1 h 1 v -1 h -1 v -1 h -1 l -1,-1 h -1 l -1,-1 -1,-1 -1,-1 -2,-1 -1,-1 -2,-1 -1,-1 -2,-1 -2,-1 -2,-1 -1,-1 -2,-1 h -1 l -1,-1 -1,-1 h -1 l -1,-1 -2,-1 h -1 l -1,-1 -1,-1 h -1 l -1,-1 -1,-1 h -2 l -1,-1 -1,-1 h -1 l -1,-1 1,-2" /><path
             id="path142"
             style="fill:none;stroke:#000000;stroke-width:6.25;stroke-linecap:round;stroke-linejoin:round;stroke-miterlimit:10;stroke-dasharray:none;stroke-opacity:1"
             d="m 2788,1923 v -1 -1 -2 l 1,-1 v -1 -2 -1 -1 l 1,-1 v -2 -1 -1 -2 -1 l 1,-1 v -1 -2 l 1,-3 v -3 -3 -2 -2 -2 -1 -2 -1 -1 l -1,-1 -1,-1 v -1 h -1 l -1,-1 h -1 l -1,-1 h -1 -1 l -1,-1 h -1 l -1,-1 -1,-1 h -1 v -1 l -1,-1 -1,-1 h -1 v -1 l -1,-1 -1,-1 v -1 -1 l -1,-1 v -1 -1 l -1,-1 v -1 l -1,-1 v -1 -1 h -1 v -1 h -1 -1 l -1,1 -1,1 v 1 l -1,1 -1,1 -1,1 h -1 -1 -1 -1 -1 -1 l -1,-1 h -1 l -1,-1 -1,-1 -2,-1 -2,-1 -2,-1 -2,-2 -2,-1 h -1 l -1,-1 h -1 -1 l -1,1 v 2 1 3 3 3 l 1,4 v 5 l 1,6 1,7 1,6 1,3 v 3 l 1,3 v 3 3 l 1,2 v 3 2 2 l 1,2 v 2 2 1 1 1 1 1 h -1 -1 -2 l -2,-1 -3,-2 -2,-1 -4,-3 -3,-2 -3,-3 -4,-3 -3,-3 -3,-4 -3,-3 -3,-3 -2,-3 -2,-3 -2,-2 -1,-3 -1,-3 -1,-4 -2,-4 -1,-3 -2,-3 -2,-2 -2,-2 -2,-2 -2,-1 -2,-1 h -1 -2 -2 l -1,2 -1,1 -1,3 -1,3 v 3 2 2 1 2 l -1,2 v 2 l -1,3 v 2 l -1,3 v 2 l -1,3 -1,3 -1,3 v 3 l -1,2 -1,3 -1,3 -1,3 v 1 l -1,2 v 2 l -1,1 -1,2 v 2 l -1,1 v 2 l -1,2 v 1 l -1,2 -1,2 v 1 l -1,2 v 2 l -1,1 -1,2 v 1 l -1,-2 -1,-2 -1,-2 -1,-2 -1,-1 -1,-2 -1,-2 -1,-2 -1,-2 -1,-2 -1,-2 -1,-2 -1,-2 -1,-1 -1,-2 -1,-2 -1,-2 -2,-4 -4,-7 -3,-7 -3,-5 -3,-5 -3,-5 -3,-4 -3,-3 -2,-3 -3,-3 -2,-2 -3,-1 -2,-2 -3,-1 -3,-1 h -3 -3 -4 -3 -2 -2 -1 -2 -2 -2 -2 -2 -1 -2 -2 -1 -2 -1 -1 -1 -1 -1 -1 -1 -1 -2 -1 -1" /><path
             id="path144"
             style="fill:none;stroke:#000000;stroke-width:6.25;stroke-linecap:round;stroke-linejoin:round;stroke-miterlimit:10;stroke-dasharray:none;stroke-opacity:1"
             d="m 2549,1864 h -2 -1 l -2,1 h -1 -2 -1 l -2,1 h -1 -2 -1 l -2,1 h -2 l -2,1 h -1 l -2,1 h -1 l -1,1 h -2 v 1 l -1,1 h -1 l -1,1 v 1 l -1,1 v 2 1 1 2 1 2 1 1 1 1 1 l 1,2 v 1 1 1 l 1,1 v 1 l 1,1 v 1 l 1,1 1,1 v 2 l 1,1 v 2 l 1,3 v 3 3 l 1,4 v 4 l 1,4 v 4 l 1,5 v 5 l 1,5 v 5 5 l 1,6 v 7 l 1,9 v 7 l 1,7 v 6 5 l 1,5 v 3 l 1,4 1,2 v 2 l 1,2 1,1 1,1 1,1 h 1 1 2 2 l 2,1 h 2 1 l 2,1 h 2 l 1,1 h 2 l 1,1 2,1 1,1 1,2 1,1 1,1 1,2 1,2 1,2 1,2 v 1 l 1,1 v 1 1 h 1 v 1 1 1 h 1 v 1 1 1 h 1 1 l 1,-1 1,-1 h 1 l 1,-1 h 2 l 1,-1 h 1 l 1,-1 h 1 l 1,-1 1,-1 h 1 l 2,-1 h 1 l 1,-1 h 1 l 1,-1 2,-1 2,-1 2,-1 1,-1 2,-1 2,-1 1,-2 2,-1 1,-1 1,-1 2,-1 1,-1 1,-2 v -1 l 1,-1 1,-1 v -1 l 1,-1 1,-1 2,-2 3,-2 3,-3 4,-2 4,-3 5,-3 5,-2 5,-3 5,-3 5,-2 5,-3 4,-2 4,-1 4,-2 3,-1 h 2 1 v 1 1 l -1,1 v 1 1 l -1,1 v 2 l -1,1 -1,1 v 2 l -1,1 -1,2 -1,2 v 1 l -2,3 -1,2 -1,2 -1,2 -1,2 v 2 l -1,1 v 1 1 1 1 1 h 1 1 1 1 1 l 1,1 h 1 1 1 1 l 1,1 h 1 l 2,1 h 1 l 1,1 h 2 l 1,1 h 1 l 2,1 h 1 l 1,1 2,1 1,1 2,1 1,1 h 2 l 1,1 1,1 1,1 1,1 1,2 v 1 l 1,1 v 1 l 1,1 v 2 1 2 1 2 2 1 l 1,2 v 1 1 l 1,1 v 1 l 1,1 1,1 1,1 1,1 h 1" /><path
             id="path146"
             style="fill:none;stroke:#000000;stroke-width:6.25;stroke-linecap:round;stroke-linejoin:round;stroke-miterlimit:10;stroke-dasharray:none;stroke-opacity:1"
             d="m 2711,2065 2,1 1,1 h 2 l 2,1 2,1 h 1 1 l 1,1 h 1 1 l 1,1 h 1 1 1 l 1,1 h 1 l 1,1 h 1 1 1 l 1,1 h 1 v -1 -1 -1 -1 -1 -1 -1 -1 -1 -1 -1 -1 -1 -1 -1 -1 -6 l 1,-5 v -5 l 2,-5 1,-4 2,-5 2,-3 2,-4 3,-3 3,-3 3,-3 4,-3 5,-2 4,-2 5,-2 5,-2 6,-2 5,-1 h 2 l 2,-1 h 1 l 2,-1 1,-1 h 1 v -1 l 1,-1 1,-1 v -1 l 1,-1 v -1 -2 -2 l 1,-2 v -2 -2 -2 -3 -2 -2 -1 l 1,-2 v -2 l 1,-2 v -1 l 1,-2 v -1 l 1,-2 1,-1 1,-2 1,-1 1,-1 2,-2 1,-1 2,-2 2,-2 2,-2 2,-2 1,-2 1,-2 v -1 -2 -1 l -1,-1 v -1 l -2,-1 -1,-1 -2,-1 -3,-1 h -2 l -3,-1 h -4 -1 -1 -1 -1 -1 l -1,-1 h -1 -1 -1 -1 -1 -1 -1 -1 -1 -1 -1 l -1,-1 v -1" /><path
             id="path148"
             style="fill:none;stroke:#000000;stroke-width:6.25;stroke-linecap:round;stroke-linejoin:round;stroke-miterlimit:10;stroke-dasharray:none;stroke-opacity:1"
             d="m 3514,2201 v -1 l 1,-1 v -1 -1 -1 l -1,-1 v -1 -1 h -1 l -1,-1 h -1 -1 -1 v -1 -1 -1 -1 -1 -1 -1 l 1,-1 v -1 l 1,-2 v -2 l 1,-4 v -4 -4 -5 l -1,-5 -1,-5 -1,-5 -2,-5 -1,-4 -2,-5 -1,-4 -2,-3 -2,-3 -2,-2 -2,-1 -2,-1 -1,1 h -1 l -1,1 v 1 1 2 1 l 1,2 v 1 l 1,2 1,1 1,2 1,2 1,1 1,2 1,1 1,1 2,1 1,1 1,1 1,2 1,1 v 2 l 1,1 v 2 3 2 2 l -1,2 -1,3 v 2 l -1,2 -1,2 -2,3 -1,2 -2,2 -1,1 -1,1 -1,1 v 1 l -1,1 -1,1 -1,1 v 1 h -1 v 1 l -1,1 v 1 l -1,1 v 1 1 h -1 v 1 1 h -1 v 1 h -1 -1 -1 -1 -1 -1 -1 -1 l -1,-1 h -1 -1 -1 -1 -1 l -1,1 -1,1 h -1 v 1 l -1,1 v 1 l -1,1 v 1 l -1,1 v 2 1 l -1,1 v 1 1 l -1,1 v 1 l -1,1 v 1 l -1,1 v 1 h -1 l -1,1 -1,1 h -1 l -1,1 h -1 -1 -1 v 1 h -1 v 1 h -1 v 1 1 1 l 1,1 v 1 1 1 1 1 1 1 1 1 1 l -1,2 v 1 1 h -1 v 1 l -1,1 v 1 l -1,1 v 1 l -1,1 v 1 1 1 1 1 1 1 l 1,1 1,1 1,1 h 1 v 1 1 1 1 l -1,1 -1,1 -1,1 v 1 l -1,1 h -1 l -1,1 -2,1 v 1 h -1 v 1 h -1 l -1,1 -1,1 h -1 l -1,1 h -1 v 1 h -1 v 1 h -1 l -1,1 v 1 l 1,1 1,1 1,1 1,1 1,1 1,2 1,1 1,1" /><path
             id="path150"
             style="fill:none;stroke:#000000;stroke-width:6.25;stroke-linecap:round;stroke-linejoin:round;stroke-miterlimit:10;stroke-dasharray:none;stroke-opacity:1"
             d="m 3442,2281 1,1 1,1 2,1 1,1 1,1 1,1 1,1 1,1 1,1 1,2 2,2 2,1 2,2 1,1 2,2 1,1 2,1 1,1 2,1 1,1 h 1 l 1,1 h 1 l 1,1 h 1 l 1,-1 1,-1 1,-1 1,-1 v -1 l 1,-1 1,-1 1,-2 1,-1 2,-2 1,-1 1,-2 1,-1 1,-2 1,-2 1,-2 1,-2 2,-1 1,-2 1,-2 1,-2 1,-1 1,-2 1,-1 1,-2 1,-1 1,-1 1,-1 v -1 l 1,-1 1,-1 v -1 h 1 l 1,-1 1,-1 1,-2 2,-2 1,-3 2,-3 2,-3 2,-3 1,-3 2,-4 2,-3 1,-3 2,-3 1,-3 1,-2 1,-2 v -1 l 1,-1 v -1 h -1 v -1 h -1 v -1 h -1 l -1,-1 h -1 l -1,-1 h -1 -1 l -1,-1 h -1 -1 l -1,-1 h -1 -1 v -1 h -1 v -1 l -1,-1 v -1 -1 l -1,-1 v -1 -1 l 1,-1 v -1 -1 -1" /><path
             id="path152"
             style="fill:none;stroke:#000000;stroke-width:6.25;stroke-linecap:round;stroke-linejoin:round;stroke-miterlimit:10;stroke-dasharray:none;stroke-opacity:1"
             d="m 3825,5012 v -1 -1 -1 -1 -1 h -1 v -1 -1 h -1 v -1 -1 h -1 v -1 h -1 l -1,-1 h -1 l -1,-1 -1,-1 v -1 -1 l -1,-1 v -1 l 1,-1 1,-1 1,-1 1,-1 1,-1 2,-1 1,-1 2,-1 2,-1 2,-1 2,-1 h 1 l 1,-1 1,-1 h 2 l 1,-1 1,-1 h 1 v -1 l 1,-1 1,-1 1,-1 v -1 l 1,-1 v -1 -1 -1 -1 h 1 v -1 h 1 v -1 h 1 1 l 1,1 h 1 l 1,-1 v -1 -1 l 1,-1 v -1 -1 -1 -2 -2 l -1,-2 v -2 -2 -2 l -1,-3 v -2 l -1,-3 v -2 l -1,-3 v -2 l -1,-2 -1,-2 -1,-2 -1,-2 -1,-2 -1,-2 -1,-2 -1,-2 -1,-1 -2,-2 -1,-2 -2,-1 -2,-3 -2,-3 -2,-3 -2,-3 -1,-3 -1,-3 -2,-3 v -2 l -1,-3 -1,-3 v -2 -2 l 1,-2 v -2 l 1,-1 2,-1 h 1 2 1 1 l 1,-1 h 1 v -1 l 1,-1 v -1 -1 -1 -1 -1 -1 h -1 v -1 h -1 v -1 h -1 v -1 h -1 l -1,-1 h -1 l -1,-1 h -1 -1 l -2,-1 h -3 l -3,-1 -2,-1 -2,-1 -2,-1 -1,-1 -1,-2 -1,-2 -1,-2 v -2 -3 -3 -3 l 1,-4 v -4 l 1,-4 2,-5 1,-4 1,-2 1,-3 1,-2 1,-3 1,-3 1,-2 1,-3 1,-2 1,-3 1,-2 2,-2 1,-3 1,-2 1,-2 1,-1 1,-2 1,-1 2,-3 2,-2 2,-3 1,-3 1,-2 v -3 -2 -2 -2 l -1,-2 -2,-2 -1,-1 -2,-2 -3,-1 -2,-1 h -3 l -4,-1 h -3 -3 -3 l -2,1 h -2 -2 l -2,1 -1,1 -2,1 -1,1 -1,2 -1,1 -1,2 v 2 l -1,3 v 2 3 3 3 2 l -1,1 v 2 1 l -1,1 v 2 l -1,1 -1,1 -2,1 -1,1 -2,1 -2,2 -2,1 -2,1 -3,1 -3,2 -3,1 -4,2 -4,2 -3,1 -3,2 -3,1 -3,1 -2,1" /><path
             id="path154"
             style="fill:none;stroke:#000000;stroke-width:6.25;stroke-linecap:round;stroke-linejoin:round;stroke-miterlimit:10;stroke-dasharray:none;stroke-opacity:1"
             d="m 3747,4804 h -2 l -2,1 h -2 -2 -2 -1 l -2,-1 h -1 l -2,-1 h -1 l -2,-1 -1,-1 -2,-1 -1,-1 h -1 l -2,-1 -1,-1 h -2 l -1,-1 -2,-1 h -2 l -1,-1 h -2 l -2,-1 h -1 l -2,-1 h -1 l -2,-1 h -1 -2 l -1,-1 h -1 -1 -1 l -1,-1 h -1 -1 -1 -1 v -1 h -1 -1 -1 -1 -1 l -1,-1 v 1 1 h 1 v 1 l 1,1 v 1 l 1,1 v 1 l 1,1 1,1 v 1 1 l 1,1 v 1 h 1 v 1 l 1,1 v 1 l 1,2 1,1 v 2 l 1,1 v 1 2 l 1,1 v 1 1 1 l 1,1 v 1 l -1,1 v 1 1 l -2,1 -3,2 -3,1 -4,2 -5,2 -5,2 -5,2 -5,2 -6,1 -6,2 -5,2 -6,1 -5,2 -5,1 -4,1 h -4 -3 -3 -1 -2 -1 l -1,-1 h -2 -1 l -2,-1 h -1 l -1,-1 h -2 l -1,-1 -1,-1 h -2 l -1,-1 -1,-1 h -1 l -1,-1 v -1 h -1 l -1,-1 -1,-1 h -1 v -1 h -1 l -1,-1 h -1 l -1,-1 h -1 -1 l -1,1 -3,4 -3,4 -2,4 -2,4 -2,5 -2,4 -1,3 -1,4 -1,4 v 3 2 3 2 l 1,1 2,1 1,1 h 2 l 2,-1 h 1 l 1,-1 h 1 1 1 1 v 1 -1" /><path
             id="path156"
             style="fill:none;stroke:#000000;stroke-width:6.25;stroke-linecap:round;stroke-linejoin:round;stroke-miterlimit:10;stroke-dasharray:none;stroke-opacity:1"
             d="m 3581,4880 h 1 -1" /><path
             id="path158"
             style="fill:none;stroke:#000000;stroke-width:6.25;stroke-linecap:round;stroke-linejoin:round;stroke-miterlimit:10;stroke-dasharray:none;stroke-opacity:1"
             d="m 3582,4880 -1,1 v 1 2 l -1,2 -1,2 -1,2 -2,2 -1,3 -2,2 -1,2 -2,2 -2,2 -1,2 -2,2 -1,1 -1,1 -1,1 h -1 -1 -1 v 1 h -1 -1 v 1 h -1 l -1,1 -1,1 -1,1 -1,1 -1,1 v 1 l -1,1 -1,2 -1,1 v 1 l -1,1 v 1 1 1 1 h 1 v 1 l 1,1 1,1 2,1 1,1 2,1 1,1 2,1 2,1 2,1 2,1 2,1 h 1 l 2,1 h 1 1 2 1 l 1,-1 h 2 l 1,-1 h 1 l 2,-1 2,-1 2,-1 2,-1 1,-1 1,-1 1,-1 2,-1 1,-1 2,-2 1,-1 1,-2 1,-1 2,-2 1,-2 1,-1 1,-2 1,-2 1,-2 1,-1 1,-2 1,-2 v -1 -1 l 1,-1 v -1 l 1,-1 v -1 -1 l 1,-1 v -1 l 1,-1 v -1 l 1,-1 v -1 -1 l 1,-1 v -1 l 1,-1 1,1 2,3 2,2 2,3 2,3 3,2 2,3 2,3 2,2 2,3 2,3 2,2 2,3 2,3 2,2 3,3 2,3 2,3 2,2 2,3 2,3 2,2 2,3 2,2 2,3 3,3 2,2 2,3 2,3 2,2 2,3 2,3 2,2 2,3 2,3 3,2 -1,1 -1,1 -1,1 v 1 l -1,1 -1,1 -1,1 -1,1 -1,1 v 1 l -1,1 -1,1 -1,1 -1,1 -1,1 v 1 l -1,1 -1,1 -2,2 -1,1 -2,2 -1,1 -2,2 -1,1 -2,1 -1,1 -2,1 -1,1 -2,1 -1,1 h -1 l -1,1 h -1 -1 -1 -1 -1 -1 -1 -1 -1 -1 l -1,1 -1,1 v 1 1 1 1 h 1 l 1,1 h 1 v 1 h 1 1 1 1 1 l 1,1 h 2 1 l 1,1 h 2 l 2,1 2,1 2,1 2,1 2,1 2,2 3,1 2,2 3,1 2,2 2,1 3,2 2,1 1,1 1,1 2,1 1,1 2,1 1,1 2,1 1,1 2,1 1,1 1,1 2,1 1,1 2,1 1,1 2,1 1,1 h 1 l 1,-1 v -1 l 1,-1 1,-1" /><path
             id="path160"
             style="fill:none;stroke:#000000;stroke-width:6.25;stroke-linecap:round;stroke-linejoin:round;stroke-miterlimit:10;stroke-dasharray:none;stroke-opacity:1"
             d="m 3715,5059 1,-1 1,-1 v -1 l 1,-1 1,-1 1,-1 1,-1 1,-1 v -1 l 1,-1 h 1 l 1,-3 2,-2 1,-2 2,-2 1,-1 1,-2 v -1 l 1,-1 v -1 -1 -2 l -1,-1 v -1 l -1,-2 -1,-1 -1,-2 -1,-2 -1,-2 -2,-2 -1,-2 -1,-1 -1,-2 v -1 l -1,-1 v -1 -1 -1 -1 l 1,-2 1,-1 v -1 l 2,-1 1,-1 1,-2 2,-1 2,-2 h 1 v -1 l 1,-1 h 1 v -1 h 1 l 1,-1 1,-1 1,-1 h 1 v -1 l 1,-1 h 1 v -1 h 1 l 1,-1 h 1 l 1,2 2,1 1,1 2,2 1,1 2,2 1,1 1,1 2,2 1,1 2,2 1,1 2,1 1,2 2,1 1,1 1,2 5,4 6,6 6,5 6,5 6,5 5,4 5,3 4,3 5,2 4,2 4,2 4,1 3,1 h 4 3 l 3,-1 3,-1 3,-1 2,-1 1,-1 1,-1 1,-1 1,-1 v -1 -1 -1 -1 l -1,-2 -1,-1 v -1 l -2,-1 -1,-1 -2,-2 -2,-1 -2,-1 -2,-2 -2,-1 -1,-1 h -1 l -1,-1 -1,-1 -1,-1 -1,-1 -1,-1 -1,-1 -1,-1 -1,-1 -1,-1 v -1 l -1,-1 v -1 -1 l -1,-1 v -1" /><path
             id="path162"
             style="fill:none;stroke:#000000;stroke-width:6.25;stroke-linecap:round;stroke-linejoin:round;stroke-miterlimit:10;stroke-dasharray:none;stroke-opacity:1"
             d="m 2828,4915 h -4 l -3,-1 h -2 l -3,-1 -1,-1 -2,-1 -1,-1 v -1 -1 -1 l 1,-1 1,-2 2,-1 2,-2 2,-2 3,-1 4,-2 3,-2 2,-1 3,-1 1,-1 2,-1 2,-1 1,-1 v -1 l 1,-1 v -1 -1 l -1,-1 -1,-1 -1,-1 -1,-1 -1,-1 h -1 l -1,-1 -1,-1 -1,-1 h -1 v -1 h -1 -1 l -1,-1 -1,-1 h -1 -1 -1 -1 l -2,1 -2,1 -2,1 -2,1 -3,1 -3,2 -3,1 -3,2 -4,2 -4,2 -4,2 -4,3 -4,2 -4,2 -4,3 -3,1 -3,2 -3,1 -2,2 -3,1 -3,2 -2,1 -3,2 -3,1 -2,2 -3,1 -3,2 -2,1 -3,2 -3,1 -2,2 -3,1 -3,2 v 1 l 1,1 v 1 1 1 1 1 1 1 l 1,1 v 1 1 1 1 1 l 1,1 v 1 1 1 1 1 1 h 1 v 1 1 1 1 1 l 1,1 v 1 1 1 1 l -1,-1 -1,-1 -1,-1 -1,-1 v -1 l -1,-1 -1,-1 -1,-1 -1,-1 -1,-1 -1,-1 -1,-1 -1,-1 -1,-1 v -1 l -1,-1 -1,-1 -2,-2 -1,-2 -2,-2 -1,-1 -2,-2 -1,-1 -1,-1 -1,-1 -1,-1 h -1 l -1,-1 h -1 -1 v 1 h -1 v 1 1 2 l -2,5 -3,5 -3,5 -4,6 -5,6 -6,7 -6,6 -6,6 -7,6 -6,6 -6,5 -7,5 -5,4 -6,3 -4,2 -5,1 h -3 l -1,-1 h -1 -1 -1 v 1 h -1 v 1 1 h 1 v 1 1 1 l 1,1 v 1 1 l -1,1 v 1 l -1,1 v 1 l -1,1 -1,1 -1,2 -1,1 -1,1 -1,1 -2,2 -1,1 -2,1 -1,2 h -1 l -1,1 -1,1 h -1 l -1,1 v 1 h -1 l -1,1 -1,1 h -1 l -1,1 -1,1 h -1 l -1,1 -1,1 v 1 h -1 -1 v -1 -1 l -1,-1 v -1 -1 l -1,-1 v -1 -1 -1 -1 h -1 v -1 -1 -1 l -1,-1 v -2 -1 l -1,-1 -1,-1" /><path
             id="path164"
             style="fill:none;stroke:#000000;stroke-width:6.25;stroke-linecap:round;stroke-linejoin:round;stroke-miterlimit:10;stroke-dasharray:none;stroke-opacity:1"
             d="m 2577,5027 v -1 h -1 -1 -1 v 1 h -1 v 1 l -1,2 -1,1 -1,2 v 2 l -1,2 v 1 2 2 1 2 l 1,1 v 1 l 1,1 1,1 v 1 h 1 l 2,1 h 1 1 l 1,1 2,1 2,1 2,2 1,2 2,2 2,2 2,3 2,2 2,3 1,2 2,3 1,2 1,3 1,2 v 1 2 l -1,1 h -1 -1 -1 -1 -2 -1 -2 -2 -1 -2 -2 l -3,-1 h -2 -1 -2 -1 -1 l -2,-1 h -1 -1 -2 -1 -1 l -2,-1 h -1 -1 -2 -1 -1 l -2,-1 h -1 v 1 2 2 2 1 2 2 2 1 2 2 2 1 2 2 2 1 2 5 5 4 4 l 1,3 v 3 l 1,2 1,1 v 1 l 1,1 h 1 l 1,-1 1,-1 v -2 l 1,-2 1,-3 1,-3 1,-5 1,-2 v -2 l 1,-1 v -2 l 1,-1 v -1 l 1,-1 1,-1 h 1 1 1 l 1,1 1,1 h 1 l 2,1 2,2 2,1 3,1 2,1 2,1 h 2 2 2 1 l 2,-1 2,-1 2,-2 1,-2 2,-2 2,-2 2,-3 1,-4 2,-3 2,-4 1,-2 1,-1 1,-2 1,-2 1,-2 1,-1 1,-2 1,-1 1,-1 1,-2 1,-1 1,-1 h 1 l 1,-1 1,-1 h 1 1 1 1 1 1 l 1,-1 h 1 1 1 1 1 l 1,-1 h 1 l 1,-1 h 1 l 1,1 h 1 l 1,1 1,1 1,2 2,2 1,2 2,2 1,2 2,3 2,4 2,3 2,4 2,4 2,4 3,5 3,6 3,6 2,5 3,5 2,4 2,3 1,3 2,3 2,2 1,1 2,2 2,1 h 1 l 2,1 h 2 l 2,1 h 2 2 2 3 1 2 1 l 2,1 h 1 l 1,1 1,1 v 1 l 1,1 v 2 1 2 2 2 3 2 2 l 1,2 v 2 1 1 l 1,2 1,1 1,1 1,1" /><path
             id="path166"
             style="fill:none;stroke:#000000;stroke-width:6.25;stroke-linecap:round;stroke-linejoin:round;stroke-miterlimit:10;stroke-dasharray:none;stroke-opacity:1"
             d="m 2728,5191 h 2 1 2 1 2 2 l 2,1 h 1 1 2 1 l 1,1 h 1 l 2,1 h 1 l 1,1 h 1 v 1 l 1,1 1,1 1,1 v 1 l 1,1 1,1 v 1 l 1,1 1,1 h 1 l 1,1 1,1 1,1 h 1 l 2,1 h 1 2 l 2,1 h 1 2 3 2 3 4 3 3 3 l 2,-1 2,-1 2,-2 1,-2 v -3 l 1,-4 v -5 l -1,-6 v -7 l -1,-9 -2,-10 -1,-11 -2,-13 -2,-14 v -3 l -1,-4 v -3 l -1,-4 v -3 l -1,-3 v -4 l -1,-3 v -4 l -1,-3 v -4 -3 l -1,-4 v -3 l -1,-4 v -3 l -1,-4 v -3 l 1,-1 1,-1 1,-1 1,-1 1,-1 1,-1 1,-1 1,-1 2,-1 1,-1 1,-1 1,-1 1,-1 1,-1 1,-1 1,-1 1,-1 3,-3 6,-5 5,-5 4,-5 5,-5 3,-5 4,-4 3,-4 2,-4 3,-5 2,-4 1,-4 2,-4 1,-4 1,-4 v -5 l 1,-4 v -5 -3 -3 -2 -3 -2 -3 l -1,-2 v -3 -2 -2 -2 -2 l -1,-2 v -2 -2 -1 l -1,-1 v -2 -1 l -1,-1 v -1 l -1,-1 v -1 l -1,-1 -1,-1 -1,-1 h -1 l -1,-1 h -1 -1 l -1,-1 h -1 -1 -2 -1 -4" /></g></g><g
         id="g168"><g
           clip-path="url(#clipPath174)"
           id="g170"><path
             id="path176"
             style="fill:none;stroke:#000000;stroke-width:6.25;stroke-linecap:round;stroke-linejoin:round;stroke-miterlimit:10;stroke-dasharray:none;stroke-opacity:1"
             d="M 0,151 H 4938 V 6598" /></g></g></g></g></svg>