<?xml version="1.0" encoding="UTF-8"?>
<svg id="Layer_1" data-name="Layer 1" xmlns="http://www.w3.org/2000/svg" viewBox="0 0 890.03 614.08">
  <defs>
    <style>
      .cls-1 {
        fill: none;
        stroke: #000;
        stroke-linejoin: round;
        stroke-width: 2px;
      }
    </style>
  </defs>
  <polygon class="cls-1" points="323.84 138.78 435.02 276.7 424.07 321.9 507.34 313.77 503.73 245.96 466.66 246.87 459.26 89.63 347.87 7.73 323.84 138.78"/>
  <polygon class="cls-1" points="517.65 213.03 526.69 131.88 575.51 73.8 607.51 1 473.19 56.7 480.59 213.93 517.65 213.03"/>
  <polygon class="cls-1" points="531.47 232.71 586.62 173.04 655.33 166.71 749.35 66.36 621.33 20.68 589.33 93.48 540.52 151.56 531.47 232.71"/>
  <polygon class="cls-1" points="540.35 250.64 595.5 190.97 664.2 184.64 758.22 84.29 889.03 133.62 715.39 307.26 542.23 285.89 540.35 250.64"/>
  <polygon class="cls-1" points="704.63 319.88 809.47 483.69 678.42 483.69 533.21 331.07 531.47 298.52 704.63 319.88"/>
  <polygon class="cls-1" points="664.33 487.62 500.52 549.87 461.2 501.34 497.42 465.18 495.48 337.3 519.11 334.99 664.33 487.62"/>
  <polygon class="cls-1" points="481.57 547.56 442.25 499.03 478.47 462.87 476.53 334.99 416.89 340.82 275.06 579.94 316.67 613.08 353.8 516.44 481.57 547.56"/>
  <polygon class="cls-1" points="253.25 573.91 240.25 564.46 122.31 564.46 241.27 353.09 303.42 363.27 374.61 321.9 395.08 334.79 253.25 573.91"/>
  <polygon class="cls-1" points="399.54 313.55 379.08 300.66 307.88 342.02 245.73 331.85 264.37 300.78 304.49 255.01 410.49 268.34 399.54 313.55"/>
  <polygon class="cls-1" points="243.44 280.96 1 235.09 128.77 126.98 278.38 110.59 389.56 248.52 283.56 235.19 243.44 280.96"/>
</svg>