<?xml version="1.0" encoding="UTF-8"?>
<svg id="Layer_1" data-name="Layer 1" xmlns="http://www.w3.org/2000/svg" viewBox="0 0 891.03 623">
  <defs>
    <style>
      .cls-1 {
        fill: none;
        stroke: #000;
        stroke-linejoin: round;
        stroke-width: 3px;
      }
    </style>
  </defs>
  <polygon class="cls-1" points="303.62 113.17 430.42 270.47 415.92 330.32 524.4 330.32 517.58 239.29 462.06 240.64 453.97 68.78 343.27 1.5 303.62 113.17"/>
  <polygon class="cls-1" points="518.15 221.44 527.19 140.3 576.01 82.22 608.01 9.42 473.69 65.11 481.09 222.35 518.15 221.44"/>
  <polygon class="cls-1" points="534.23 236.1 587.12 181.46 655.83 175.13 741.69 83.49 626.75 17.92 589.83 101.9 545.1 153.33 534.23 236.1"/>
  <polygon class="cls-1" points="536.81 263.43 596 199.39 664.7 193.06 758.72 92.71 889.53 142.04 715.89 315.68 539.71 293.94 536.81 263.43"/>
  <polygon class="cls-1" points="714.61 332.76 818.84 492.11 687.8 492.11 542.58 339.48 540.85 309.24 714.61 332.76"/>
  <polygon class="cls-1" points="671.42 496.04 507.61 558.29 468.29 509.76 504.51 473.6 496.33 349.24 526.96 349.24 671.42 496.04"/>
  <polygon class="cls-1" points="482.07 555.98 442.75 507.45 478.97 471.29 475.37 350.44 417.39 349.24 275.56 588.36 317.17 621.5 354.3 524.85 482.07 555.98"/>
  <polygon class="cls-1" points="255.55 579.36 240.75 572.88 122.81 572.88 241.77 361.51 303.92 371.68 375.11 330.32 398.36 344.96 255.55 579.36"/>
  <polygon class="cls-1" points="400.04 321.96 379.58 309.08 301.43 354.48 243.58 344.68 252.28 305.65 291.34 261.71 410.99 276.76 400.04 321.96"/>
  <polygon class="cls-1" points="243.94 289.37 1.5 243.51 129.27 135.39 281.9 122.52 398.36 257.98 284.06 243.6 243.94 289.37"/>
</svg>