<svg id="Layer_2" data-name="Layer 2" xmlns="http://www.w3.org/2000/svg" viewBox="0 0 588.82 651.33"><defs><style>.cls-1{fill:none;stroke:#000;stroke-linejoin:round;stroke-width:2px;}</style></defs><polygon class="cls-1" points="564.38 293.59 497.7 297.3 515.99 262.37 475 232.35 377.58 287.7 378.51 338.11 327.27 389.99 356.48 425.1 370 395.08 422.15 395.34 450.82 464.39 564.38 293.59"/><polygon class="cls-1" points="440.84 475.2 413.71 408.37 378.25 408.05 360.79 449.32 351.45 437.74 347.94 464.39 368.99 491.57 393.12 492.39 408.89 515.53 440.84 475.2"/><polygon class="cls-1" points="399.79 525.76 299.2 650.33 235.46 534.44 340.39 434.85 333.73 467.85 363.05 505.65 385.48 505.34 399.79 525.76"/><polygon class="cls-1" points="228.37 523.51 334.1 422.83 306.12 388.71 362.19 331.84 361.51 291.17 336.41 288.03 320.92 318.83 267.89 332.79 265.56 349.69 210.76 360.13 199.93 346.8 191.47 360.85 177.29 351.83 154.03 389.86 228.37 523.51"/><polygon class="cls-1" points="522.01 249.09 587.82 139.32 533.37 117.41 478.52 178.81 438.57 166.6 370.38 223.19 390.59 262.99 475.64 215.67 522.01 249.09"/><polygon class="cls-1" points="376.38 270.77 362.68 279.01 329.04 274.48 313.36 307.87 286.34 315 260.28 213.38 335.33 185.49 376.38 270.77"/><polygon class="cls-1" points="257.07 199.56 221.35 147.97 253.81 131.51 258.06 155.29 436.23 93.92 519.4 109.66 473.43 161.13 433.47 148.91 362.52 207.8 340.98 168.37 257.07 199.56"/><polygon class="cls-1" points="252.1 117.41 271.5 1 65.61 20.8 200.69 141.99 252.1 117.41"/><polygon class="cls-1" points="62.19 39.1 199.78 160.47 208.72 156.11 243.33 206.11 250.99 239.01 97.12 229.53 62.19 39.1"/><polygon class="cls-1" points="271.66 319.58 253.78 252.76 100.64 243.25 110.51 298.94 85.68 308.84 86.46 348.26 57.33 341.4 39.93 369.83 60.76 409.18 28.2 405.28 24.46 379.26 1 421.23 40.81 439.4 52.34 426 64.03 436.44 106.25 380.04 113.73 384.4 126.5 370.85 116.84 363.53 115.6 316.94 147.69 375.3 173.08 333.77 187.42 342.5 198.01 324.89 215.28 347.74 255.63 340.73 258.61 322.87 271.66 319.58"/></svg>