<?xml version="1.0" encoding="UTF-8"?>
<svg id="Layer_1" data-name="Layer 1" xmlns="http://www.w3.org/2000/svg" viewBox="0 0 401.75 447.12" class="map">
  <defs>
    <style>
      .cls-1 {
        cursor: pointer;
        fill: #fff !important;
        stroke: #010101;
        stroke-linejoin: round;
        stroke-width: 2px;
      }
      .cls-1:hover {
        cursor: pointer;
        fill: #fff;
        stroke: #010101;
        stroke-linejoin: round;
        stroke-width: 3px;
      }
    </style>
  </defs>
  <a xlink:href="#block9"><polygon class="cls-1" points="162.6 7.54 195.27 141.5 213.79 155.12 236.12 145.86 291.12 40.21 268.79 20.61 230.67 17.34 191.28 1 162.6 7.54"/></a>
  <a xlink:href="#block6"><polygon class="cls-1" points="314.16 49.12 383.33 109.57 400.75 258.78 304.9 201.06 302.18 170.56 259.16 154.77 314.16 49.12"/></a>
  <a xlink:href="#block5"><polygon class="cls-1" points="291.51 190.75 262.65 219.61 280.07 246.84 258.29 246.84 345.42 371.55 390.08 278.97 294.23 221.25 291.51 190.75"/></a>
  <a xlink:href="#block4"><polygon class="cls-1" points="242.82 258.78 215.59 269.13 194.35 263.96 188.18 280.02 204.7 361.17 182.37 434.69 250.99 446.12 329.96 383.49 242.82 258.78"></polygon></a>
  <a xlink:href="#block3"><polygon class="cls-1" points="168.76 272.4 159.69 265.32 152.61 272.4 84.53 358.44 115.58 408 162.95 427.06 185.28 353.54 168.76 272.4"/></a>
  <a xlink:href="#block2"><polygon class="cls-1" points="137.15 261.55 117.54 261.55 140.42 221.25 100.12 213.62 51.1 230.5 57.64 191.29 1 196.74 14.07 267.54 61.99 354.67 137.15 261.55"/></a>
  <a xlink:href="#block7"><polygon class="cls-1" points="114.76 193.47 64.66 49.7 35.79 79.11 30.89 136.29 15.64 176.59 72.28 171.14 65.74 210.36 114.76 193.47"/></a>
  <a xlink:href="#block8"><path class="cls-1" d="M125.38,179.82l21.24-17.97s24.14-3.81,24.87-2.72,3.99-21.78,3.99-21.78L142.8,3.37l-29.95,20.15-37.58,12.53,50.1,143.77Z"/></a>
  <a xlink:href="#block1"><polygon class="cls-1" points="185.28 161.48 181.29 183.26 156.42 185.98 135.18 203.96 175.48 211.58 152.61 251.88 172.21 251.88 181.29 258.96 187.46 242.89 208.7 248.07 235.93 237.72 257.71 237.72 240.29 210.49 269.15 181.63 226.13 165.83 203.8 175.09 185.28 161.48"/></a>
</svg>