<svg id="Layer_2" data-name="Layer 2" xmlns="http://www.w3.org/2000/svg" viewBox="0 0 393.51 665.48">
  <defs>
    <style>
      .cls-1 {
        fill: none;
        stroke: #000;
        stroke-linejoin: round;
        stroke-width: 2px;
      }
    </style>
  </defs>
  <g>
    <polygon class="cls-1" points="227.24 142.21 254.42 127.2 243.5 81.8 266.5 80.47 268.98 1 167.73 70.65 183.76 88.97 227.24 142.21"/>
    <polygon class="cls-1" points="279.52 34.85 279.52 90.27 256.4 91 271.24 145.97 292.97 128.6 310.45 225.69 324.27 219.94 279.52 34.85"/>
    <polygon class="cls-1" points="298.72 218.44 285.54 149.87 264.35 163.63 257.29 138.21 233.08 151.26 298.72 218.44"/>
    <polygon class="cls-1" points="216.5 151.89 297.9 233.75 276.78 253.15 87.35 98.48 154.56 77.27 216.5 151.89"/>
    <polygon class="cls-1" points="73.53 105.14 47.19 113.92 132.54 243.76 163.13 224 150.82 207.57 174.15 187.3 73.53 105.14"/>
    <polygon class="cls-1" points="266.83 265.03 160.26 313.74 64.08 307.7 53.42 279.32 132.04 260.6 182.9 227.38 168.41 209.64 182.73 196.85 266.83 265.03"/>
    <polygon class="cls-1" points="119.3 250.02 49.04 267.11 1 129.24 33.53 118.39 119.3 250.02"/>
    <polygon class="cls-1" points="286.59 262.32 312.66 237.31 326.48 231.57 370.05 411.88 280.4 427.16 239.9 355.05 309.61 284.57 286.59 262.32"/>
    <polygon class="cls-1" points="289.4 286.3 277.04 274.71 165.59 327.63 202.19 406.09 256.06 410.33 223.2 352.84 289.4 286.3"/>
    <polygon class="cls-1" points="148.91 326.93 70.33 321.44 104.35 407.21 184.64 405.67 148.91 326.93"/>
    <polygon class="cls-1" points="290.02 441.4 374.65 425.62 389.69 487.3 332.57 500.12 290.02 441.4"/>
    <polygon class="cls-1" points="392.51 500.47 378.71 575.77 281.34 598.51 261.5 568.74 279.1 550.64 244.62 522.64 255.01 505.52 310.03 539.8 332.57 512.41 392.51 500.47"/>
    <polygon class="cls-1" points="305.3 520.96 319.35 505.29 260.31 423.99 205.31 419.09 186.51 446.41 305.3 520.96"/>
    <polygon class="cls-1" points="241.35 497.64 225.58 524.92 259.6 552.32 243.91 568.88 267.83 602.35 194.41 664.48 147.4 529.58 186.4 518.1 198.81 470.02 241.35 497.64"/>
    <polygon class="cls-1" points="186.83 462.96 176.65 506.65 142 516.14 108.71 420.62 189 419.09 167.58 450.32 186.83 462.96"/>
  </g>
</svg>
