<svg id="Layer_2" data-name="Layer 2" xmlns="http://www.w3.org/2000/svg" viewBox="0 0 255.16 707.14" class="district_map"><defs><style>.cls-1{fill:none;stroke:#000;stroke-linejoin:round;stroke-width:2px;}</style></defs><polygon class="cls-1" points="193.24 18.22 171.16 1 107.94 77.23 133.22 99.64 195.29 28.28 193.24 18.22"/><polygon class="cls-1" points="200.45 40.41 219.11 88.41 191.86 129.79 150.54 97.32 200.45 40.41"/><polygon class="cls-1" points="225.4 101.95 202 137.32 215.89 148.19 208.99 160.88 238.31 165.37 225.4 101.95"/><polygon class="cls-1" points="99.79 86.71 135.34 116 143.34 106.87 152.44 114.81 135.17 138.17 122.29 129.79 114.84 148.98 75.31 117.65 99.79 86.71"/><polygon class="cls-1" points="172.23 211.12 131.61 191.63 156.77 155.28 143.62 144.45 160.9 121.08 202 151.25 172.23 211.12"/><polygon class="cls-1" points="240.21 175.87 254.1 238.58 182.56 218.73 205.76 170.48 240.21 175.87"/><polygon class="cls-1" points="68.17 126.5 119.46 165.03 126.92 145.85 143.34 157.59 120.34 187.4 91.87 185.75 75.31 204.77 64.09 192.95 46.48 228.87 7.31 203.43 68.17 126.5"/><polygon class="cls-1" points="57.84 234.82 96.06 261.8 92.29 275.05 110.22 283.67 116.14 263.7 132.49 270.51 151.15 228.78 163.08 233.13 168.07 220.69 120.7 199.52 97.65 198.12 75.32 225.36 65.92 214.53 57.84 234.82"/><polygon class="cls-1" points="100.03 293.44 57.84 344.5 84.1 386.43 199.36 432.8 254.16 249.61 179.65 228.93 171.04 249.76 157.44 244.81 138.48 287.92 122.13 281.11 119.15 302.08 100.03 293.44"/><polygon class="cls-1" points="112.19 410.46 128.11 439.87 105.8 444.32 149.21 510.19 171.49 513.07 173.8 522.26 217.21 482.37 196.34 444.32 112.19 410.46"/><polygon class="cls-1" points="134.7 511.22 123.55 529.11 90.51 522.51 57.09 557.17 1 578.22 5.09 607.51 106.19 640.11 88.86 667.76 134.7 662.4 117.33 647.54 169.32 632.69 158.6 687.57 186.66 706.14 210.59 680.97 170.98 624.85 183.36 525.82 168.5 539.84 164.37 525.4 142.09 522.51 134.7 511.22"/></svg>